index,note_name,start_time,duration,velocity,tempo
0,B0,0.0,0.25,0,84
0,D-1,0.0,0.25,0,84
0,D1,0.0,0.25,0,84
0,E1,0.0,0.25,0,84
0,G-1,0.0,0.25,0,84
0,G1,0.0,0.25,0,84
0,A1,0.0,0.25,0,84
0,B1,0.0,0.25,0,84
0,D-2,0.0,0.25,0,84
0,D2,0.0,0.25,0,84
0,E2,0.0,0.25,0,84
0,G-2,0.0,0.25,0,84
0,G2,0.0,0.25,0,84
0,A2,0.0,0.25,0,84
0,B2,0.0,0.25,0,84
0,D-3,0.0,0.25,0,84
0,D3,0.0,0.25,0,84
0,E3,0.0,0.25,0,84
0,G-3,0.0,0.25,0,84
0,G3,0.0,0.25,0,84
1,B0,0.25,0.25,0,84
1,D-1,0.25,0.25,0,84
1,D1,0.25,0.25,0,84
1,E1,0.25,0.25,0,84
1,G-1,0.25,0.25,0,84
1,G1,0.25,0.25,0,84
1,A1,0.25,0.25,0,84
1,B1,0.25,0.25,0,84
1,D-2,0.25,0.25,0,84
1,D2,0.25,0.25,0,84
1,E2,0.25,0.25,0,84
1,G-2,0.25,0.25,0,84
1,G2,0.25,0.25,0,84
1,A2,0.25,0.25,0,84
1,B2,0.25,0.25,0,84
1,D-3,0.25,0.25,0,84
1,D3,0.25,0.25,0,84
1,E3,0.25,0.25,0,84
1,G-3,0.25,0.25,0,84
1,G3,0.25,0.25,0,84
2,B0,0.5,0.25,0,84
2,D-1,0.5,0.25,0,84
2,D1,0.5,0.25,0,84
2,E1,0.5,0.25,0,84
2,G-1,0.5,0.25,0,84
2,G1,0.5,0.25,0,84
2,A1,0.5,0.25,0,84
2,B1,0.5,0.25,0,84
2,D-2,0.5,0.25,0,84
2,D2,0.5,0.25,0,84
2,E2,0.5,0.25,0,84
2,G-2,0.5,0.25,0,84
2,G2,0.5,0.25,0,84
2,A2,0.5,0.25,0,84
2,B2,0.5,0.25,0,84
2,D-3,0.5,0.25,0,84
2,D3,0.5,0.25,0,84
2,E3,0.5,0.25,0,84
2,G-3,0.5,0.25,0,84
2,G3,0.5,0.25,0,84
3,B0,0.75,0.25,0,84
3,D-1,0.75,0.25,0,84
3,D1,0.75,0.25,0,84
3,E1,0.75,0.25,0,84
3,G-1,0.75,0.25,0,84
3,G1,0.75,0.25,0,84
3,A1,0.75,0.25,0,84
3,B1,0.75,0.25,0,84
3,D-2,0.75,0.25,0,84
3,D2,0.75,0.25,0,84
3,E2,0.75,0.25,0,84
3,G-2,0.75,0.25,0,84
3,G2,0.75,0.25,0,84
3,A2,0.75,0.25,0,84
3,B2,0.75,0.25,0,84
3,D-3,0.75,0.25,0,84
3,D3,0.75,0.25,0,84
3,E3,0.75,0.25,0,84
3,G-3,0.75,0.25,0,84
3,G3,0.75,0.25,0,84
4,B0,1.0,0.25,0,84
4,D-1,1.0,0.25,0,84
4,D1,1.0,0.25,0,84
4,E1,1.0,0.25,0,84
4,G-1,1.0,0.25,0,84
4,G1,1.0,0.25,0,84
4,A1,1.0,0.25,0,84
4,B1,1.0,0.25,0,84
4,D-2,1.0,0.25,0,84
4,D2,1.0,0.25,0,84
4,E2,1.0,0.25,0,84
4,G-2,1.0,0.25,0,84
4,G2,1.0,0.25,0,84
4,A2,1.0,0.25,0,84
4,B2,1.0,0.25,0,84
4,D-3,1.0,0.25,0,84
4,D3,1.0,0.25,0,84
4,E3,1.0,0.25,0,84
4,G-3,1.0,0.25,0,84
4,G3,1.0,0.25,0,84
5,B0,1.25,0.25,0,84
5,D-1,1.25,0.25,0,84
5,D1,1.25,0.25,0,84
5,E1,1.25,0.25,0,84
5,G-1,1.25,0.25,0,84
5,G1,1.25,0.25,0,84
5,A1,1.25,0.25,0,84
5,B1,1.25,0.25,0,84
5,D-2,1.25,0.25,0,84
5,D2,1.25,0.25,0,84
5,E2,1.25,0.25,0,84
5,G-2,1.25,0.25,0,84
5,G2,1.25,0.25,0,84
5,A2,1.25,0.25,0,84
5,B2,1.25,0.25,0,84
5,D-3,1.25,0.25,0,84
5,D3,1.25,0.25,0,84
5,E3,1.25,0.25,0,84
5,G-3,1.25,0.25,0,84
5,G3,1.25,0.25,0,84
6,B0,1.5,0.25,0,84
6,D-1,1.5,0.25,0,84
6,D1,1.5,0.25,0,84
6,E1,1.5,0.25,0,84
6,G-1,1.5,0.25,0,84
6,G1,1.5,0.25,0,84
6,A1,1.5,0.25,0,84
6,B1,1.5,0.25,0,84
6,D-2,1.5,0.25,0,84
6,D2,1.5,0.25,0,84
6,E2,1.5,0.25,0,84
6,G-2,1.5,0.25,0,84
6,G2,1.5,0.25,0,84
6,A2,1.5,0.25,0,84
6,B2,1.5,0.25,0,84
6,D-3,1.5,0.25,0,84
6,D3,1.5,0.25,0,84
6,E3,1.5,0.25,0,84
6,G-3,1.5,0.25,0,84
6,G3,1.5,0.25,0,84
7,B0,1.75,0.25,0,84
7,D-1,1.75,0.25,0,84
7,D1,1.75,0.25,0,84
7,E1,1.75,0.25,0,84
7,G-1,1.75,0.25,0,84
7,G1,1.75,0.25,0,84
7,A1,1.75,0.25,0,84
7,B1,1.75,0.25,0,84
7,D-2,1.75,0.25,0,84
7,D2,1.75,0.25,0,84
7,E2,1.75,0.25,0,84
7,G-2,1.75,0.25,0,84
7,G2,1.75,0.25,0,84
7,A2,1.75,0.25,0,84
7,B2,1.75,0.25,0,84
7,D-3,1.75,0.25,0,84
7,D3,1.75,0.25,0,84
7,E3,1.75,0.25,0,84
7,G-3,1.75,0.25,0,84
7,G3,1.75,0.25,0,84
8,B0,2.0,0.25,0,84
8,D-1,2.0,0.25,0,84
8,D1,2.0,0.25,0,84
8,E1,2.0,0.25,0,84
8,G-1,2.0,0.25,0,84
8,G1,2.0,0.25,0,84
8,A1,2.0,0.25,0,84
8,B1,2.0,0.25,0,84
8,D-2,2.0,0.25,0,84
8,D2,2.0,0.25,0,84
8,E2,2.0,0.25,0,84
8,G-2,2.0,0.25,0,84
8,G2,2.0,0.25,0,84
8,A2,2.0,0.25,0,84
8,B2,2.0,0.25,0,84
8,D-3,2.0,0.25,0,84
8,D3,2.0,0.25,0,84
8,E3,2.0,0.25,0,84
8,G-3,2.0,0.25,0,84
8,G3,2.0,0.25,0,84
9,B0,2.25,0.25,0,84
9,D-1,2.25,0.25,0,84
9,D1,2.25,0.25,0,84
9,E1,2.25,0.25,0,84
9,G-1,2.25,0.25,0,84
9,G1,2.25,0.25,0,84
9,A1,2.25,0.25,0,84
9,B1,2.25,0.25,0,84
9,D-2,2.25,0.25,0,84
9,D2,2.25,0.25,0,84
9,E2,2.25,0.25,0,84
9,G-2,2.25,0.25,0,84
9,G2,2.25,0.25,0,84
9,A2,2.25,0.25,0,84
9,B2,2.25,0.25,0,84
9,D-3,2.25,0.25,0,84
9,D3,2.25,0.25,0,84
9,E3,2.25,0.25,0,84
9,G-3,2.25,0.25,0,84
9,G3,2.25,0.25,0,84
10,B0,2.5,0.25,0,84
10,D-1,2.5,0.25,0,84
10,D1,2.5,0.25,0,84
10,E1,2.5,0.25,0,84
10,G-1,2.5,0.25,0,84
10,G1,2.5,0.25,0,84
10,A1,2.5,0.25,0,84
10,B1,2.5,0.25,0,84
10,D-2,2.5,0.25,0,84
10,D2,2.5,0.25,0,84
10,E2,2.5,0.25,0,84
10,G-2,2.5,0.25,0,84
10,G2,2.5,0.25,0,84
10,A2,2.5,0.25,0,84
10,B2,2.5,0.25,0,84
10,D-3,2.5,0.25,0,84
10,D3,2.5,0.25,0,84
10,E3,2.5,0.25,0,84
10,G-3,2.5,0.25,0,84
10,G3,2.5,0.25,0,84
11,B0,2.75,0.25,0,84
11,D-1,2.75,0.25,0,84
11,D1,2.75,0.25,0,84
11,E1,2.75,0.25,0,84
11,G-1,2.75,0.25,0,84
11,G1,2.75,0.25,0,84
11,A1,2.75,0.25,0,84
11,B1,2.75,0.25,0,84
11,D-2,2.75,0.25,0,84
11,D2,2.75,0.25,0,84
11,E2,2.75,0.25,0,84
11,G-2,2.75,0.25,0,84
11,G2,2.75,0.25,0,84
11,A2,2.75,0.25,0,84
11,B2,2.75,0.25,0,84
11,D-3,2.75,0.25,0,84
11,D3,2.75,0.25,0,84
11,E3,2.75,0.25,0,84
11,G-3,2.75,0.25,0,84
11,G3,2.75,0.25,0,84
12,B0,3.0,0.25,0,84
12,D-1,3.0,0.25,0,84
12,D1,3.0,0.25,0,84
12,E1,3.0,0.25,0,84
12,G-1,3.0,0.25,0,84
12,G1,3.0,0.25,0,84
12,A1,3.0,0.25,0,84
12,B1,3.0,0.25,0,84
12,D-2,3.0,0.25,0,84
12,D2,3.0,0.25,0,84
12,E2,3.0,0.25,0,84
12,G-2,3.0,0.25,0,84
12,G2,3.0,0.25,0,84
12,A2,3.0,0.25,0,84
12,B2,3.0,0.25,0,84
12,D-3,3.0,0.25,0,84
12,D3,3.0,0.25,0,84
12,E3,3.0,0.25,0,84
12,G-3,3.0,0.25,0,84
12,G3,3.0,0.25,0,84
13,B0,3.25,0.25,0,84
13,D-1,3.25,0.25,0,84
13,D1,3.25,0.25,0,84
13,E1,3.25,0.25,0,84
13,G-1,3.25,0.25,0,84
13,G1,3.25,0.25,0,84
13,A1,3.25,0.25,0,84
13,B1,3.25,0.25,0,84
13,D-2,3.25,0.25,0,84
13,D2,3.25,0.25,0,84
13,E2,3.25,0.25,0,84
13,G-2,3.25,0.25,0,84
13,G2,3.25,0.25,0,84
13,A2,3.25,0.25,0,84
13,B2,3.25,0.25,0,84
13,D-3,3.25,0.25,0,84
13,D3,3.25,0.25,0,84
13,E3,3.25,0.25,0,84
13,G-3,3.25,0.25,0,84
13,G3,3.25,0.25,0,84
14,B0,3.5,0.25,0,84
14,D-1,3.5,0.25,0,84
14,D1,3.5,0.25,0,84
14,E1,3.5,0.25,0,84
14,G-1,3.5,0.25,0,84
14,G1,3.5,0.25,0,84
14,A1,3.5,0.25,0,84
14,B1,3.5,0.25,0,84
14,D-2,3.5,0.25,0,84
14,D2,3.5,0.25,0,84
14,E2,3.5,0.25,0,84
14,G-2,3.5,0.25,0,84
14,G2,3.5,0.25,0,84
14,A2,3.5,0.25,0,84
14,B2,3.5,0.25,0,84
14,D-3,3.5,0.25,0,84
14,D3,3.5,0.25,0,84
14,E3,3.5,0.25,0,84
14,G-3,3.5,0.25,0,84
14,G3,3.5,0.25,0,84
15,B0,3.75,0.25,0,84
15,D-1,3.75,0.25,0,84
15,D1,3.75,0.25,0,84
15,E1,3.75,0.25,0,84
15,G-1,3.75,0.25,0,84
15,G1,3.75,0.25,0,84
15,A1,3.75,0.25,0,84
15,B1,3.75,0.25,0,84
15,D-2,3.75,0.25,0,84
15,D2,3.75,0.25,0,84
15,E2,3.75,0.25,0,84
15,G-2,3.75,0.25,0,84
15,G2,3.75,0.25,0,84
15,A2,3.75,0.25,0,84
15,B2,3.75,0.25,0,84
15,D-3,3.75,0.25,0,84
15,D3,3.75,0.25,0,84
15,E3,3.75,0.25,0,84
15,G-3,3.75,0.25,0,84
15,G3,3.75,0.25,0,84
16,B0,4.0,0.25,0,84
16,D-1,4.0,0.25,0,84
16,D1,4.0,0.25,0,84
16,E1,4.0,0.25,0,84
16,G-1,4.0,0.25,0,84
16,G1,4.0,0.25,0,84
16,A1,4.0,0.25,0,84
16,B1,4.0,0.25,0,84
16,D-2,4.0,0.25,0,84
16,D2,4.0,0.25,0,84
16,E2,4.0,0.25,0,84
16,G-2,4.0,0.25,0,84
16,G2,4.0,0.25,0,84
16,A2,4.0,0.25,0,84
16,B2,4.0,0.25,0,84
16,D-3,4.0,0.25,0,84
16,D3,4.0,0.25,0,84
16,E3,4.0,0.25,0,84
16,G-3,4.0,0.25,0,84
16,G3,4.0,0.25,0,84
17,B0,4.25,0.25,0,84
17,D-1,4.25,0.25,0,84
17,D1,4.25,0.25,0,84
17,E1,4.25,0.25,0,84
17,G-1,4.25,0.25,0,84
17,G1,4.25,0.25,0,84
17,A1,4.25,0.25,0,84
17,B1,4.25,0.25,0,84
17,D-2,4.25,0.25,0,84
17,D2,4.25,0.25,0,84
17,E2,4.25,0.25,0,84
17,G-2,4.25,0.25,0,84
17,G2,4.25,0.25,0,84
17,A2,4.25,0.25,0,84
17,B2,4.25,0.25,0,84
17,D-3,4.25,0.25,0,84
17,D3,4.25,0.25,0,84
17,E3,4.25,0.25,0,84
17,G-3,4.25,0.25,0,84
17,G3,4.25,0.25,0,84
18,B0,4.5,0.25,0,84
18,D-1,4.5,0.25,0,84
18,D1,4.5,0.25,0,84
18,E1,4.5,0.25,0,84
18,G-1,4.5,0.25,0,84
18,G1,4.5,0.25,0,84
18,A1,4.5,0.25,0,84
18,B1,4.5,0.25,0,84
18,D-2,4.5,0.25,0,84
18,D2,4.5,0.25,0,84
18,E2,4.5,0.25,0,84
18,G-2,4.5,0.25,0,84
18,G2,4.5,0.25,0,84
18,A2,4.5,0.25,0,84
18,B2,4.5,0.25,0,84
18,D-3,4.5,0.25,0,84
18,D3,4.5,0.25,0,84
18,E3,4.5,0.25,0,84
18,G-3,4.5,0.25,0,84
18,G3,4.5,0.25,0,84
19,B0,4.75,0.25,0,84
19,D-1,4.75,0.25,0,84
19,D1,4.75,0.25,0,84
19,E1,4.75,0.25,0,84
19,G-1,4.75,0.25,0,84
19,G1,4.75,0.25,0,84
19,A1,4.75,0.25,0,84
19,B1,4.75,0.25,0,84
19,D-2,4.75,0.25,0,84
19,D2,4.75,0.25,0,84
19,E2,4.75,0.25,0,84
19,G-2,4.75,0.25,0,84
19,G2,4.75,0.25,0,84
19,A2,4.75,0.25,0,84
19,B2,4.75,0.25,0,84
19,D-3,4.75,0.25,0,84
19,D3,4.75,0.25,0,84
19,E3,4.75,0.25,0,84
19,G-3,4.75,0.25,0,84
19,G3,4.75,0.25,0,84
20,B0,5.0,0.25,0,84
20,D-1,5.0,0.25,0,84
20,D1,5.0,0.25,0,84
20,E1,5.0,0.25,0,84
20,G-1,5.0,0.25,0,84
20,G1,5.0,0.25,0,84
20,A1,5.0,0.25,0,84
20,B1,5.0,0.25,0,84
20,D-2,5.0,0.25,0,84
20,D2,5.0,0.25,0,84
20,E2,5.0,0.25,0,84
20,G-2,5.0,0.25,0,84
20,G2,5.0,0.25,0,84
20,A2,5.0,0.25,0,84
20,B2,5.0,0.25,0,84
20,D-3,5.0,0.25,0,84
20,D3,5.0,0.25,0,84
20,E3,5.0,0.25,0,84
20,G-3,5.0,0.25,0,84
20,G3,5.0,0.25,0,84
21,B0,5.25,0.25,0,84
21,D-1,5.25,0.25,0,84
21,D1,5.25,0.25,0,84
21,E1,5.25,0.25,0,84
21,G-1,5.25,0.25,0,84
21,G1,5.25,0.25,0,84
21,A1,5.25,0.25,0,84
21,B1,5.25,0.25,0,84
21,D-2,5.25,0.25,0,84
21,D2,5.25,0.25,0,84
21,E2,5.25,0.25,0,84
21,G-2,5.25,0.25,0,84
21,G2,5.25,0.25,0,84
21,A2,5.25,0.25,0,84
21,B2,5.25,0.25,0,84
21,D-3,5.25,0.25,0,84
21,D3,5.25,0.25,0,84
21,E3,5.25,0.25,0,84
21,G-3,5.25,0.25,0,84
21,G3,5.25,0.25,0,84
22,B0,5.5,0.25,0,84
22,D-1,5.5,0.25,0,84
22,D1,5.5,0.25,0,84
22,E1,5.5,0.25,0,84
22,G-1,5.5,0.25,0,84
22,G1,5.5,0.25,0,84
22,A1,5.5,0.25,0,84
22,B1,5.5,0.25,0,84
22,D-2,5.5,0.25,0,84
22,D2,5.5,0.25,0,84
22,E2,5.5,0.25,0,84
22,G-2,5.5,0.25,0,84
22,G2,5.5,0.25,0,84
22,A2,5.5,0.25,0,84
22,B2,5.5,0.25,0,84
22,D-3,5.5,0.25,0,84
22,D3,5.5,0.25,0,84
22,E3,5.5,0.25,0,84
22,G-3,5.5,0.25,0,84
22,G3,5.5,0.25,0,84
23,B0,5.75,0.25,0,84
23,D-1,5.75,0.25,0,84
23,D1,5.75,0.25,0,84
23,E1,5.75,0.25,0,84
23,G-1,5.75,0.25,0,84
23,G1,5.75,0.25,0,84
23,A1,5.75,0.25,0,84
23,B1,5.75,0.25,0,84
23,D-2,5.75,0.25,0,84
23,D2,5.75,0.25,0,84
23,E2,5.75,0.25,0,84
23,G-2,5.75,0.25,0,84
23,G2,5.75,0.25,0,84
23,A2,5.75,0.25,0,84
23,B2,5.75,0.25,0,84
23,D-3,5.75,0.25,0,84
23,D3,5.75,0.25,0,84
23,E3,5.75,0.25,0,84
23,G-3,5.75,0.25,0,84
23,G3,5.75,0.25,0,84
24,B0,6.0,0.25,0,84
24,D-1,6.0,0.25,0,84
24,D1,6.0,0.25,0,84
24,E1,6.0,0.25,0,84
24,G-1,6.0,0.25,0,84
24,G1,6.0,0.25,0,84
24,A1,6.0,0.25,0,84
24,B1,6.0,0.25,0,84
24,D-2,6.0,0.25,0,84
24,D2,6.0,0.25,0,84
24,E2,6.0,0.25,0,84
24,G-2,6.0,0.25,0,84
24,G2,6.0,0.25,0,84
24,A2,6.0,0.25,0,84
24,B2,6.0,0.25,0,84
24,D-3,6.0,0.25,0,84
24,D3,6.0,0.25,0,84
24,E3,6.0,0.25,0,84
24,G-3,6.0,0.25,0,84
24,G3,6.0,0.25,0,84
25,B0,6.25,0.25,0,84
25,D-1,6.25,0.25,0,84
25,D1,6.25,0.25,0,84
25,E1,6.25,0.25,0,84
25,G-1,6.25,0.25,0,84
25,G1,6.25,0.25,0,84
25,A1,6.25,0.25,0,84
25,B1,6.25,0.25,0,84
25,D-2,6.25,0.25,0,84
25,D2,6.25,0.25,0,84
25,E2,6.25,0.25,0,84
25,G-2,6.25,0.25,0,84
25,G2,6.25,0.25,0,84
25,A2,6.25,0.25,0,84
25,B2,6.25,0.25,0,84
25,D-3,6.25,0.25,0,84
25,D3,6.25,0.25,0,84
25,E3,6.25,0.25,0,84
25,G-3,6.25,0.25,0,84
25,G3,6.25,0.25,0,84
26,B0,6.5,0.25,0,84
26,D-1,6.5,0.25,0,84
26,D1,6.5,0.25,0,84
26,E1,6.5,0.25,0,84
26,G-1,6.5,0.25,0,84
26,G1,6.5,0.25,0,84
26,A1,6.5,0.25,0,84
26,B1,6.5,0.25,0,84
26,D-2,6.5,0.25,0,84
26,D2,6.5,0.25,0,84
26,E2,6.5,0.25,0,84
26,G-2,6.5,0.25,0,84
26,G2,6.5,0.25,0,84
26,A2,6.5,0.25,0,84
26,B2,6.5,0.25,0,84
26,D-3,6.5,0.25,0,84
26,D3,6.5,0.25,0,84
26,E3,6.5,0.25,0,84
26,G-3,6.5,0.25,0,84
26,G3,6.5,0.25,0,84
27,B0,6.75,0.25,0,84
27,D-1,6.75,0.25,0,84
27,D1,6.75,0.25,0,84
27,E1,6.75,0.25,0,84
27,G-1,6.75,0.25,0,84
27,G1,6.75,0.25,0,84
27,A1,6.75,0.25,0,84
27,B1,6.75,0.25,0,84
27,D-2,6.75,0.25,0,84
27,D2,6.75,0.25,0,84
27,E2,6.75,0.25,0,84
27,G-2,6.75,0.25,0,84
27,G2,6.75,0.25,0,84
27,A2,6.75,0.25,0,84
27,B2,6.75,0.25,0,84
27,D-3,6.75,0.25,0,84
27,D3,6.75,0.25,0,84
27,E3,6.75,0.25,0,84
27,G-3,6.75,0.25,0,84
27,G3,6.75,0.25,0,84
28,B0,7.0,0.25,0,84
28,D-1,7.0,0.25,0,84
28,D1,7.0,0.25,0,84
28,E1,7.0,0.25,0,84
28,G-1,7.0,0.25,0,84
28,G1,7.0,0.25,0,84
28,A1,7.0,0.25,0,84
28,B1,7.0,0.25,0,84
28,D-2,7.0,0.25,0,84
28,D2,7.0,0.25,0,84
28,E2,7.0,0.25,0,84
28,G-2,7.0,0.25,0,84
28,G2,7.0,0.25,0,84
28,A2,7.0,0.25,0,84
28,B2,7.0,0.25,0,84
28,D-3,7.0,0.25,0,84
28,D3,7.0,0.25,0,84
28,E3,7.0,0.25,0,84
28,G-3,7.0,0.25,0,84
28,G3,7.0,0.25,0,84
29,B0,7.25,0.25,0,84
29,D-1,7.25,0.25,0,84
29,D1,7.25,0.25,0,84
29,E1,7.25,0.25,0,84
29,G-1,7.25,0.25,0,84
29,G1,7.25,0.25,0,84
29,A1,7.25,0.25,0,84
29,B1,7.25,0.25,0,84
29,D-2,7.25,0.25,0,84
29,D2,7.25,0.25,0,84
29,E2,7.25,0.25,0,84
29,G-2,7.25,0.25,0,84
29,G2,7.25,0.25,0,84
29,A2,7.25,0.25,0,84
29,B2,7.25,0.25,0,84
29,D-3,7.25,0.25,0,84
29,D3,7.25,0.25,0,84
29,E3,7.25,0.25,0,84
29,G-3,7.25,0.25,0,84
29,G3,7.25,0.25,0,84
30,B0,7.5,0.25,0,84
30,D-1,7.5,0.25,0,84
30,D1,7.5,0.25,0,84
30,E1,7.5,0.25,0,84
30,G-1,7.5,0.25,0,84
30,G1,7.5,0.25,0,84
30,A1,7.5,0.25,0,84
30,B1,7.5,0.25,0,84
30,D-2,7.5,0.25,0,84
30,D2,7.5,0.25,0,84
30,E2,7.5,0.25,0,84
30,G-2,7.5,0.25,0,84
30,G2,7.5,0.25,0,84
30,A2,7.5,0.25,0,84
30,B2,7.5,0.25,0,84
30,D-3,7.5,0.25,0,84
30,D3,7.5,0.25,0,84
30,E3,7.5,0.25,0,84
30,G-3,7.5,0.25,0,84
30,G3,7.5,0.25,0,84
31,B0,7.75,0.25,0,84
31,D-1,7.75,0.25,0,84
31,D1,7.75,0.25,0,84
31,E1,7.75,0.25,0,84
31,G-1,7.75,0.25,0,84
31,G1,7.75,0.25,0,84
31,A1,7.75,0.25,0,84
31,B1,7.75,0.25,0,84
31,D-2,7.75,0.25,0,84
31,D2,7.75,0.25,0,84
31,E2,7.75,0.25,0,84
31,G-2,7.75,0.25,0,84
31,G2,7.75,0.25,0,84
31,A2,7.75,0.25,0,84
31,B2,7.75,0.25,0,84
31,D-3,7.75,0.25,0,84
31,D3,7.75,0.25,0,84
31,E3,7.75,0.25,0,84
31,G-3,7.75,0.25,0,84
31,G3,7.75,0.25,0,84
32,B0,8.0,0.25,0,84
32,D-1,8.0,0.25,0,84
32,D1,8.0,0.25,0,84
32,E1,8.0,0.25,0,84
32,G-1,8.0,0.25,0,84
32,G1,8.0,0.25,0,84
32,A1,8.0,0.25,0,84
32,B1,8.0,0.25,0,84
32,D-2,8.0,0.25,0,84
32,D2,8.0,0.25,0,84
32,E2,8.0,0.25,0,84
32,G-2,8.0,0.25,0,84
32,G2,8.0,0.25,0,84
32,A2,8.0,0.25,0,84
32,B2,8.0,0.25,0,84
32,D-3,8.0,0.25,0,84
32,D3,8.0,0.25,0,84
32,E3,8.0,0.25,0,84
32,G-3,8.0,0.25,0,84
32,G3,8.0,0.25,0,84
33,B0,8.25,0.25,0,84
33,D-1,8.25,0.25,0,84
33,D1,8.25,0.25,0,84
33,E1,8.25,0.25,0,84
33,G-1,8.25,0.25,0,84
33,G1,8.25,0.25,0,84
33,A1,8.25,0.25,0,84
33,B1,8.25,0.25,0,84
33,D-2,8.25,0.25,0,84
33,D2,8.25,0.25,0,84
33,E2,8.25,0.25,0,84
33,G-2,8.25,0.25,0,84
33,G2,8.25,0.25,0,84
33,A2,8.25,0.25,0,84
33,B2,8.25,0.25,0,84
33,D-3,8.25,0.25,0,84
33,D3,8.25,0.25,0,84
33,E3,8.25,0.25,0,84
33,G-3,8.25,0.25,0,84
33,G3,8.25,0.25,0,84
34,B0,8.5,0.25,0,84
34,D-1,8.5,0.25,0,84
34,D1,8.5,0.25,0,84
34,E1,8.5,0.25,0,84
34,G-1,8.5,0.25,0,84
34,G1,8.5,0.25,0,84
34,A1,8.5,0.25,0,84
34,B1,8.5,0.25,0,84
34,D-2,8.5,0.25,0,84
34,D2,8.5,0.25,0,84
34,E2,8.5,0.25,0,84
34,G-2,8.5,0.25,0,84
34,G2,8.5,0.25,0,84
34,A2,8.5,0.25,0,84
34,B2,8.5,0.25,0,84
34,D-3,8.5,0.25,0,84
34,D3,8.5,0.25,0,84
34,E3,8.5,0.25,0,84
34,G-3,8.5,0.25,0,84
34,G3,8.5,0.25,0,84
35,B0,8.75,0.25,0,84
35,D-1,8.75,0.25,0,84
35,D1,8.75,0.25,0,84
35,E1,8.75,0.25,0,84
35,G-1,8.75,0.25,0,84
35,G1,8.75,0.25,0,84
35,A1,8.75,0.25,0,84
35,B1,8.75,0.25,0,84
35,D-2,8.75,0.25,0,84
35,D2,8.75,0.25,0,84
35,E2,8.75,0.25,0,84
35,G-2,8.75,0.25,0,84
35,G2,8.75,0.25,0,84
35,A2,8.75,0.25,0,84
35,B2,8.75,0.25,0,84
35,D-3,8.75,0.25,0,84
35,D3,8.75,0.25,0,84
35,E3,8.75,0.25,0,84
35,G-3,8.75,0.25,0,84
35,G3,8.75,0.25,0,84
36,B0,9.0,0.25,0,84
36,D-1,9.0,0.25,0,84
36,D1,9.0,0.25,0,84
36,E1,9.0,0.25,0,84
36,G-1,9.0,0.25,0,84
36,G1,9.0,0.25,0,84
36,A1,9.0,0.25,0,84
36,B1,9.0,0.25,0,84
36,D-2,9.0,0.25,0,84
36,D2,9.0,0.25,0,84
36,E2,9.0,0.25,0,84
36,G-2,9.0,0.25,0,84
36,G2,9.0,0.25,0,84
36,A2,9.0,0.25,0,84
36,B2,9.0,0.25,0,84
36,D-3,9.0,0.25,0,84
36,D3,9.0,0.25,0,84
36,E3,9.0,0.25,0,84
36,G-3,9.0,0.25,0,84
36,G3,9.0,0.25,0,84
37,B0,9.25,0.25,0,84
37,D-1,9.25,0.25,0,84
37,D1,9.25,0.25,0,84
37,E1,9.25,0.25,0,84
37,G-1,9.25,0.25,0,84
37,G1,9.25,0.25,0,84
37,A1,9.25,0.25,0,84
37,B1,9.25,0.25,0,84
37,D-2,9.25,0.25,0,84
37,D2,9.25,0.25,0,84
37,E2,9.25,0.25,0,84
37,G-2,9.25,0.25,0,84
37,G2,9.25,0.25,0,84
37,A2,9.25,0.25,0,84
37,B2,9.25,0.25,0,84
37,D-3,9.25,0.25,0,84
37,D3,9.25,0.25,0,84
37,E3,9.25,0.25,0,84
37,G-3,9.25,0.25,0,84
37,G3,9.25,0.25,0,84
38,B0,9.5,0.25,0,84
38,D-1,9.5,0.25,0,84
38,D1,9.5,0.25,0,84
38,E1,9.5,0.25,0,84
38,G-1,9.5,0.25,0,84
38,G1,9.5,0.25,0,84
38,A1,9.5,0.25,0,84
38,B1,9.5,0.25,0,84
38,D-2,9.5,0.25,0,84
38,D2,9.5,0.25,0,84
38,E2,9.5,0.25,0,84
38,G-2,9.5,0.25,0,84
38,G2,9.5,0.25,0,84
38,A2,9.5,0.25,0,84
38,B2,9.5,0.25,0,84
38,D-3,9.5,0.25,0,84
38,D3,9.5,0.25,0,84
38,E3,9.5,0.25,0,84
38,G-3,9.5,0.25,0,84
38,G3,9.5,0.25,0,84
39,B0,9.75,0.25,0,84
39,D-1,9.75,0.25,0,84
39,D1,9.75,0.25,0,84
39,E1,9.75,0.25,0,84
39,G-1,9.75,0.25,0,84
39,G1,9.75,0.25,0,84
39,A1,9.75,0.25,0,84
39,B1,9.75,0.25,0,84
39,D-2,9.75,0.25,0,84
39,D2,9.75,0.25,0,84
39,E2,9.75,0.25,0,84
39,G-2,9.75,0.25,0,84
39,G2,9.75,0.25,0,84
39,A2,9.75,0.25,0,84
39,B2,9.75,0.25,0,84
39,D-3,9.75,0.25,0,84
39,D3,9.75,0.25,0,84
39,E3,9.75,0.25,0,84
39,G-3,9.75,0.25,0,84
39,G3,9.75,0.25,0,84
40,B0,10.0,0.25,0,84
40,D-1,10.0,0.25,0,84
40,D1,10.0,0.25,0,84
40,E1,10.0,0.25,0,84
40,G-1,10.0,0.25,0,84
40,G1,10.0,0.25,0,84
40,A1,10.0,0.25,0,84
40,B1,10.0,0.25,0,84
40,D-2,10.0,0.25,0,84
40,D2,10.0,0.25,0,84
40,E2,10.0,0.25,0,84
40,G-2,10.0,0.25,0,84
40,G2,10.0,0.25,0,84
40,A2,10.0,0.25,0,84
40,B2,10.0,0.25,0,84
40,D-3,10.0,0.25,0,84
40,D3,10.0,0.25,0,84
40,E3,10.0,0.25,0,84
40,G-3,10.0,0.25,0,84
40,G3,10.0,0.25,0,84
41,B0,10.25,0.25,0,84
41,D-1,10.25,0.25,0,84
41,D1,10.25,0.25,0,84
41,E1,10.25,0.25,0,84
41,G-1,10.25,0.25,0,84
41,G1,10.25,0.25,0,84
41,A1,10.25,0.25,0,84
41,B1,10.25,0.25,0,84
41,D-2,10.25,0.25,0,84
41,D2,10.25,0.25,0,84
41,E2,10.25,0.25,0,84
41,G-2,10.25,0.25,0,84
41,G2,10.25,0.25,0,84
41,A2,10.25,0.25,0,84
41,B2,10.25,0.25,0,84
41,D-3,10.25,0.25,0,84
41,D3,10.25,0.25,0,84
41,E3,10.25,0.25,0,84
41,G-3,10.25,0.25,0,84
41,G3,10.25,0.25,0,84
42,B0,10.5,0.25,0,84
42,D-1,10.5,0.25,0,84
42,D1,10.5,0.25,0,84
42,E1,10.5,0.25,0,84
42,G-1,10.5,0.25,0,84
42,G1,10.5,0.25,0,84
42,A1,10.5,0.25,0,84
42,B1,10.5,0.25,0,84
42,D-2,10.5,0.25,0,84
42,D2,10.5,0.25,0,84
42,E2,10.5,0.25,0,84
42,G-2,10.5,0.25,0,84
42,G2,10.5,0.25,0,84
42,A2,10.5,0.25,0,84
42,B2,10.5,0.25,0,84
42,D-3,10.5,0.25,0,84
42,D3,10.5,0.25,0,84
42,E3,10.5,0.25,0,84
42,G-3,10.5,0.25,0,84
42,G3,10.5,0.25,0,84
43,B0,10.75,0.25,0,84
43,D-1,10.75,0.25,0,84
43,D1,10.75,0.25,0,84
43,E1,10.75,0.25,0,84
43,G-1,10.75,0.25,0,84
43,G1,10.75,0.25,0,84
43,A1,10.75,0.25,0,84
43,B1,10.75,0.25,0,84
43,D-2,10.75,0.25,0,84
43,D2,10.75,0.25,0,84
43,E2,10.75,0.25,0,84
43,G-2,10.75,0.25,0,84
43,G2,10.75,0.25,0,84
43,A2,10.75,0.25,0,84
43,B2,10.75,0.25,0,84
43,D-3,10.75,0.25,0,84
43,D3,10.75,0.25,0,84
43,E3,10.75,0.25,0,84
43,G-3,10.75,0.25,0,84
43,G3,10.75,0.25,0,84
44,B0,11.0,0.25,0,84
44,D-1,11.0,0.25,0,84
44,D1,11.0,0.25,0,84
44,E1,11.0,0.25,0,84
44,G-1,11.0,0.25,0,84
44,G1,11.0,0.25,0,84
44,A1,11.0,0.25,0,84
44,B1,11.0,0.25,0,84
44,D-2,11.0,0.25,0,84
44,D2,11.0,0.25,0,84
44,E2,11.0,0.25,0,84
44,G-2,11.0,0.25,0,84
44,G2,11.0,0.25,0,84
44,A2,11.0,0.25,0,84
44,B2,11.0,0.25,0,84
44,D-3,11.0,0.25,0,84
44,D3,11.0,0.25,0,84
44,E3,11.0,0.25,0,84
44,G-3,11.0,0.25,0,84
44,G3,11.0,0.25,0,84
45,B0,11.25,0.25,0,84
45,D-1,11.25,0.25,0,84
45,D1,11.25,0.25,0,84
45,E1,11.25,0.25,0,84
45,G-1,11.25,0.25,0,84
45,G1,11.25,0.25,0,84
45,A1,11.25,0.25,0,84
45,B1,11.25,0.25,0,84
45,D-2,11.25,0.25,0,84
45,D2,11.25,0.25,0,84
45,E2,11.25,0.25,0,84
45,G-2,11.25,0.25,0,84
45,G2,11.25,0.25,0,84
45,A2,11.25,0.25,0,84
45,B2,11.25,0.25,0,84
45,D-3,11.25,0.25,0,84
45,D3,11.25,0.25,0,84
45,E3,11.25,0.25,0,84
45,G-3,11.25,0.25,0,84
45,G3,11.25,0.25,0,84
46,B0,11.5,0.25,0,84
46,D-1,11.5,0.25,0,84
46,D1,11.5,0.25,0,84
46,E1,11.5,0.25,0,84
46,G-1,11.5,0.25,0,84
46,G1,11.5,0.25,0,84
46,A1,11.5,0.25,0,84
46,B1,11.5,0.25,0,84
46,D-2,11.5,0.25,0,84
46,D2,11.5,0.25,0,84
46,E2,11.5,0.25,0,84
46,G-2,11.5,0.25,0,84
46,G2,11.5,0.25,0,84
46,A2,11.5,0.25,0,84
46,B2,11.5,0.25,0,84
46,D-3,11.5,0.25,0,84
46,D3,11.5,0.25,0,84
46,E3,11.5,0.25,0,84
46,G-3,11.5,0.25,0,84
46,G3,11.5,0.25,0,84
47,B0,11.75,0.25,0,84
47,D-1,11.75,0.25,0,84
47,D1,11.75,0.25,0,84
47,E1,11.75,0.25,0,84
47,G-1,11.75,0.25,0,84
47,G1,11.75,0.25,0,84
47,A1,11.75,0.25,0,84
47,B1,11.75,0.25,0,84
47,D-2,11.75,0.25,0,84
47,D2,11.75,0.25,0,84
47,E2,11.75,0.25,0,84
47,G-2,11.75,0.25,0,84
47,G2,11.75,0.25,0,84
47,A2,11.75,0.25,0,84
47,B2,11.75,0.25,0,84
47,D-3,11.75,0.25,0,84
47,D3,11.75,0.25,0,84
47,E3,11.75,0.25,0,84
47,G-3,11.75,0.25,0,84
47,G3,11.75,0.25,0,84
48,B0,12.0,0.25,0,84
48,D-1,12.0,0.25,0,84
48,D1,12.0,0.25,0,84
48,E1,12.0,0.25,0,84
48,G-1,12.0,0.25,0,84
48,G1,12.0,0.25,0,84
48,A1,12.0,0.25,0,84
48,B1,12.0,0.25,0,84
48,D-2,12.0,0.25,0,84
48,D2,12.0,0.25,0,84
48,E2,12.0,0.25,0,84
48,G-2,12.0,0.25,0,84
48,G2,12.0,0.25,0,84
48,A2,12.0,0.25,0,84
48,B2,12.0,0.25,0,84
48,D-3,12.0,0.25,0,84
48,D3,12.0,0.25,0,84
48,E3,12.0,0.25,0,84
48,G-3,12.0,0.25,0,84
48,G3,12.0,0.25,0,84
49,B0,12.25,0.25,0,84
49,D-1,12.25,0.25,0,84
49,D1,12.25,0.25,0,84
49,E1,12.25,0.25,0,84
49,G-1,12.25,0.25,0,84
49,G1,12.25,0.25,0,84
49,A1,12.25,0.25,0,84
49,B1,12.25,0.25,0,84
49,D-2,12.25,0.25,0,84
49,D2,12.25,0.25,0,84
49,E2,12.25,0.25,0,84
49,G-2,12.25,0.25,0,84
49,G2,12.25,0.25,0,84
49,A2,12.25,0.25,0,84
49,B2,12.25,0.25,0,84
49,D-3,12.25,0.25,0,84
49,D3,12.25,0.25,0,84
49,E3,12.25,0.25,0,84
49,G-3,12.25,0.25,0,84
49,G3,12.25,0.25,0,84
50,B0,12.5,0.25,0,84
50,D-1,12.5,0.25,0,84
50,D1,12.5,0.25,0,84
50,E1,12.5,0.25,0,84
50,G-1,12.5,0.25,0,84
50,G1,12.5,0.25,0,84
50,A1,12.5,0.25,0,84
50,B1,12.5,0.25,0,84
50,D-2,12.5,0.25,0,84
50,D2,12.5,0.25,0,84
50,E2,12.5,0.25,0,84
50,G-2,12.5,0.25,0,84
50,G2,12.5,0.25,0,84
50,A2,12.5,0.25,0,84
50,B2,12.5,0.25,0,84
50,D-3,12.5,0.25,0,84
50,D3,12.5,0.25,0,84
50,E3,12.5,0.25,0,84
50,G-3,12.5,0.25,0,84
50,G3,12.5,0.25,0,84
51,B0,12.75,0.25,0,84
51,D-1,12.75,0.25,0,84
51,D1,12.75,0.25,0,84
51,E1,12.75,0.25,0,84
51,G-1,12.75,0.25,0,84
51,G1,12.75,0.25,0,84
51,A1,12.75,0.25,0,84
51,B1,12.75,0.25,0,84
51,D-2,12.75,0.25,0,84
51,D2,12.75,0.25,0,84
51,E2,12.75,0.25,0,84
51,G-2,12.75,0.25,0,84
51,G2,12.75,0.25,0,84
51,A2,12.75,0.25,0,84
51,B2,12.75,0.25,0,84
51,D-3,12.75,0.25,0,84
51,D3,12.75,0.25,0,84
51,E3,12.75,0.25,0,84
51,G-3,12.75,0.25,0,84
51,G3,12.75,0.25,0,84
52,B0,13.0,0.25,0,84
52,D-1,13.0,0.25,0,84
52,D1,13.0,0.25,0,84
52,E1,13.0,0.25,0,84
52,G-1,13.0,0.25,0,84
52,G1,13.0,0.25,0,84
52,A1,13.0,0.25,0,84
52,B1,13.0,0.25,0,84
52,D-2,13.0,0.25,0,84
52,D2,13.0,0.25,0,84
52,E2,13.0,0.25,0,84
52,G-2,13.0,0.25,0,84
52,G2,13.0,0.25,0,84
52,A2,13.0,0.25,0,84
52,B2,13.0,0.25,0,84
52,D-3,13.0,0.25,0,84
52,D3,13.0,0.25,0,84
52,E3,13.0,0.25,0,84
52,G-3,13.0,0.25,0,84
52,G3,13.0,0.25,0,84
53,B0,13.25,0.25,0,84
53,D-1,13.25,0.25,0,84
53,D1,13.25,0.25,0,84
53,E1,13.25,0.25,0,84
53,G-1,13.25,0.25,0,84
53,G1,13.25,0.25,0,84
53,A1,13.25,0.25,0,84
53,B1,13.25,0.25,0,84
53,D-2,13.25,0.25,0,84
53,D2,13.25,0.25,0,84
53,E2,13.25,0.25,0,84
53,G-2,13.25,0.25,0,84
53,G2,13.25,0.25,0,84
53,A2,13.25,0.25,0,84
53,B2,13.25,0.25,0,84
53,D-3,13.25,0.25,0,84
53,D3,13.25,0.25,0,84
53,E3,13.25,0.25,0,84
53,G-3,13.25,0.25,0,84
53,G3,13.25,0.25,0,84
54,B0,13.5,0.25,0,84
54,D-1,13.5,0.25,0,84
54,D1,13.5,0.25,0,84
54,E1,13.5,0.25,0,84
54,G-1,13.5,0.25,0,84
54,G1,13.5,0.25,0,84
54,A1,13.5,0.25,0,84
54,B1,13.5,0.25,0,84
54,D-2,13.5,0.25,0,84
54,D2,13.5,0.25,0,84
54,E2,13.5,0.25,0,84
54,G-2,13.5,0.25,0,84
54,G2,13.5,0.25,0,84
54,A2,13.5,0.25,0,84
54,B2,13.5,0.25,0,84
54,D-3,13.5,0.25,0,84
54,D3,13.5,0.25,0,84
54,E3,13.5,0.25,0,84
54,G-3,13.5,0.25,0,84
54,G3,13.5,0.25,0,84
55,B0,13.75,0.25,0,84
55,D-1,13.75,0.25,0,84
55,D1,13.75,0.25,0,84
55,E1,13.75,0.25,0,84
55,G-1,13.75,0.25,0,84
55,G1,13.75,0.25,0,84
55,A1,13.75,0.25,0,84
55,B1,13.75,0.25,0,84
55,D-2,13.75,0.25,0,84
55,D2,13.75,0.25,0,84
55,E2,13.75,0.25,0,84
55,G-2,13.75,0.25,0,84
55,G2,13.75,0.25,0,84
55,A2,13.75,0.25,0,84
55,B2,13.75,0.25,0,84
55,D-3,13.75,0.25,0,84
55,D3,13.75,0.25,0,84
55,E3,13.75,0.25,0,84
55,G-3,13.75,0.25,0,84
55,G3,13.75,0.25,0,84
56,B0,14.0,0.25,0,84
56,D-1,14.0,0.25,0,84
56,D1,14.0,0.25,0,84
56,E1,14.0,0.25,0,84
56,G-1,14.0,0.25,0,84
56,G1,14.0,0.25,0,84
56,A1,14.0,0.25,0,84
56,B1,14.0,0.25,0,84
56,D-2,14.0,0.25,0,84
56,D2,14.0,0.25,0,84
56,E2,14.0,0.25,0,84
56,G-2,14.0,0.25,0,84
56,G2,14.0,0.25,0,84
56,A2,14.0,0.25,0,84
56,B2,14.0,0.25,0,84
56,D-3,14.0,0.25,0,84
56,D3,14.0,0.25,0,84
56,E3,14.0,0.25,0,84
56,G-3,14.0,0.25,0,84
56,G3,14.0,0.25,0,84
57,B0,14.25,0.25,0,84
57,D-1,14.25,0.25,0,84
57,D1,14.25,0.25,0,84
57,E1,14.25,0.25,0,84
57,G-1,14.25,0.25,0,84
57,G1,14.25,0.25,0,84
57,A1,14.25,0.25,0,84
57,B1,14.25,0.25,0,84
57,D-2,14.25,0.25,0,84
57,D2,14.25,0.25,0,84
57,E2,14.25,0.25,0,84
57,G-2,14.25,0.25,0,84
57,G2,14.25,0.25,0,84
57,A2,14.25,0.25,0,84
57,B2,14.25,0.25,0,84
57,D-3,14.25,0.25,0,84
57,D3,14.25,0.25,0,84
57,E3,14.25,0.25,0,84
57,G-3,14.25,0.25,0,84
57,G3,14.25,0.25,0,84
58,B0,14.5,0.25,0,84
58,D-1,14.5,0.25,0,84
58,D1,14.5,0.25,0,84
58,E1,14.5,0.25,0,84
58,G-1,14.5,0.25,0,84
58,G1,14.5,0.25,0,84
58,A1,14.5,0.25,0,84
58,B1,14.5,0.25,0,84
58,D-2,14.5,0.25,0,84
58,D2,14.5,0.25,0,84
58,E2,14.5,0.25,0,84
58,G-2,14.5,0.25,0,84
58,G2,14.5,0.25,0,84
58,A2,14.5,0.25,0,84
58,B2,14.5,0.25,0,84
58,D-3,14.5,0.25,0,84
58,D3,14.5,0.25,0,84
58,E3,14.5,0.25,0,84
58,G-3,14.5,0.25,0,84
58,G3,14.5,0.25,0,84
59,B0,14.75,0.25,0,84
59,D-1,14.75,0.25,0,84
59,D1,14.75,0.25,0,84
59,E1,14.75,0.25,0,84
59,G-1,14.75,0.25,0,84
59,G1,14.75,0.25,0,84
59,A1,14.75,0.25,0,84
59,B1,14.75,0.25,0,84
59,D-2,14.75,0.25,0,84
59,D2,14.75,0.25,0,84
59,E2,14.75,0.25,0,84
59,G-2,14.75,0.25,0,84
59,G2,14.75,0.25,0,84
59,A2,14.75,0.25,0,84
59,B2,14.75,0.25,0,84
59,D-3,14.75,0.25,0,84
59,D3,14.75,0.25,0,84
59,E3,14.75,0.25,0,84
59,G-3,14.75,0.25,0,84
59,G3,14.75,0.25,0,84
60,B0,15.0,0.25,0,84
60,D-1,15.0,0.25,0,84
60,D1,15.0,0.25,0,84
60,E1,15.0,0.25,0,84
60,G-1,15.0,0.25,0,84
60,G1,15.0,0.25,0,84
60,A1,15.0,0.25,0,84
60,B1,15.0,0.25,0,84
60,D-2,15.0,0.25,0,84
60,D2,15.0,0.25,0,84
60,E2,15.0,0.25,0,84
60,G-2,15.0,0.25,0,84
60,G2,15.0,0.25,0,84
60,A2,15.0,0.25,0,84
60,B2,15.0,0.25,0,84
60,D-3,15.0,0.25,0,84
60,D3,15.0,0.25,0,84
60,E3,15.0,0.25,0,84
60,G-3,15.0,0.25,0,84
60,G3,15.0,0.25,0,84
61,B0,15.25,0.25,0,84
61,D-1,15.25,0.25,0,84
61,D1,15.25,0.25,0,84
61,E1,15.25,0.25,0,84
61,G-1,15.25,0.25,0,84
61,G1,15.25,0.25,0,84
61,A1,15.25,0.25,0,84
61,B1,15.25,0.25,0,84
61,D-2,15.25,0.25,0,84
61,D2,15.25,0.25,0,84
61,E2,15.25,0.25,0,84
61,G-2,15.25,0.25,0,84
61,G2,15.25,0.25,0,84
61,A2,15.25,0.25,0,84
61,B2,15.25,0.25,0,84
61,D-3,15.25,0.25,0,84
61,D3,15.25,0.25,0,84
61,E3,15.25,0.25,0,84
61,G-3,15.25,0.25,0,84
61,G3,15.25,0.25,0,84
62,B0,15.5,0.25,0,84
62,D-1,15.5,0.25,0,84
62,D1,15.5,0.25,0,84
62,E1,15.5,0.25,0,84
62,G-1,15.5,0.25,0,84
62,G1,15.5,0.25,0,84
62,A1,15.5,0.25,0,84
62,B1,15.5,0.25,0,84
62,D-2,15.5,0.25,0,84
62,D2,15.5,0.25,0,84
62,E2,15.5,0.25,0,84
62,G-2,15.5,0.25,0,84
62,G2,15.5,0.25,0,84
62,A2,15.5,0.25,0,84
62,B2,15.5,0.25,0,84
62,D-3,15.5,0.25,0,84
62,D3,15.5,0.25,0,84
62,E3,15.5,0.25,0,84
62,G-3,15.5,0.25,0,84
62,G3,15.5,0.25,0,84
63,B0,15.75,0.25,0,84
63,D-1,15.75,0.25,0,84
63,D1,15.75,0.25,0,84
63,E1,15.75,0.25,0,84
63,G-1,15.75,0.25,0,84
63,G1,15.75,0.25,0,84
63,A1,15.75,0.25,0,84
63,B1,15.75,0.25,0,84
63,D-2,15.75,0.25,0,84
63,D2,15.75,0.25,0,84
63,E2,15.75,0.25,0,84
63,G-2,15.75,0.25,0,84
63,G2,15.75,0.25,0,84
63,A2,15.75,0.25,0,84
63,B2,15.75,0.25,0,84
63,D-3,15.75,0.25,0,84
63,D3,15.75,0.25,0,84
63,E3,15.75,0.25,0,84
63,G-3,15.75,0.25,0,84
63,G3,15.75,0.25,0,84
64,B0,16.0,0.25,0,84
64,D-1,16.0,0.25,0,84
64,D1,16.0,0.25,0,84
64,E1,16.0,0.25,0,84
64,G-1,16.0,0.25,0,84
64,G1,16.0,0.25,0,84
64,A1,16.0,0.25,0,84
64,B1,16.0,0.25,0,84
64,D-2,16.0,0.25,0,84
64,D2,16.0,0.25,0,84
64,E2,16.0,0.25,0,84
64,G-2,16.0,0.25,0,84
64,G2,16.0,0.25,0,84
64,A2,16.0,0.25,0,84
64,B2,16.0,0.25,0,84
64,D-3,16.0,0.25,0,84
64,D3,16.0,0.25,0,84
64,E3,16.0,0.25,0,84
64,G-3,16.0,0.25,0,84
64,G3,16.0,0.25,0,84
65,B0,16.25,0.25,0,84
65,D-1,16.25,0.25,0,84
65,D1,16.25,0.25,0,84
65,E1,16.25,0.25,0,84
65,G-1,16.25,0.25,0,84
65,G1,16.25,0.25,0,84
65,A1,16.25,0.25,0,84
65,B1,16.25,0.25,0,84
65,D-2,16.25,0.25,0,84
65,D2,16.25,0.25,0,84
65,E2,16.25,0.25,0,84
65,G-2,16.25,0.25,0,84
65,G2,16.25,0.25,0,84
65,A2,16.25,0.25,0,84
65,B2,16.25,0.25,0,84
65,D-3,16.25,0.25,0,84
65,D3,16.25,0.25,0,84
65,E3,16.25,0.25,0,84
65,G-3,16.25,0.25,0,84
65,G3,16.25,0.25,0,84
66,B0,16.5,0.25,0,84
66,D-1,16.5,0.25,0,84
66,D1,16.5,0.25,0,84
66,E1,16.5,0.25,0,84
66,G-1,16.5,0.25,0,84
66,G1,16.5,0.25,0,84
66,A1,16.5,0.25,0,84
66,B1,16.5,0.25,0,84
66,D-2,16.5,0.25,0,84
66,D2,16.5,0.25,0,84
66,E2,16.5,0.25,0,84
66,G-2,16.5,0.25,0,84
66,G2,16.5,0.25,0,84
66,A2,16.5,0.25,0,84
66,B2,16.5,0.25,0,84
66,D-3,16.5,0.25,0,84
66,D3,16.5,0.25,0,84
66,E3,16.5,0.25,0,84
66,G-3,16.5,0.25,0,84
66,G3,16.5,0.25,0,84
67,B0,16.75,0.25,0,84
67,D-1,16.75,0.25,0,84
67,D1,16.75,0.25,0,84
67,E1,16.75,0.25,0,84
67,G-1,16.75,0.25,0,84
67,G1,16.75,0.25,0,84
67,A1,16.75,0.25,0,84
67,B1,16.75,0.25,0,84
67,D-2,16.75,0.25,0,84
67,D2,16.75,0.25,0,84
67,E2,16.75,0.25,0,84
67,G-2,16.75,0.25,0,84
67,G2,16.75,0.25,0,84
67,A2,16.75,0.25,0,84
67,B2,16.75,0.25,0,84
67,D-3,16.75,0.25,0,84
67,D3,16.75,0.25,0,84
67,E3,16.75,0.25,0,84
67,G-3,16.75,0.25,0,84
67,G3,16.75,0.25,0,84
68,B0,17.0,0.25,0,84
68,D-1,17.0,0.25,0,84
68,D1,17.0,0.25,0,84
68,E1,17.0,0.25,0,84
68,G-1,17.0,0.25,0,84
68,G1,17.0,0.25,0,84
68,A1,17.0,0.25,0,84
68,B1,17.0,0.25,0,84
68,D-2,17.0,0.25,0,84
68,D2,17.0,0.25,0,84
68,E2,17.0,0.25,0,84
68,G-2,17.0,0.25,0,84
68,G2,17.0,0.25,0,84
68,A2,17.0,0.25,0,84
68,B2,17.0,0.25,0,84
68,D-3,17.0,0.25,0,84
68,D3,17.0,0.25,0,84
68,E3,17.0,0.25,0,84
68,G-3,17.0,0.25,0,84
68,G3,17.0,0.25,0,84
69,B0,17.25,0.25,0,84
69,D-1,17.25,0.25,0,84
69,D1,17.25,0.25,0,84
69,E1,17.25,0.25,0,84
69,G-1,17.25,0.25,0,84
69,G1,17.25,0.25,0,84
69,A1,17.25,0.25,0,84
69,B1,17.25,0.25,0,84
69,D-2,17.25,0.25,0,84
69,D2,17.25,0.25,0,84
69,E2,17.25,0.25,0,84
69,G-2,17.25,0.25,0,84
69,G2,17.25,0.25,0,84
69,A2,17.25,0.25,0,84
69,B2,17.25,0.25,0,84
69,D-3,17.25,0.25,0,84
69,D3,17.25,0.25,0,84
69,E3,17.25,0.25,0,84
69,G-3,17.25,0.25,0,84
69,G3,17.25,0.25,0,84
70,B0,17.5,0.25,0,84
70,D-1,17.5,0.25,0,84
70,D1,17.5,0.25,0,84
70,E1,17.5,0.25,0,84
70,G-1,17.5,0.25,0,84
70,G1,17.5,0.25,0,84
70,A1,17.5,0.25,0,84
70,B1,17.5,0.25,0,84
70,D-2,17.5,0.25,0,84
70,D2,17.5,0.25,0,84
70,E2,17.5,0.25,0,84
70,G-2,17.5,0.25,0,84
70,G2,17.5,0.25,0,84
70,A2,17.5,0.25,0,84
70,B2,17.5,0.25,0,84
70,D-3,17.5,0.25,0,84
70,D3,17.5,0.25,0,84
70,E3,17.5,0.25,0,84
70,G-3,17.5,0.25,0,84
70,G3,17.5,0.25,0,84
71,B0,17.75,0.25,0,84
71,D-1,17.75,0.25,0,84
71,D1,17.75,0.25,0,84
71,E1,17.75,0.25,0,84
71,G-1,17.75,0.25,0,84
71,G1,17.75,0.25,0,84
71,A1,17.75,0.25,0,84
71,B1,17.75,0.25,0,84
71,D-2,17.75,0.25,0,84
71,D2,17.75,0.25,0,84
71,E2,17.75,0.25,0,84
71,G-2,17.75,0.25,0,84
71,G2,17.75,0.25,0,84
71,A2,17.75,0.25,0,84
71,B2,17.75,0.25,0,84
71,D-3,17.75,0.25,0,84
71,D3,17.75,0.25,0,84
71,E3,17.75,0.25,0,84
71,G-3,17.75,0.25,0,84
71,G3,17.75,0.25,0,84
72,B0,18.0,0.25,0,84
72,D-1,18.0,0.25,0,84
72,D1,18.0,0.25,0,84
72,E1,18.0,0.25,0,84
72,G-1,18.0,0.25,0,84
72,G1,18.0,0.25,0,84
72,A1,18.0,0.25,0,84
72,B1,18.0,0.25,0,84
72,D-2,18.0,0.25,0,84
72,D2,18.0,0.25,0,84
72,E2,18.0,0.25,0,84
72,G-2,18.0,0.25,0,84
72,G2,18.0,0.25,0,84
72,A2,18.0,0.25,0,84
72,B2,18.0,0.25,0,84
72,D-3,18.0,0.25,0,84
72,D3,18.0,0.25,0,84
72,E3,18.0,0.25,0,84
72,G-3,18.0,0.25,0,84
72,G3,18.0,0.25,0,84
73,B0,18.25,0.25,0,84
73,D-1,18.25,0.25,0,84
73,D1,18.25,0.25,0,84
73,E1,18.25,0.25,0,84
73,G-1,18.25,0.25,0,84
73,G1,18.25,0.25,0,84
73,A1,18.25,0.25,0,84
73,B1,18.25,0.25,0,84
73,D-2,18.25,0.25,0,84
73,D2,18.25,0.25,0,84
73,E2,18.25,0.25,0,84
73,G-2,18.25,0.25,0,84
73,G2,18.25,0.25,0,84
73,A2,18.25,0.25,0,84
73,B2,18.25,0.25,0,84
73,D-3,18.25,0.25,0,84
73,D3,18.25,0.25,0,84
73,E3,18.25,0.25,0,84
73,G-3,18.25,0.25,0,84
73,G3,18.25,0.25,0,84
74,B0,18.5,0.25,0,84
74,D-1,18.5,0.25,0,84
74,D1,18.5,0.25,0,84
74,E1,18.5,0.25,0,84
74,G-1,18.5,0.25,0,84
74,G1,18.5,0.25,0,84
74,A1,18.5,0.25,0,84
74,B1,18.5,0.25,0,84
74,D-2,18.5,0.25,0,84
74,D2,18.5,0.25,0,84
74,E2,18.5,0.25,0,84
74,G-2,18.5,0.25,0,84
74,G2,18.5,0.25,0,84
74,A2,18.5,0.25,0,84
74,B2,18.5,0.25,0,84
74,D-3,18.5,0.25,0,84
74,D3,18.5,0.25,0,84
74,E3,18.5,0.25,0,84
74,G-3,18.5,0.25,0,84
74,G3,18.5,0.25,0,84
75,B0,18.75,0.25,0,84
75,D-1,18.75,0.25,0,84
75,D1,18.75,0.25,0,84
75,E1,18.75,0.25,0,84
75,G-1,18.75,0.25,0,84
75,G1,18.75,0.25,0,84
75,A1,18.75,0.25,0,84
75,B1,18.75,0.25,0,84
75,D-2,18.75,0.25,0,84
75,D2,18.75,0.25,0,84
75,E2,18.75,0.25,0,84
75,G-2,18.75,0.25,0,84
75,G2,18.75,0.25,0,84
75,A2,18.75,0.25,0,84
75,B2,18.75,0.25,0,84
75,D-3,18.75,0.25,0,84
75,D3,18.75,0.25,0,84
75,E3,18.75,0.25,0,84
75,G-3,18.75,0.25,0,84
75,G3,18.75,0.25,0,84
76,B0,19.0,0.25,0,84
76,D-1,19.0,0.25,0,84
76,D1,19.0,0.25,0,84
76,E1,19.0,0.25,0,84
76,G-1,19.0,0.25,0,84
76,G1,19.0,0.25,0,84
76,A1,19.0,0.25,0,84
76,B1,19.0,0.25,0,84
76,D-2,19.0,0.25,0,84
76,D2,19.0,0.25,0,84
76,E2,19.0,0.25,0,84
76,G-2,19.0,0.25,0,84
76,G2,19.0,0.25,0,84
76,A2,19.0,0.25,0,84
76,B2,19.0,0.25,0,84
76,D-3,19.0,0.25,0,84
76,D3,19.0,0.25,0,84
76,E3,19.0,0.25,0,84
76,G-3,19.0,0.25,0,84
76,G3,19.0,0.25,0,84
77,B0,19.25,0.25,0,84
77,D-1,19.25,0.25,0,84
77,D1,19.25,0.25,0,84
77,E1,19.25,0.25,0,84
77,G-1,19.25,0.25,0,84
77,G1,19.25,0.25,0,84
77,A1,19.25,0.25,0,84
77,B1,19.25,0.25,0,84
77,D-2,19.25,0.25,0,84
77,D2,19.25,0.25,0,84
77,E2,19.25,0.25,0,84
77,G-2,19.25,0.25,0,84
77,G2,19.25,0.25,0,84
77,A2,19.25,0.25,0,84
77,B2,19.25,0.25,0,84
77,D-3,19.25,0.25,0,84
77,D3,19.25,0.25,0,84
77,E3,19.25,0.25,0,84
77,G-3,19.25,0.25,0,84
77,G3,19.25,0.25,0,84
78,B0,19.5,0.25,0,84
78,D-1,19.5,0.25,0,84
78,D1,19.5,0.25,0,84
78,E1,19.5,0.25,0,84
78,G-1,19.5,0.25,0,84
78,G1,19.5,0.25,0,84
78,A1,19.5,0.25,0,84
78,B1,19.5,0.25,0,84
78,D-2,19.5,0.25,0,84
78,D2,19.5,0.25,0,84
78,E2,19.5,0.25,0,84
78,G-2,19.5,0.25,0,84
78,G2,19.5,0.25,0,84
78,A2,19.5,0.25,0,84
78,B2,19.5,0.25,0,84
78,D-3,19.5,0.25,0,84
78,D3,19.5,0.25,0,84
78,E3,19.5,0.25,0,84
78,G-3,19.5,0.25,0,84
78,G3,19.5,0.25,0,84
79,B0,19.75,0.25,0,84
79,D-1,19.75,0.25,0,84
79,D1,19.75,0.25,0,84
79,E1,19.75,0.25,0,84
79,G-1,19.75,0.25,0,84
79,G1,19.75,0.25,0,84
79,A1,19.75,0.25,0,84
79,B1,19.75,0.25,0,84
79,D-2,19.75,0.25,0,84
79,D2,19.75,0.25,0,84
79,E2,19.75,0.25,0,84
79,G-2,19.75,0.25,0,84
79,G2,19.75,0.25,0,84
79,A2,19.75,0.25,0,84
79,B2,19.75,0.25,0,84
79,D-3,19.75,0.25,0,84
79,D3,19.75,0.25,0,84
79,E3,19.75,0.25,0,84
79,G-3,19.75,0.25,0,84
79,G3,19.75,0.25,0,84
80,B0,20.0,0.25,0,84
80,D-1,20.0,0.25,0,84
80,D1,20.0,0.25,0,84
80,E1,20.0,0.25,0,84
80,G-1,20.0,0.25,0,84
80,G1,20.0,0.25,0,84
80,A1,20.0,0.25,0,84
80,B1,20.0,0.25,0,84
80,D-2,20.0,0.25,0,84
80,D2,20.0,0.25,0,84
80,E2,20.0,0.25,0,84
80,G-2,20.0,0.25,0,84
80,G2,20.0,0.25,0,84
80,A2,20.0,0.25,0,84
80,B2,20.0,0.25,0,84
80,D-3,20.0,0.25,0,84
80,D3,20.0,0.25,0,84
80,E3,20.0,0.25,0,84
80,G-3,20.0,0.25,0,84
80,G3,20.0,0.25,0,84
81,B0,20.25,0.25,0,84
81,D-1,20.25,0.25,0,84
81,D1,20.25,0.25,0,84
81,E1,20.25,0.25,0,84
81,G-1,20.25,0.25,0,84
81,G1,20.25,0.25,0,84
81,A1,20.25,0.25,0,84
81,B1,20.25,0.25,0,84
81,D-2,20.25,0.25,0,84
81,D2,20.25,0.25,0,84
81,E2,20.25,0.25,0,84
81,G-2,20.25,0.25,0,84
81,G2,20.25,0.25,0,84
81,A2,20.25,0.25,0,84
81,B2,20.25,0.25,0,84
81,D-3,20.25,0.25,0,84
81,D3,20.25,0.25,0,84
81,E3,20.25,0.25,0,84
81,G-3,20.25,0.25,0,84
81,G3,20.25,0.25,0,84
82,B0,20.5,0.25,0,84
82,D-1,20.5,0.25,0,84
82,D1,20.5,0.25,0,84
82,E1,20.5,0.25,0,84
82,G-1,20.5,0.25,0,84
82,G1,20.5,0.25,0,84
82,A1,20.5,0.25,0,84
82,B1,20.5,0.25,0,84
82,D-2,20.5,0.25,0,84
82,D2,20.5,0.25,0,84
82,E2,20.5,0.25,0,84
82,G-2,20.5,0.25,0,84
82,G2,20.5,0.25,0,84
82,A2,20.5,0.25,0,84
82,B2,20.5,0.25,0,84
82,D-3,20.5,0.25,0,84
82,D3,20.5,0.25,0,84
82,E3,20.5,0.25,0,84
82,G-3,20.5,0.25,0,84
82,G3,20.5,0.25,0,84
83,B0,20.75,0.25,0,84
83,D-1,20.75,0.25,0,84
83,D1,20.75,0.25,0,84
83,E1,20.75,0.25,0,84
83,G-1,20.75,0.25,0,84
83,G1,20.75,0.25,0,84
83,A1,20.75,0.25,0,84
83,B1,20.75,0.25,0,84
83,D-2,20.75,0.25,0,84
83,D2,20.75,0.25,0,84
83,E2,20.75,0.25,0,84
83,G-2,20.75,0.25,0,84
83,G2,20.75,0.25,0,84
83,A2,20.75,0.25,0,84
83,B2,20.75,0.25,0,84
83,D-3,20.75,0.25,0,84
83,D3,20.75,0.25,0,84
83,E3,20.75,0.25,0,84
83,G-3,20.75,0.25,0,84
83,G3,20.75,0.25,0,84
84,B0,21.0,0.25,0,84
84,D-1,21.0,0.25,0,84
84,D1,21.0,0.25,0,84
84,E1,21.0,0.25,0,84
84,G-1,21.0,0.25,0,84
84,G1,21.0,0.25,0,84
84,A1,21.0,0.25,0,84
84,B1,21.0,0.25,0,84
84,D-2,21.0,0.25,0,84
84,D2,21.0,0.25,0,84
84,E2,21.0,0.25,0,84
84,G-2,21.0,0.25,0,84
84,G2,21.0,0.25,0,84
84,A2,21.0,0.25,0,84
84,B2,21.0,0.25,0,84
84,D-3,21.0,0.25,0,84
84,D3,21.0,0.25,0,84
84,E3,21.0,0.25,0,84
84,G-3,21.0,0.25,0,84
84,G3,21.0,0.25,0,84
85,B0,21.25,0.25,0,84
85,D-1,21.25,0.25,0,84
85,D1,21.25,0.25,0,84
85,E1,21.25,0.25,0,84
85,G-1,21.25,0.25,0,84
85,G1,21.25,0.25,0,84
85,A1,21.25,0.25,0,84
85,B1,21.25,0.25,0,84
85,D-2,21.25,0.25,0,84
85,D2,21.25,0.25,0,84
85,E2,21.25,0.25,0,84
85,G-2,21.25,0.25,0,84
85,G2,21.25,0.25,0,84
85,A2,21.25,0.25,0,84
85,B2,21.25,0.25,0,84
85,D-3,21.25,0.25,0,84
85,D3,21.25,0.25,0,84
85,E3,21.25,0.25,0,84
85,G-3,21.25,0.25,0,84
85,G3,21.25,0.25,0,84
86,B0,21.5,0.25,0,84
86,D-1,21.5,0.25,0,84
86,D1,21.5,0.25,0,84
86,E1,21.5,0.25,0,84
86,G-1,21.5,0.25,0,84
86,G1,21.5,0.25,0,84
86,A1,21.5,0.25,0,84
86,B1,21.5,0.25,0,84
86,D-2,21.5,0.25,0,84
86,D2,21.5,0.25,0,84
86,E2,21.5,0.25,0,84
86,G-2,21.5,0.25,0,84
86,G2,21.5,0.25,0,84
86,A2,21.5,0.25,0,84
86,B2,21.5,0.25,0,84
86,D-3,21.5,0.25,0,84
86,D3,21.5,0.25,0,84
86,E3,21.5,0.25,0,84
86,G-3,21.5,0.25,0,84
86,G3,21.5,0.25,0,84
87,B0,21.75,0.25,0,84
87,D-1,21.75,0.25,0,84
87,D1,21.75,0.25,0,84
87,E1,21.75,0.25,0,84
87,G-1,21.75,0.25,0,84
87,G1,21.75,0.25,0,84
87,A1,21.75,0.25,0,84
87,B1,21.75,0.25,0,84
87,D-2,21.75,0.25,0,84
87,D2,21.75,0.25,0,84
87,E2,21.75,0.25,0,84
87,G-2,21.75,0.25,0,84
87,G2,21.75,0.25,0,84
87,A2,21.75,0.25,0,84
87,B2,21.75,0.25,0,84
87,D-3,21.75,0.25,0,84
87,D3,21.75,0.25,0,84
87,E3,21.75,0.25,0,84
87,G-3,21.75,0.25,0,84
87,G3,21.75,0.25,0,84
88,B0,22.0,0.25,0,84
88,D-1,22.0,0.25,0,84
88,D1,22.0,0.25,0,84
88,E1,22.0,0.25,0,84
88,G-1,22.0,0.25,0,84
88,G1,22.0,0.25,0,84
88,A1,22.0,0.25,0,84
88,B1,22.0,0.25,0,84
88,D-2,22.0,0.25,0,84
88,D2,22.0,0.25,0,84
88,E2,22.0,0.25,0,84
88,G-2,22.0,0.25,0,84
88,G2,22.0,0.25,0,84
88,A2,22.0,0.25,0,84
88,B2,22.0,0.25,0,84
88,D-3,22.0,0.25,0,84
88,D3,22.0,0.25,0,84
88,E3,22.0,0.25,0,84
88,G-3,22.0,0.25,0,84
88,G3,22.0,0.25,0,84
89,B0,22.25,0.25,0,84
89,D-1,22.25,0.25,0,84
89,D1,22.25,0.25,0,84
89,E1,22.25,0.25,0,84
89,G-1,22.25,0.25,0,84
89,G1,22.25,0.25,0,84
89,A1,22.25,0.25,0,84
89,B1,22.25,0.25,0,84
89,D-2,22.25,0.25,0,84
89,D2,22.25,0.25,0,84
89,E2,22.25,0.25,0,84
89,G-2,22.25,0.25,0,84
89,G2,22.25,0.25,0,84
89,A2,22.25,0.25,0,84
89,B2,22.25,0.25,0,84
89,D-3,22.25,0.25,0,84
89,D3,22.25,0.25,0,84
89,E3,22.25,0.25,0,84
89,G-3,22.25,0.25,0,84
89,G3,22.25,0.25,0,84
90,B0,22.5,0.25,0,84
90,D-1,22.5,0.25,0,84
90,D1,22.5,0.25,0,84
90,E1,22.5,0.25,0,84
90,G-1,22.5,0.25,0,84
90,G1,22.5,0.25,0,84
90,A1,22.5,0.25,0,84
90,B1,22.5,0.25,0,84
90,D-2,22.5,0.25,0,84
90,D2,22.5,0.25,0,84
90,E2,22.5,0.25,0,84
90,G-2,22.5,0.25,0,84
90,G2,22.5,0.25,0,84
90,A2,22.5,0.25,0,84
90,B2,22.5,0.25,0,84
90,D-3,22.5,0.25,0,84
90,D3,22.5,0.25,0,84
90,E3,22.5,0.25,0,84
90,G-3,22.5,0.25,0,84
90,G3,22.5,0.25,0,84
91,B0,22.75,0.25,0,84
91,D-1,22.75,0.25,0,84
91,D1,22.75,0.25,0,84
91,E1,22.75,0.25,0,84
91,G-1,22.75,0.25,0,84
91,G1,22.75,0.25,0,84
91,A1,22.75,0.25,0,84
91,B1,22.75,0.25,0,84
91,D-2,22.75,0.25,0,84
91,D2,22.75,0.25,0,84
91,E2,22.75,0.25,0,84
91,G-2,22.75,0.25,0,84
91,G2,22.75,0.25,0,84
91,A2,22.75,0.25,0,84
91,B2,22.75,0.25,0,84
91,D-3,22.75,0.25,0,84
91,D3,22.75,0.25,0,84
91,E3,22.75,0.25,0,84
91,G-3,22.75,0.25,0,84
91,G3,22.75,0.25,0,84
92,B0,23.0,0.25,0,84
92,D-1,23.0,0.25,0,84
92,D1,23.0,0.25,0,84
92,E1,23.0,0.25,0,84
92,G-1,23.0,0.25,0,84
92,G1,23.0,0.25,0,84
92,A1,23.0,0.25,0,84
92,B1,23.0,0.25,0,84
92,D-2,23.0,0.25,0,84
92,D2,23.0,0.25,0,84
92,E2,23.0,0.25,0,84
92,G-2,23.0,0.25,0,84
92,G2,23.0,0.25,0,84
92,A2,23.0,0.25,0,84
92,B2,23.0,0.25,0,84
92,D-3,23.0,0.25,0,84
92,D3,23.0,0.25,0,84
92,E3,23.0,0.25,0,84
92,G-3,23.0,0.25,0,84
92,G3,23.0,0.25,0,84
93,B0,23.25,0.25,0,84
93,D-1,23.25,0.25,0,84
93,D1,23.25,0.25,0,84
93,E1,23.25,0.25,0,84
93,G-1,23.25,0.25,0,84
93,G1,23.25,0.25,0,84
93,A1,23.25,0.25,0,84
93,B1,23.25,0.25,0,84
93,D-2,23.25,0.25,0,84
93,D2,23.25,0.25,0,84
93,E2,23.25,0.25,0,84
93,G-2,23.25,0.25,0,84
93,G2,23.25,0.25,0,84
93,A2,23.25,0.25,0,84
93,B2,23.25,0.25,0,84
93,D-3,23.25,0.25,0,84
93,D3,23.25,0.25,0,84
93,E3,23.25,0.25,0,84
93,G-3,23.25,0.25,0,84
93,G3,23.25,0.25,0,84
94,B0,23.5,0.25,0,84
94,D-1,23.5,0.25,0,84
94,D1,23.5,0.25,0,84
94,E1,23.5,0.25,0,84
94,G-1,23.5,0.25,0,84
94,G1,23.5,0.25,0,84
94,A1,23.5,0.25,0,84
94,B1,23.5,0.25,0,84
94,D-2,23.5,0.25,0,84
94,D2,23.5,0.25,0,84
94,E2,23.5,0.25,0,84
94,G-2,23.5,0.25,0,84
94,G2,23.5,0.25,0,84
94,A2,23.5,0.25,0,84
94,B2,23.5,0.25,0,84
94,D-3,23.5,0.25,0,84
94,D3,23.5,0.25,0,84
94,E3,23.5,0.25,0,84
94,G-3,23.5,0.25,0,84
94,G3,23.5,0.25,0,84
95,B0,23.75,0.25,0,84
95,D-1,23.75,0.25,0,84
95,D1,23.75,0.25,0,84
95,E1,23.75,0.25,0,84
95,G-1,23.75,0.25,0,84
95,G1,23.75,0.25,0,84
95,A1,23.75,0.25,0,84
95,B1,23.75,0.25,0,84
95,D-2,23.75,0.25,0,84
95,D2,23.75,0.25,0,84
95,E2,23.75,0.25,0,84
95,G-2,23.75,0.25,0,84
95,G2,23.75,0.25,0,84
95,A2,23.75,0.25,0,84
95,B2,23.75,0.25,0,84
95,D-3,23.75,0.25,0,84
95,D3,23.75,0.25,0,84
95,E3,23.75,0.25,0,84
95,G-3,23.75,0.25,0,84
95,G3,23.75,0.25,0,84
96,B0,24.0,0.25,0,84
96,D-1,24.0,0.25,0,84
96,D1,24.0,0.25,0,84
96,E1,24.0,0.25,0,84
96,G-1,24.0,0.25,0,84
96,G1,24.0,0.25,0,84
96,A1,24.0,0.25,0,84
96,B1,24.0,0.25,0,84
96,D-2,24.0,0.25,0,84
96,D2,24.0,0.25,0,84
96,E2,24.0,0.25,0,84
96,G-2,24.0,0.25,0,84
96,G2,24.0,0.25,0,84
96,A2,24.0,0.25,0,84
96,B2,24.0,0.25,0,84
96,D-3,24.0,0.25,0,84
96,D3,24.0,0.25,0,84
96,E3,24.0,0.25,0,84
96,G-3,24.0,0.25,0,84
96,G3,24.0,0.25,0,84
97,B0,24.25,0.25,0,84
97,D-1,24.25,0.25,0,84
97,D1,24.25,0.25,0,84
97,E1,24.25,0.25,0,84
97,G-1,24.25,0.25,0,84
97,G1,24.25,0.25,0,84
97,A1,24.25,0.25,0,84
97,B1,24.25,0.25,0,84
97,D-2,24.25,0.25,0,84
97,D2,24.25,0.25,0,84
97,E2,24.25,0.25,0,84
97,G-2,24.25,0.25,0,84
97,G2,24.25,0.25,0,84
97,A2,24.25,0.25,0,84
97,B2,24.25,0.25,0,84
97,D-3,24.25,0.25,0,84
97,D3,24.25,0.25,0,84
97,E3,24.25,0.25,0,84
97,G-3,24.25,0.25,0,84
97,G3,24.25,0.25,0,84
98,B0,24.5,0.25,0,84
98,D-1,24.5,0.25,0,84
98,D1,24.5,0.25,0,84
98,E1,24.5,0.25,0,84
98,G-1,24.5,0.25,0,84
98,G1,24.5,0.25,0,84
98,A1,24.5,0.25,0,84
98,B1,24.5,0.25,0,84
98,D-2,24.5,0.25,0,84
98,D2,24.5,0.25,0,84
98,E2,24.5,0.25,0,84
98,G-2,24.5,0.25,0,84
98,G2,24.5,0.25,0,84
98,A2,24.5,0.25,0,84
98,B2,24.5,0.25,0,84
98,D-3,24.5,0.25,0,84
98,D3,24.5,0.25,0,84
98,E3,24.5,0.25,0,84
98,G-3,24.5,0.25,0,84
98,G3,24.5,0.25,0,84
99,B0,24.75,0.25,0,84
99,D-1,24.75,0.25,0,84
99,D1,24.75,0.25,0,84
99,E1,24.75,0.25,0,84
99,G-1,24.75,0.25,0,84
99,G1,24.75,0.25,0,84
99,A1,24.75,0.25,0,84
99,B1,24.75,0.25,0,84
99,D-2,24.75,0.25,0,84
99,D2,24.75,0.25,0,84
99,E2,24.75,0.25,0,84
99,G-2,24.75,0.25,0,84
99,G2,24.75,0.25,0,84
99,A2,24.75,0.25,0,84
99,B2,24.75,0.25,0,84
99,D-3,24.75,0.25,0,84
99,D3,24.75,0.25,0,84
99,E3,24.75,0.25,0,84
99,G-3,24.75,0.25,0,84
99,G3,24.75,0.25,0,84
100,B0,25.0,0.25,0,84
100,D-1,25.0,0.25,0,84
100,D1,25.0,0.25,0,84
100,E1,25.0,0.25,0,84
100,G-1,25.0,0.25,0,84
100,G1,25.0,0.25,0,84
100,A1,25.0,0.25,0,84
100,B1,25.0,0.25,0,84
100,D-2,25.0,0.25,0,84
100,D2,25.0,0.25,0,84
100,E2,25.0,0.25,0,84
100,G-2,25.0,0.25,0,84
100,G2,25.0,0.25,0,84
100,A2,25.0,0.25,0,84
100,B2,25.0,0.25,0,84
100,D-3,25.0,0.25,0,84
100,D3,25.0,0.25,0,84
100,E3,25.0,0.25,0,84
100,G-3,25.0,0.25,0,84
100,G3,25.0,0.25,0,84
101,B0,25.25,0.25,0,84
101,D-1,25.25,0.25,0,84
101,D1,25.25,0.25,0,84
101,E1,25.25,0.25,0,84
101,G-1,25.25,0.25,0,84
101,G1,25.25,0.25,0,84
101,A1,25.25,0.25,0,84
101,B1,25.25,0.25,0,84
101,D-2,25.25,0.25,0,84
101,D2,25.25,0.25,0,84
101,E2,25.25,0.25,0,84
101,G-2,25.25,0.25,0,84
101,G2,25.25,0.25,0,84
101,A2,25.25,0.25,0,84
101,B2,25.25,0.25,0,84
101,D-3,25.25,0.25,0,84
101,D3,25.25,0.25,0,84
101,E3,25.25,0.25,0,84
101,G-3,25.25,0.25,0,84
101,G3,25.25,0.25,0,84
102,B0,25.5,0.25,0,84
102,D-1,25.5,0.25,0,84
102,D1,25.5,0.25,0,84
102,E1,25.5,0.25,0,84
102,G-1,25.5,0.25,0,84
102,G1,25.5,0.25,0,84
102,A1,25.5,0.25,0,84
102,B1,25.5,0.25,0,84
102,D-2,25.5,0.25,0,84
102,D2,25.5,0.25,0,84
102,E2,25.5,0.25,0,84
102,G-2,25.5,0.25,0,84
102,G2,25.5,0.25,0,84
102,A2,25.5,0.25,0,84
102,B2,25.5,0.25,0,84
102,D-3,25.5,0.25,0,84
102,D3,25.5,0.25,0,84
102,E3,25.5,0.25,0,84
102,G-3,25.5,0.25,0,84
102,G3,25.5,0.25,0,84
103,B0,25.75,0.25,0,84
103,D-1,25.75,0.25,0,84
103,D1,25.75,0.25,0,84
103,E1,25.75,0.25,0,84
103,G-1,25.75,0.25,0,84
103,G1,25.75,0.25,0,84
103,A1,25.75,0.25,0,84
103,B1,25.75,0.25,0,84
103,D-2,25.75,0.25,0,84
103,D2,25.75,0.25,0,84
103,E2,25.75,0.25,0,84
103,G-2,25.75,0.25,0,84
103,G2,25.75,0.25,0,84
103,A2,25.75,0.25,0,84
103,B2,25.75,0.25,0,84
103,D-3,25.75,0.25,0,84
103,D3,25.75,0.25,0,84
103,E3,25.75,0.25,0,84
103,G-3,25.75,0.25,0,84
103,G3,25.75,0.25,0,84
104,B0,26.0,0.25,0,84
104,D-1,26.0,0.25,0,84
104,D1,26.0,0.25,0,84
104,E1,26.0,0.25,0,84
104,G-1,26.0,0.25,0,84
104,G1,26.0,0.25,0,84
104,A1,26.0,0.25,0,84
104,B1,26.0,0.25,0,84
104,D-2,26.0,0.25,0,84
104,D2,26.0,0.25,0,84
104,E2,26.0,0.25,0,84
104,G-2,26.0,0.25,0,84
104,G2,26.0,0.25,0,84
104,A2,26.0,0.25,0,84
104,B2,26.0,0.25,0,84
104,D-3,26.0,0.25,0,84
104,D3,26.0,0.25,0,84
104,E3,26.0,0.25,0,84
104,G-3,26.0,0.25,0,84
104,G3,26.0,0.25,0,84
105,B0,26.25,0.25,0,84
105,D-1,26.25,0.25,0,84
105,D1,26.25,0.25,0,84
105,E1,26.25,0.25,0,84
105,G-1,26.25,0.25,0,84
105,G1,26.25,0.25,0,84
105,A1,26.25,0.25,0,84
105,B1,26.25,0.25,0,84
105,D-2,26.25,0.25,0,84
105,D2,26.25,0.25,0,84
105,E2,26.25,0.25,0,84
105,G-2,26.25,0.25,0,84
105,G2,26.25,0.25,0,84
105,A2,26.25,0.25,0,84
105,B2,26.25,0.25,0,84
105,D-3,26.25,0.25,0,84
105,D3,26.25,0.25,0,84
105,E3,26.25,0.25,0,84
105,G-3,26.25,0.25,0,84
105,G3,26.25,0.25,0,84
106,B0,26.5,0.25,0,84
106,D-1,26.5,0.25,0,84
106,D1,26.5,0.25,0,84
106,E1,26.5,0.25,0,84
106,G-1,26.5,0.25,0,84
106,G1,26.5,0.25,0,84
106,A1,26.5,0.25,0,84
106,B1,26.5,0.25,0,84
106,D-2,26.5,0.25,0,84
106,D2,26.5,0.25,0,84
106,E2,26.5,0.25,0,84
106,G-2,26.5,0.25,0,84
106,G2,26.5,0.25,0,84
106,A2,26.5,0.25,0,84
106,B2,26.5,0.25,0,84
106,D-3,26.5,0.25,0,84
106,D3,26.5,0.25,0,84
106,E3,26.5,0.25,0,84
106,G-3,26.5,0.25,0,84
106,G3,26.5,0.25,0,84
107,B0,26.75,0.25,0,84
107,D-1,26.75,0.25,0,84
107,D1,26.75,0.25,0,84
107,E1,26.75,0.25,0,84
107,G-1,26.75,0.25,0,84
107,G1,26.75,0.25,0,84
107,A1,26.75,0.25,0,84
107,B1,26.75,0.25,0,84
107,D-2,26.75,0.25,0,84
107,D2,26.75,0.25,0,84
107,E2,26.75,0.25,0,84
107,G-2,26.75,0.25,0,84
107,G2,26.75,0.25,0,84
107,A2,26.75,0.25,0,84
107,B2,26.75,0.25,0,84
107,D-3,26.75,0.25,0,84
107,D3,26.75,0.25,0,84
107,E3,26.75,0.25,0,84
107,G-3,26.75,0.25,0,84
107,G3,26.75,0.25,0,84
108,B0,27.0,0.25,0,84
108,D-1,27.0,0.25,0,84
108,D1,27.0,0.25,0,84
108,E1,27.0,0.25,0,84
108,G-1,27.0,0.25,0,84
108,G1,27.0,0.25,0,84
108,A1,27.0,0.25,0,84
108,B1,27.0,0.25,0,84
108,D-2,27.0,0.25,0,84
108,D2,27.0,0.25,0,84
108,E2,27.0,0.25,0,84
108,G-2,27.0,0.25,0,84
108,G2,27.0,0.25,0,84
108,A2,27.0,0.25,0,84
108,B2,27.0,0.25,0,84
108,D-3,27.0,0.25,0,84
108,D3,27.0,0.25,0,84
108,E3,27.0,0.25,0,84
108,G-3,27.0,0.25,0,84
108,G3,27.0,0.25,0,84
109,B0,27.25,0.25,0,84
109,D-1,27.25,0.25,0,84
109,D1,27.25,0.25,0,84
109,E1,27.25,0.25,0,84
109,G-1,27.25,0.25,0,84
109,G1,27.25,0.25,0,84
109,A1,27.25,0.25,0,84
109,B1,27.25,0.25,0,84
109,D-2,27.25,0.25,0,84
109,D2,27.25,0.25,0,84
109,E2,27.25,0.25,0,84
109,G-2,27.25,0.25,0,84
109,G2,27.25,0.25,0,84
109,A2,27.25,0.25,0,84
109,B2,27.25,0.25,0,84
109,D-3,27.25,0.25,0,84
109,D3,27.25,0.25,0,84
109,E3,27.25,0.25,0,84
109,G-3,27.25,0.25,0,84
109,G3,27.25,0.25,0,84
110,B0,27.5,0.25,0,84
110,D-1,27.5,0.25,0,84
110,D1,27.5,0.25,0,84
110,E1,27.5,0.25,0,84
110,G-1,27.5,0.25,0,84
110,G1,27.5,0.25,0,84
110,A1,27.5,0.25,0,84
110,B1,27.5,0.25,0,84
110,D-2,27.5,0.25,0,84
110,D2,27.5,0.25,0,84
110,E2,27.5,0.25,0,84
110,G-2,27.5,0.25,0,84
110,G2,27.5,0.25,0,84
110,A2,27.5,0.25,0,84
110,B2,27.5,0.25,0,84
110,D-3,27.5,0.25,0,84
110,D3,27.5,0.25,0,84
110,E3,27.5,0.25,0,84
110,G-3,27.5,0.25,0,84
110,G3,27.5,0.25,0,84
111,B0,27.75,0.25,0,84
111,D-1,27.75,0.25,0,84
111,D1,27.75,0.25,0,84
111,E1,27.75,0.25,0,84
111,G-1,27.75,0.25,0,84
111,G1,27.75,0.25,0,84
111,A1,27.75,0.25,0,84
111,B1,27.75,0.25,0,84
111,D-2,27.75,0.25,0,84
111,D2,27.75,0.25,0,84
111,E2,27.75,0.25,0,84
111,G-2,27.75,0.25,0,84
111,G2,27.75,0.25,0,84
111,A2,27.75,0.25,0,84
111,B2,27.75,0.25,0,84
111,D-3,27.75,0.25,0,84
111,D3,27.75,0.25,0,84
111,E3,27.75,0.25,0,84
111,G-3,27.75,0.25,0,84
111,G3,27.75,0.25,0,84
112,B0,28.0,0.25,0,84
112,D-1,28.0,0.25,0,84
112,D1,28.0,0.25,0,84
112,E1,28.0,0.25,0,84
112,G-1,28.0,0.25,0,84
112,G1,28.0,0.25,0,84
112,A1,28.0,0.25,0,84
112,B1,28.0,0.25,0,84
112,D-2,28.0,0.25,0,84
112,D2,28.0,0.25,0,84
112,E2,28.0,0.25,0,84
112,G-2,28.0,0.25,0,84
112,G2,28.0,0.25,0,84
112,A2,28.0,0.25,0,84
112,B2,28.0,0.25,0,84
112,D-3,28.0,0.25,0,84
112,D3,28.0,0.25,0,84
112,E3,28.0,0.25,0,84
112,G-3,28.0,0.25,0,84
112,G3,28.0,0.25,0,84
113,B0,28.25,0.25,0,84
113,D-1,28.25,0.25,0,84
113,D1,28.25,0.25,0,84
113,E1,28.25,0.25,0,84
113,G-1,28.25,0.25,0,84
113,G1,28.25,0.25,0,84
113,A1,28.25,0.25,0,84
113,B1,28.25,0.25,0,84
113,D-2,28.25,0.25,0,84
113,D2,28.25,0.25,0,84
113,E2,28.25,0.25,0,84
113,G-2,28.25,0.25,0,84
113,G2,28.25,0.25,0,84
113,A2,28.25,0.25,0,84
113,B2,28.25,0.25,0,84
113,D-3,28.25,0.25,0,84
113,D3,28.25,0.25,0,84
113,E3,28.25,0.25,0,84
113,G-3,28.25,0.25,0,84
113,G3,28.25,0.25,0,84
114,B0,28.5,0.25,0,84
114,D-1,28.5,0.25,0,84
114,D1,28.5,0.25,0,84
114,E1,28.5,0.25,0,84
114,G-1,28.5,0.25,0,84
114,G1,28.5,0.25,0,84
114,A1,28.5,0.25,0,84
114,B1,28.5,0.25,0,84
114,D-2,28.5,0.25,0,84
114,D2,28.5,0.25,0,84
114,E2,28.5,0.25,0,84
114,G-2,28.5,0.25,0,84
114,G2,28.5,0.25,0,84
114,A2,28.5,0.25,0,84
114,B2,28.5,0.25,0,84
114,D-3,28.5,0.25,0,84
114,D3,28.5,0.25,0,84
114,E3,28.5,0.25,0,84
114,G-3,28.5,0.25,0,84
114,G3,28.5,0.25,0,84
115,B0,28.75,0.25,0,84
115,D-1,28.75,0.25,0,84
115,D1,28.75,0.25,0,84
115,E1,28.75,0.25,0,84
115,G-1,28.75,0.25,0,84
115,G1,28.75,0.25,0,84
115,A1,28.75,0.25,0,84
115,B1,28.75,0.25,0,84
115,D-2,28.75,0.25,0,84
115,D2,28.75,0.25,0,84
115,E2,28.75,0.25,0,84
115,G-2,28.75,0.25,0,84
115,G2,28.75,0.25,0,84
115,A2,28.75,0.25,0,84
115,B2,28.75,0.25,0,84
115,D-3,28.75,0.25,0,84
115,D3,28.75,0.25,0,84
115,E3,28.75,0.25,0,84
115,G-3,28.75,0.25,0,84
115,G3,28.75,0.25,0,84
116,B0,29.0,0.25,0,84
116,D-1,29.0,0.25,0,84
116,D1,29.0,0.25,0,84
116,E1,29.0,0.25,0,84
116,G-1,29.0,0.25,0,84
116,G1,29.0,0.25,0,84
116,A1,29.0,0.25,0,84
116,B1,29.0,0.25,0,84
116,D-2,29.0,0.25,0,84
116,D2,29.0,0.25,0,84
116,E2,29.0,0.25,0,84
116,G-2,29.0,0.25,0,84
116,G2,29.0,0.25,0,84
116,A2,29.0,0.25,0,84
116,B2,29.0,0.25,0,84
116,D-3,29.0,0.25,0,84
116,D3,29.0,0.25,0,84
116,E3,29.0,0.25,0,84
116,G-3,29.0,0.25,0,84
116,G3,29.0,0.25,0,84
117,B0,29.25,0.25,0,84
117,D-1,29.25,0.25,0,84
117,D1,29.25,0.25,0,84
117,E1,29.25,0.25,0,84
117,G-1,29.25,0.25,0,84
117,G1,29.25,0.25,0,84
117,A1,29.25,0.25,0,84
117,B1,29.25,0.25,0,84
117,D-2,29.25,0.25,0,84
117,D2,29.25,0.25,0,84
117,E2,29.25,0.25,0,84
117,G-2,29.25,0.25,0,84
117,G2,29.25,0.25,0,84
117,A2,29.25,0.25,0,84
117,B2,29.25,0.25,0,84
117,D-3,29.25,0.25,0,84
117,D3,29.25,0.25,0,84
117,E3,29.25,0.25,0,84
117,G-3,29.25,0.25,0,84
117,G3,29.25,0.25,0,84
118,B0,29.5,0.25,0,84
118,D-1,29.5,0.25,0,84
118,D1,29.5,0.25,0,84
118,E1,29.5,0.25,0,84
118,G-1,29.5,0.25,0,84
118,G1,29.5,0.25,0,84
118,A1,29.5,0.25,0,84
118,B1,29.5,0.25,0,84
118,D-2,29.5,0.25,0,84
118,D2,29.5,0.25,0,84
118,E2,29.5,0.25,0,84
118,G-2,29.5,0.25,0,84
118,G2,29.5,0.25,0,84
118,A2,29.5,0.25,0,84
118,B2,29.5,0.25,0,84
118,D-3,29.5,0.25,0,84
118,D3,29.5,0.25,0,84
118,E3,29.5,0.25,0,84
118,G-3,29.5,0.25,0,84
118,G3,29.5,0.25,0,84
119,B0,29.75,0.25,0,84
119,D-1,29.75,0.25,0,84
119,D1,29.75,0.25,0,84
119,E1,29.75,0.25,0,84
119,G-1,29.75,0.25,0,84
119,G1,29.75,0.25,0,84
119,A1,29.75,0.25,0,84
119,B1,29.75,0.25,0,84
119,D-2,29.75,0.25,0,84
119,D2,29.75,0.25,0,84
119,E2,29.75,0.25,0,84
119,G-2,29.75,0.25,0,84
119,G2,29.75,0.25,0,84
119,A2,29.75,0.25,0,84
119,B2,29.75,0.25,0,84
119,D-3,29.75,0.25,0,84
119,D3,29.75,0.25,0,84
119,E3,29.75,0.25,0,84
119,G-3,29.75,0.25,0,84
119,G3,29.75,0.25,0,84
120,B0,30.0,0.25,0,84
120,D-1,30.0,0.25,0,84
120,D1,30.0,0.25,0,84
120,E1,30.0,0.25,0,84
120,G-1,30.0,0.25,0,84
120,G1,30.0,0.25,0,84
120,A1,30.0,0.25,0,84
120,B1,30.0,0.25,0,84
120,D-2,30.0,0.25,0,84
120,D2,30.0,0.25,0,84
120,E2,30.0,0.25,0,84
120,G-2,30.0,0.25,0,84
120,G2,30.0,0.25,0,84
120,A2,30.0,0.25,0,84
120,B2,30.0,0.25,0,84
120,D-3,30.0,0.25,0,84
120,D3,30.0,0.25,0,84
120,E3,30.0,0.25,0,84
120,G-3,30.0,0.25,0,84
120,G3,30.0,0.25,0,84
121,B0,30.25,0.25,0,84
121,D-1,30.25,0.25,0,84
121,D1,30.25,0.25,0,84
121,E1,30.25,0.25,0,84
121,G-1,30.25,0.25,0,84
121,G1,30.25,0.25,0,84
121,A1,30.25,0.25,0,84
121,B1,30.25,0.25,0,84
121,D-2,30.25,0.25,0,84
121,D2,30.25,0.25,0,84
121,E2,30.25,0.25,0,84
121,G-2,30.25,0.25,0,84
121,G2,30.25,0.25,0,84
121,A2,30.25,0.25,0,84
121,B2,30.25,0.25,0,84
121,D-3,30.25,0.25,0,84
121,D3,30.25,0.25,0,84
121,E3,30.25,0.25,0,84
121,G-3,30.25,0.25,0,84
121,G3,30.25,0.25,0,84
122,B0,30.5,0.25,0,84
122,D-1,30.5,0.25,0,84
122,D1,30.5,0.25,0,84
122,E1,30.5,0.25,0,84
122,G-1,30.5,0.25,0,84
122,G1,30.5,0.25,0,84
122,A1,30.5,0.25,0,84
122,B1,30.5,0.25,0,84
122,D-2,30.5,0.25,0,84
122,D2,30.5,0.25,0,84
122,E2,30.5,0.25,0,84
122,G-2,30.5,0.25,0,84
122,G2,30.5,0.25,0,84
122,A2,30.5,0.25,0,84
122,B2,30.5,0.25,0,84
122,D-3,30.5,0.25,0,84
122,D3,30.5,0.25,0,84
122,E3,30.5,0.25,0,84
122,G-3,30.5,0.25,0,84
122,G3,30.5,0.25,0,84
123,B0,30.75,0.25,0,84
123,D-1,30.75,0.25,0,84
123,D1,30.75,0.25,0,84
123,E1,30.75,0.25,0,84
123,G-1,30.75,0.25,0,84
123,G1,30.75,0.25,0,84
123,A1,30.75,0.25,0,84
123,B1,30.75,0.25,0,84
123,D-2,30.75,0.25,0,84
123,D2,30.75,0.25,0,84
123,E2,30.75,0.25,0,84
123,G-2,30.75,0.25,0,84
123,G2,30.75,0.25,0,84
123,A2,30.75,0.25,0,84
123,B2,30.75,0.25,0,84
123,D-3,30.75,0.25,0,84
123,D3,30.75,0.25,0,84
123,E3,30.75,0.25,0,84
123,G-3,30.75,0.25,0,84
123,G3,30.75,0.25,0,84
124,B0,31.0,0.25,0,84
124,D-1,31.0,0.25,0,84
124,D1,31.0,0.25,0,84
124,E1,31.0,0.25,0,84
124,G-1,31.0,0.25,0,84
124,G1,31.0,0.25,0,84
124,A1,31.0,0.25,0,84
124,B1,31.0,0.25,0,84
124,D-2,31.0,0.25,0,84
124,D2,31.0,0.25,0,84
124,E2,31.0,0.25,0,84
124,G-2,31.0,0.25,0,84
124,G2,31.0,0.25,0,84
124,A2,31.0,0.25,0,84
124,B2,31.0,0.25,0,84
124,D-3,31.0,0.25,0,84
124,D3,31.0,0.25,0,84
124,E3,31.0,0.25,0,84
124,G-3,31.0,0.25,0,84
124,G3,31.0,0.25,0,84
125,B0,31.25,0.25,0,84
125,D-1,31.25,0.25,0,84
125,D1,31.25,0.25,0,84
125,E1,31.25,0.25,0,84
125,G-1,31.25,0.25,0,84
125,G1,31.25,0.25,0,84
125,A1,31.25,0.25,0,84
125,B1,31.25,0.25,0,84
125,D-2,31.25,0.25,0,84
125,D2,31.25,0.25,0,84
125,E2,31.25,0.25,0,84
125,G-2,31.25,0.25,0,84
125,G2,31.25,0.25,0,84
125,A2,31.25,0.25,0,84
125,B2,31.25,0.25,0,84
125,D-3,31.25,0.25,0,84
125,D3,31.25,0.25,0,84
125,E3,31.25,0.25,0,84
125,G-3,31.25,0.25,0,84
125,G3,31.25,0.25,0,84
126,B0,31.5,0.25,0,84
126,D-1,31.5,0.25,0,84
126,D1,31.5,0.25,0,84
126,E1,31.5,0.25,0,84
126,G-1,31.5,0.25,0,84
126,G1,31.5,0.25,0,84
126,A1,31.5,0.25,0,84
126,B1,31.5,0.25,0,84
126,D-2,31.5,0.25,0,84
126,D2,31.5,0.25,0,84
126,E2,31.5,0.25,0,84
126,G-2,31.5,0.25,0,84
126,G2,31.5,0.25,0,84
126,A2,31.5,0.25,0,84
126,B2,31.5,0.25,0,84
126,D-3,31.5,0.25,0,84
126,D3,31.5,0.25,0,84
126,E3,31.5,0.25,0,84
126,G-3,31.5,0.25,0,84
126,G3,31.5,0.25,0,84
127,B0,31.75,0.25,0,84
127,D-1,31.75,0.25,0,84
127,D1,31.75,0.25,0,84
127,E1,31.75,0.25,0,84
127,G-1,31.75,0.25,0,84
127,G1,31.75,0.25,0,84
127,A1,31.75,0.25,0,84
127,B1,31.75,0.25,0,84
127,D-2,31.75,0.25,0,84
127,D2,31.75,0.25,0,84
127,E2,31.75,0.25,0,84
127,G-2,31.75,0.25,0,84
127,G2,31.75,0.25,0,84
127,A2,31.75,0.25,0,84
127,B2,31.75,0.25,0,84
127,D-3,31.75,0.25,0,84
127,D3,31.75,0.25,0,84
127,E3,31.75,0.25,0,84
127,G-3,31.75,0.25,0,84
127,G3,31.75,0.25,0,84
128,B0,32.0,0.25,0,84
128,D-1,32.0,0.25,0,84
128,D1,32.0,0.25,0,84
128,E1,32.0,0.25,0,84
128,G-1,32.0,0.25,0,84
128,G1,32.0,0.25,0,84
128,A1,32.0,0.25,0,84
128,B1,32.0,0.25,0,84
128,D-2,32.0,0.25,0,84
128,D2,32.0,0.25,0,84
128,E2,32.0,0.25,0,84
128,G-2,32.0,0.25,0,84
128,G2,32.0,0.25,0,84
128,A2,32.0,0.25,0,84
128,B2,32.0,0.25,0,84
128,D-3,32.0,0.25,0,84
128,D3,32.0,0.25,0,84
128,E3,32.0,0.25,0,84
128,G-3,32.0,0.25,0,84
128,G3,32.0,0.25,0,84
129,B0,32.25,0.25,0,84
129,D-1,32.25,0.25,0,84
129,D1,32.25,0.25,0,84
129,E1,32.25,0.25,0,84
129,G-1,32.25,0.25,0,84
129,G1,32.25,0.25,0,84
129,A1,32.25,0.25,0,84
129,B1,32.25,0.25,0,84
129,D-2,32.25,0.25,0,84
129,D2,32.25,0.25,0,84
129,E2,32.25,0.25,0,84
129,G-2,32.25,0.25,0,84
129,G2,32.25,0.25,0,84
129,A2,32.25,0.25,0,84
129,B2,32.25,0.25,0,84
129,D-3,32.25,0.25,0,84
129,D3,32.25,0.25,0,84
129,E3,32.25,0.25,0,84
129,G-3,32.25,0.25,0,84
129,G3,32.25,0.25,0,84
130,B0,32.5,0.25,0,84
130,D-1,32.5,0.25,0,84
130,D1,32.5,0.25,0,84
130,E1,32.5,0.25,0,84
130,G-1,32.5,0.25,0,84
130,G1,32.5,0.25,0,84
130,A1,32.5,0.25,0,84
130,B1,32.5,0.25,0,84
130,D-2,32.5,0.25,0,84
130,D2,32.5,0.25,0,84
130,E2,32.5,0.25,0,84
130,G-2,32.5,0.25,0,84
130,G2,32.5,0.25,0,84
130,A2,32.5,0.25,0,84
130,B2,32.5,0.25,0,84
130,D-3,32.5,0.25,0,84
130,D3,32.5,0.25,0,84
130,E3,32.5,0.25,0,84
130,G-3,32.5,0.25,0,84
130,G3,32.5,0.25,0,84
131,B0,32.75,0.25,0,84
131,D-1,32.75,0.25,0,84
131,D1,32.75,0.25,0,84
131,E1,32.75,0.25,0,84
131,G-1,32.75,0.25,0,84
131,G1,32.75,0.25,0,84
131,A1,32.75,0.25,0,84
131,B1,32.75,0.25,0,84
131,D-2,32.75,0.25,0,84
131,D2,32.75,0.25,0,84
131,E2,32.75,0.25,0,84
131,G-2,32.75,0.25,0,84
131,G2,32.75,0.25,0,84
131,A2,32.75,0.25,0,84
131,B2,32.75,0.25,0,84
131,D-3,32.75,0.25,0,84
131,D3,32.75,0.25,0,84
131,E3,32.75,0.25,0,84
131,G-3,32.75,0.25,0,84
131,G3,32.75,0.25,0,84
132,B0,33.0,0.25,0,84
132,D-1,33.0,0.25,0,84
132,D1,33.0,0.25,0,84
132,E1,33.0,0.25,0,84
132,G-1,33.0,0.25,0,84
132,G1,33.0,0.25,0,84
132,A1,33.0,0.25,0,84
132,B1,33.0,0.25,0,84
132,D-2,33.0,0.25,0,84
132,D2,33.0,0.25,0,84
132,E2,33.0,0.25,0,84
132,G-2,33.0,0.25,0,84
132,G2,33.0,0.25,0,84
132,A2,33.0,0.25,0,84
132,B2,33.0,0.25,0,84
132,D-3,33.0,0.25,0,84
132,D3,33.0,0.25,0,84
132,E3,33.0,0.25,0,84
132,G-3,33.0,0.25,0,84
132,G3,33.0,0.25,0,84
133,B0,33.25,0.25,0,84
133,D-1,33.25,0.25,0,84
133,D1,33.25,0.25,0,84
133,E1,33.25,0.25,0,84
133,G-1,33.25,0.25,0,84
133,G1,33.25,0.25,0,84
133,A1,33.25,0.25,0,84
133,B1,33.25,0.25,0,84
133,D-2,33.25,0.25,0,84
133,D2,33.25,0.25,0,84
133,E2,33.25,0.25,0,84
133,G-2,33.25,0.25,0,84
133,G2,33.25,0.25,0,84
133,A2,33.25,0.25,0,84
133,B2,33.25,0.25,0,84
133,D-3,33.25,0.25,0,84
133,D3,33.25,0.25,0,84
133,E3,33.25,0.25,0,84
133,G-3,33.25,0.25,0,84
133,G3,33.25,0.25,0,84
134,B0,33.5,0.25,0,84
134,D-1,33.5,0.25,0,84
134,D1,33.5,0.25,0,84
134,E1,33.5,0.25,0,84
134,G-1,33.5,0.25,0,84
134,G1,33.5,0.25,0,84
134,A1,33.5,0.25,0,84
134,B1,33.5,0.25,0,84
134,D-2,33.5,0.25,0,84
134,D2,33.5,0.25,0,84
134,E2,33.5,0.25,0,84
134,G-2,33.5,0.25,0,84
134,G2,33.5,0.25,0,84
134,A2,33.5,0.25,0,84
134,B2,33.5,0.25,0,84
134,D-3,33.5,0.25,0,84
134,D3,33.5,0.25,0,84
134,E3,33.5,0.25,0,84
134,G-3,33.5,0.25,0,84
134,G3,33.5,0.25,0,84
135,B0,33.75,0.25,0,84
135,D-1,33.75,0.25,0,84
135,D1,33.75,0.25,0,84
135,E1,33.75,0.25,0,84
135,G-1,33.75,0.25,0,84
135,G1,33.75,0.25,0,84
135,A1,33.75,0.25,0,84
135,B1,33.75,0.25,0,84
135,D-2,33.75,0.25,0,84
135,D2,33.75,0.25,0,84
135,E2,33.75,0.25,0,84
135,G-2,33.75,0.25,0,84
135,G2,33.75,0.25,0,84
135,A2,33.75,0.25,0,84
135,B2,33.75,0.25,0,84
135,D-3,33.75,0.25,0,84
135,D3,33.75,0.25,0,84
135,E3,33.75,0.25,0,84
135,G-3,33.75,0.25,0,84
135,G3,33.75,0.25,0,84
136,B0,34.0,0.25,0,84
136,D-1,34.0,0.25,0,84
136,D1,34.0,0.25,0,84
136,E1,34.0,0.25,0,84
136,G-1,34.0,0.25,0,84
136,G1,34.0,0.25,0,84
136,A1,34.0,0.25,0,84
136,B1,34.0,0.25,0,84
136,D-2,34.0,0.25,0,84
136,D2,34.0,0.25,0,84
136,E2,34.0,0.25,0,84
136,G-2,34.0,0.25,0,84
136,G2,34.0,0.25,0,84
136,A2,34.0,0.25,0,84
136,B2,34.0,0.25,0,84
136,D-3,34.0,0.25,0,84
136,D3,34.0,0.25,0,84
136,E3,34.0,0.25,0,84
136,G-3,34.0,0.25,0,84
136,G3,34.0,0.25,0,84
137,B0,34.25,0.25,0,84
137,D-1,34.25,0.25,0,84
137,D1,34.25,0.25,0,84
137,E1,34.25,0.25,0,84
137,G-1,34.25,0.25,0,84
137,G1,34.25,0.25,0,84
137,A1,34.25,0.25,0,84
137,B1,34.25,0.25,0,84
137,D-2,34.25,0.25,0,84
137,D2,34.25,0.25,0,84
137,E2,34.25,0.25,0,84
137,G-2,34.25,0.25,0,84
137,G2,34.25,0.25,0,84
137,A2,34.25,0.25,0,84
137,B2,34.25,0.25,0,84
137,D-3,34.25,0.25,0,84
137,D3,34.25,0.25,0,84
137,E3,34.25,0.25,0,84
137,G-3,34.25,0.25,0,84
137,G3,34.25,0.25,0,84
138,B0,34.5,0.25,0,84
138,D-1,34.5,0.25,0,84
138,D1,34.5,0.25,0,84
138,E1,34.5,0.25,0,84
138,G-1,34.5,0.25,0,84
138,G1,34.5,0.25,0,84
138,A1,34.5,0.25,0,84
138,B1,34.5,0.25,0,84
138,D-2,34.5,0.25,0,84
138,D2,34.5,0.25,0,84
138,E2,34.5,0.25,0,84
138,G-2,34.5,0.25,0,84
138,G2,34.5,0.25,0,84
138,A2,34.5,0.25,0,84
138,B2,34.5,0.25,0,84
138,D-3,34.5,0.25,0,84
138,D3,34.5,0.25,0,84
138,E3,34.5,0.25,0,84
138,G-3,34.5,0.25,0,84
138,G3,34.5,0.25,0,84
139,B0,34.75,0.25,0,84
139,D-1,34.75,0.25,0,84
139,D1,34.75,0.25,0,84
139,E1,34.75,0.25,0,84
139,G-1,34.75,0.25,0,84
139,G1,34.75,0.25,0,84
139,A1,34.75,0.25,0,84
139,B1,34.75,0.25,0,84
139,D-2,34.75,0.25,0,84
139,D2,34.75,0.25,0,84
139,E2,34.75,0.25,0,84
139,G-2,34.75,0.25,0,84
139,G2,34.75,0.25,0,84
139,A2,34.75,0.25,0,84
139,B2,34.75,0.25,0,84
139,D-3,34.75,0.25,0,84
139,D3,34.75,0.25,0,84
139,E3,34.75,0.25,0,84
139,G-3,34.75,0.25,0,84
139,G3,34.75,0.25,0,84
140,B0,35.0,0.25,0,84
140,D-1,35.0,0.25,0,84
140,D1,35.0,0.25,0,84
140,E1,35.0,0.25,0,84
140,G-1,35.0,0.25,0,84
140,G1,35.0,0.25,0,84
140,A1,35.0,0.25,0,84
140,B1,35.0,0.25,0,84
140,D-2,35.0,0.25,0,84
140,D2,35.0,0.25,0,84
140,E2,35.0,0.25,0,84
140,G-2,35.0,0.25,0,84
140,G2,35.0,0.25,0,84
140,A2,35.0,0.25,0,84
140,B2,35.0,0.25,0,84
140,D-3,35.0,0.25,0,84
140,D3,35.0,0.25,0,84
140,E3,35.0,0.25,0,84
140,G-3,35.0,0.25,0,84
140,G3,35.0,0.25,0,84
141,B0,35.25,0.25,0,84
141,D-1,35.25,0.25,0,84
141,D1,35.25,0.25,0,84
141,E1,35.25,0.25,0,84
141,G-1,35.25,0.25,0,84
141,G1,35.25,0.25,0,84
141,A1,35.25,0.25,0,84
141,B1,35.25,0.25,0,84
141,D-2,35.25,0.25,0,84
141,D2,35.25,0.25,0,84
141,E2,35.25,0.25,0,84
141,G-2,35.25,0.25,0,84
141,G2,35.25,0.25,0,84
141,A2,35.25,0.25,0,84
141,B2,35.25,0.25,0,84
141,D-3,35.25,0.25,0,84
141,D3,35.25,0.25,0,84
141,E3,35.25,0.25,0,84
141,G-3,35.25,0.25,0,84
141,G3,35.25,0.25,0,84
142,B0,35.5,0.25,0,84
142,D-1,35.5,0.25,0,84
142,D1,35.5,0.25,0,84
142,E1,35.5,0.25,0,84
142,G-1,35.5,0.25,0,84
142,G1,35.5,0.25,0,84
142,A1,35.5,0.25,0,84
142,B1,35.5,0.25,0,84
142,D-2,35.5,0.25,0,84
142,D2,35.5,0.25,0,84
142,E2,35.5,0.25,0,84
142,G-2,35.5,0.25,0,84
142,G2,35.5,0.25,0,84
142,A2,35.5,0.25,0,84
142,B2,35.5,0.25,0,84
142,D-3,35.5,0.25,0,84
142,D3,35.5,0.25,0,84
142,E3,35.5,0.25,0,84
142,G-3,35.5,0.25,0,84
142,G3,35.5,0.25,0,84
143,B0,35.75,0.25,0,84
143,D-1,35.75,0.25,0,84
143,D1,35.75,0.25,0,84
143,E1,35.75,0.25,0,84
143,G-1,35.75,0.25,0,84
143,G1,35.75,0.25,0,84
143,A1,35.75,0.25,0,84
143,B1,35.75,0.25,0,84
143,D-2,35.75,0.25,0,84
143,D2,35.75,0.25,0,84
143,E2,35.75,0.25,0,84
143,G-2,35.75,0.25,0,84
143,G2,35.75,0.25,0,84
143,A2,35.75,0.25,0,84
143,B2,35.75,0.25,0,84
143,D-3,35.75,0.25,0,84
143,D3,35.75,0.25,0,84
143,E3,35.75,0.25,0,84
143,G-3,35.75,0.25,0,84
143,G3,35.75,0.25,0,84
144,B0,36.0,0.25,0,84
144,D-1,36.0,0.25,0,84
144,D1,36.0,0.25,0,84
144,E1,36.0,0.25,0,84
144,G-1,36.0,0.25,0,84
144,G1,36.0,0.25,0,84
144,A1,36.0,0.25,0,84
144,B1,36.0,0.25,0,84
144,D-2,36.0,0.25,0,84
144,D2,36.0,0.25,0,84
144,E2,36.0,0.25,0,84
144,G-2,36.0,0.25,0,84
144,G2,36.0,0.25,0,84
144,A2,36.0,0.25,0,84
144,B2,36.0,0.25,0,84
144,D-3,36.0,0.25,0,84
144,D3,36.0,0.25,0,84
144,E3,36.0,0.25,0,84
144,G-3,36.0,0.25,0,84
144,G3,36.0,0.25,0,84
145,B0,36.25,0.25,0,84
145,D-1,36.25,0.25,0,84
145,D1,36.25,0.25,0,84
145,E1,36.25,0.25,0,84
145,G-1,36.25,0.25,0,84
145,G1,36.25,0.25,0,84
145,A1,36.25,0.25,0,84
145,B1,36.25,0.25,0,84
145,D-2,36.25,0.25,0,84
145,D2,36.25,0.25,0,84
145,E2,36.25,0.25,0,84
145,G-2,36.25,0.25,0,84
145,G2,36.25,0.25,0,84
145,A2,36.25,0.25,0,84
145,B2,36.25,0.25,0,84
145,D-3,36.25,0.25,0,84
145,D3,36.25,0.25,0,84
145,E3,36.25,0.25,0,84
145,G-3,36.25,0.25,0,84
145,G3,36.25,0.25,0,84
146,B0,36.5,0.25,0,84
146,D-1,36.5,0.25,0,84
146,D1,36.5,0.25,0,84
146,E1,36.5,0.25,0,84
146,G-1,36.5,0.25,0,84
146,G1,36.5,0.25,0,84
146,A1,36.5,0.25,0,84
146,B1,36.5,0.25,0,84
146,D-2,36.5,0.25,0,84
146,D2,36.5,0.25,0,84
146,E2,36.5,0.25,0,84
146,G-2,36.5,0.25,0,84
146,G2,36.5,0.25,0,84
146,A2,36.5,0.25,0,84
146,B2,36.5,0.25,0,84
146,D-3,36.5,0.25,0,84
146,D3,36.5,0.25,0,84
146,E3,36.5,0.25,0,84
146,G-3,36.5,0.25,0,84
146,G3,36.5,0.25,0,84
147,B0,36.75,0.25,0,84
147,D-1,36.75,0.25,0,84
147,D1,36.75,0.25,0,84
147,E1,36.75,0.25,0,84
147,G-1,36.75,0.25,0,84
147,G1,36.75,0.25,0,84
147,A1,36.75,0.25,0,84
147,B1,36.75,0.25,0,84
147,D-2,36.75,0.25,0,84
147,D2,36.75,0.25,0,84
147,E2,36.75,0.25,0,84
147,G-2,36.75,0.25,0,84
147,G2,36.75,0.25,0,84
147,A2,36.75,0.25,0,84
147,B2,36.75,0.25,0,84
147,D-3,36.75,0.25,0,84
147,D3,36.75,0.25,0,84
147,E3,36.75,0.25,0,84
147,G-3,36.75,0.25,0,84
147,G3,36.75,0.25,0,84
148,B0,37.0,0.25,0,84
148,D-1,37.0,0.25,0,84
148,D1,37.0,0.25,0,84
148,E1,37.0,0.25,0,84
148,G-1,37.0,0.25,0,84
148,G1,37.0,0.25,0,84
148,A1,37.0,0.25,0,84
148,B1,37.0,0.25,0,84
148,D-2,37.0,0.25,0,84
148,D2,37.0,0.25,0,84
148,E2,37.0,0.25,0,84
148,G-2,37.0,0.25,0,84
148,G2,37.0,0.25,0,84
148,A2,37.0,0.25,0,84
148,B2,37.0,0.25,0,84
148,D-3,37.0,0.25,0,84
148,D3,37.0,0.25,0,84
148,E3,37.0,0.25,0,84
148,G-3,37.0,0.25,0,84
148,G3,37.0,0.25,0,84
149,B0,37.25,0.25,0,84
149,D-1,37.25,0.25,0,84
149,D1,37.25,0.25,0,84
149,E1,37.25,0.25,0,84
149,G-1,37.25,0.25,0,84
149,G1,37.25,0.25,0,84
149,A1,37.25,0.25,0,84
149,B1,37.25,0.25,0,84
149,D-2,37.25,0.25,0,84
149,D2,37.25,0.25,0,84
149,E2,37.25,0.25,0,84
149,G-2,37.25,0.25,0,84
149,G2,37.25,0.25,0,84
149,A2,37.25,0.25,0,84
149,B2,37.25,0.25,0,84
149,D-3,37.25,0.25,0,84
149,D3,37.25,0.25,0,84
149,E3,37.25,0.25,0,84
149,G-3,37.25,0.25,0,84
149,G3,37.25,0.25,0,84
150,B0,37.5,0.25,0,84
150,D-1,37.5,0.25,0,84
150,D1,37.5,0.25,0,84
150,E1,37.5,0.25,0,84
150,G-1,37.5,0.25,0,84
150,G1,37.5,0.25,0,84
150,A1,37.5,0.25,0,84
150,B1,37.5,0.25,0,84
150,D-2,37.5,0.25,0,84
150,D2,37.5,0.25,0,84
150,E2,37.5,0.25,0,84
150,G-2,37.5,0.25,0,84
150,G2,37.5,0.25,0,84
150,A2,37.5,0.25,0,84
150,B2,37.5,0.25,0,84
150,D-3,37.5,0.25,0,84
150,D3,37.5,0.25,0,84
150,E3,37.5,0.25,0,84
150,G-3,37.5,0.25,0,84
150,G3,37.5,0.25,0,84
151,B0,37.75,0.25,0,84
151,D-1,37.75,0.25,0,84
151,D1,37.75,0.25,0,84
151,E1,37.75,0.25,0,84
151,G-1,37.75,0.25,0,84
151,G1,37.75,0.25,0,84
151,A1,37.75,0.25,0,84
151,B1,37.75,0.25,0,84
151,D-2,37.75,0.25,0,84
151,D2,37.75,0.25,0,84
151,E2,37.75,0.25,0,84
151,G-2,37.75,0.25,0,84
151,G2,37.75,0.25,0,84
151,A2,37.75,0.25,0,84
151,B2,37.75,0.25,0,84
151,D-3,37.75,0.25,0,84
151,D3,37.75,0.25,0,84
151,E3,37.75,0.25,0,84
151,G-3,37.75,0.25,0,84
151,G3,37.75,0.25,0,84
