index,note_name,start_time,duration,velocity,tempo
0,A3,0.0,0.25,0,84
0,B3,0.0,0.25,0,84
0,D-4,0.0,0.25,0,84
0,D4,0.0,0.25,0,84
0,E4,0.0,0.25,0,84
0,G-4,0.0,0.25,0,84
0,G4,0.0,0.25,0,84
0,A4,0.0,0.25,0,84
0,B4,0.0,0.25,0,84
0,D-5,0.0,0.25,0,84
0,D5,0.0,0.25,0,84
0,E5,0.0,0.25,0,84
0,G-5,0.0,0.25,0,84
0,G5,0.0,0.25,0,84
0,A5,0.0,0.25,0,84
0,B5,0.0,0.25,0,84
0,D-6,0.0,0.25,0,84
0,D6,0.0,0.25,0,84
0,E6,0.0,0.25,0,84
0,G-6,0.0,0.25,0,84
0,G6,0.0,0.25,0,84
0,A6,0.0,0.25,0,84
0,B6,0.0,0.25,0,84
0,D-7,0.0,0.25,0,84
1,A3,0.25,0.25,0,84
1,B3,0.25,0.25,0,84
1,D-4,0.25,0.25,0,84
1,D4,0.25,0.25,0,84
1,E4,0.25,0.25,0,84
1,G-4,0.25,0.25,0,84
1,G4,0.25,0.25,0,84
1,A4,0.25,0.25,0,84
1,B4,0.25,0.25,0,84
1,D-5,0.25,0.25,0,84
1,D5,0.25,0.25,0,84
1,E5,0.25,0.25,0,84
1,G-5,0.25,0.25,0,84
1,G5,0.25,0.25,0,84
1,A5,0.25,0.25,0,84
1,B5,0.25,0.25,0,84
1,D-6,0.25,0.25,0,84
1,D6,0.25,0.25,0,84
1,E6,0.25,0.25,0,84
1,G-6,0.25,0.25,0,84
1,G6,0.25,0.25,0,84
1,A6,0.25,0.25,0,84
1,B6,0.25,0.25,0,84
1,D-7,0.25,0.25,0,84
2,A3,0.5,0.25,0,84
2,B3,0.5,0.25,0,84
2,D-4,0.5,0.25,0,84
2,D4,0.5,0.25,0,84
2,E4,0.5,0.25,0,84
2,G-4,0.5,0.25,0,84
2,G4,0.5,0.25,0,84
2,A4,0.5,0.25,0,84
2,B4,0.5,0.25,0,84
2,D-5,0.5,0.25,0,84
2,D5,0.5,0.25,0,84
2,E5,0.5,0.25,0,84
2,G-5,0.5,0.25,0,84
2,G5,0.5,0.25,0,84
2,A5,0.5,0.25,0,84
2,B5,0.5,0.25,0,84
2,D-6,0.5,0.25,0,84
2,D6,0.5,0.25,0,84
2,E6,0.5,0.25,0,84
2,G-6,0.5,0.25,0,84
2,G6,0.5,0.25,0,84
2,A6,0.5,0.25,0,84
2,B6,0.5,0.25,0,84
2,D-7,0.5,0.25,0,84
3,A3,0.75,0.25,0,84
3,B3,0.75,0.25,0,84
3,D-4,0.75,0.25,0,84
3,D4,0.75,0.25,0,84
3,E4,0.75,0.25,0,84
3,G-4,0.75,0.25,0,84
3,G4,0.75,0.25,0,84
3,A4,0.75,0.25,0,84
3,B4,0.75,0.25,0,84
3,D-5,0.75,0.25,0,84
3,D5,0.75,0.25,0,84
3,E5,0.75,0.25,0,84
3,G-5,0.75,0.25,0,84
3,G5,0.75,0.25,0,84
3,A5,0.75,0.25,0,84
3,B5,0.75,0.25,0,84
3,D-6,0.75,0.25,0,84
3,D6,0.75,0.25,0,84
3,E6,0.75,0.25,0,84
3,G-6,0.75,0.25,0,84
3,G6,0.75,0.25,0,84
3,A6,0.75,0.25,0,84
3,B6,0.75,0.25,0,84
3,D-7,0.75,0.25,0,84
4,A3,1.0,0.25,0,84
4,B3,1.0,0.25,0,84
4,D-4,1.0,0.25,0,84
4,D4,1.0,0.25,0,84
4,E4,1.0,0.25,0,84
4,G-4,1.0,0.25,0,84
4,G4,1.0,0.25,0,84
4,A4,1.0,0.25,0,84
4,B4,1.0,0.25,0,84
4,D-5,1.0,0.25,0,84
4,D5,1.0,0.25,0,84
4,E5,1.0,0.25,0,84
4,G-5,1.0,0.25,0,84
4,G5,1.0,0.25,0,84
4,A5,1.0,0.25,0,84
4,B5,1.0,0.25,0,84
4,D-6,1.0,0.25,0,84
4,D6,1.0,0.25,0,84
4,E6,1.0,0.25,0,84
4,G-6,1.0,0.25,0,84
4,G6,1.0,0.25,0,84
4,A6,1.0,0.25,0,84
4,B6,1.0,0.25,0,84
4,D-7,1.0,0.25,0,84
5,A3,1.25,0.25,0,84
5,B3,1.25,0.25,0,84
5,D-4,1.25,0.25,0,84
5,D4,1.25,0.25,0,84
5,E4,1.25,0.25,0,84
5,G-4,1.25,0.25,0,84
5,G4,1.25,0.25,0,84
5,A4,1.25,0.25,0,84
5,B4,1.25,0.25,0,84
5,D-5,1.25,0.25,0,84
5,D5,1.25,0.25,0,84
5,E5,1.25,0.25,0,84
5,G-5,1.25,0.25,0,84
5,G5,1.25,0.25,0,84
5,A5,1.25,0.25,0,84
5,B5,1.25,0.25,0,84
5,D-6,1.25,0.25,0,84
5,D6,1.25,0.25,0,84
5,E6,1.25,0.25,0,84
5,G-6,1.25,0.25,0,84
5,G6,1.25,0.25,0,84
5,A6,1.25,0.25,0,84
5,B6,1.25,0.25,0,84
5,D-7,1.25,0.25,0,84
6,A3,1.5,0.25,0,84
6,B3,1.5,0.25,0,84
6,D-4,1.5,0.25,0,84
6,D4,1.5,0.25,0,84
6,E4,1.5,0.25,0,84
6,G-4,1.5,0.25,0,84
6,G4,1.5,0.25,0,84
6,A4,1.5,0.25,0,84
6,B4,1.5,0.25,0,84
6,D-5,1.5,0.25,0,84
6,D5,1.5,0.25,0,84
6,E5,1.5,0.25,0,84
6,G-5,1.5,0.25,0,84
6,G5,1.5,0.25,0,84
6,A5,1.5,0.25,0,84
6,B5,1.5,0.25,0,84
6,D-6,1.5,0.25,0,84
6,D6,1.5,0.25,0,84
6,E6,1.5,0.25,0,84
6,G-6,1.5,0.25,0,84
6,G6,1.5,0.25,0,84
6,A6,1.5,0.25,0,84
6,B6,1.5,0.25,0,84
6,D-7,1.5,0.25,0,84
7,A3,1.75,0.25,0,84
7,B3,1.75,0.25,0,84
7,D-4,1.75,0.25,0,84
7,D4,1.75,0.25,0,84
7,E4,1.75,0.25,0,84
7,G-4,1.75,0.25,0,84
7,G4,1.75,0.25,0,84
7,A4,1.75,0.25,0,84
7,B4,1.75,0.25,0,84
7,D-5,1.75,0.25,0,84
7,D5,1.75,0.25,0,84
7,E5,1.75,0.25,0,84
7,G-5,1.75,0.25,0,84
7,G5,1.75,0.25,0,84
7,A5,1.75,0.25,0,84
7,B5,1.75,0.25,0,84
7,D-6,1.75,0.25,0,84
7,D6,1.75,0.25,0,84
7,E6,1.75,0.25,0,84
7,G-6,1.75,0.25,0,84
7,G6,1.75,0.25,0,84
7,A6,1.75,0.25,0,84
7,B6,1.75,0.25,0,84
7,D-7,1.75,0.25,0,84
8,A3,2.0,0.25,0,84
8,B3,2.0,0.25,0,84
8,D-4,2.0,0.25,0,84
8,D4,2.0,0.25,0,84
8,E4,2.0,0.25,0,84
8,G-4,2.0,0.25,0,84
8,G4,2.0,0.25,0,84
8,A4,2.0,0.25,0,84
8,B4,2.0,0.25,0,84
8,D-5,2.0,0.25,0,84
8,D5,2.0,0.25,0,84
8,E5,2.0,0.25,0,84
8,G-5,2.0,0.25,0,84
8,G5,2.0,0.25,0,84
8,A5,2.0,0.25,0,84
8,B5,2.0,0.25,0,84
8,D-6,2.0,0.25,0,84
8,D6,2.0,0.25,0,84
8,E6,2.0,0.25,0,84
8,G-6,2.0,0.25,0,84
8,G6,2.0,0.25,0,84
8,A6,2.0,0.25,0,84
8,B6,2.0,0.25,0,84
8,D-7,2.0,0.25,0,84
9,A3,2.25,0.25,0,84
9,B3,2.25,0.25,0,84
9,D-4,2.25,0.25,0,84
9,D4,2.25,0.25,0,84
9,E4,2.25,0.25,0,84
9,G-4,2.25,0.25,0,84
9,G4,2.25,0.25,0,84
9,A4,2.25,0.25,0,84
9,B4,2.25,0.25,0,84
9,D-5,2.25,0.25,0,84
9,D5,2.25,0.25,0,84
9,E5,2.25,0.25,0,84
9,G-5,2.25,0.25,0,84
9,G5,2.25,0.25,0,84
9,A5,2.25,0.25,0,84
9,B5,2.25,0.25,0,84
9,D-6,2.25,0.25,0,84
9,D6,2.25,0.25,0,84
9,E6,2.25,0.25,0,84
9,G-6,2.25,0.25,0,84
9,G6,2.25,0.25,0,84
9,A6,2.25,0.25,0,84
9,B6,2.25,0.25,0,84
9,D-7,2.25,0.25,0,84
10,A3,2.5,0.25,0,84
10,B3,2.5,0.25,0,84
10,D-4,2.5,0.25,0,84
10,D4,2.5,0.25,0,84
10,E4,2.5,0.25,0,84
10,G-4,2.5,0.25,0,84
10,G4,2.5,0.25,0,84
10,A4,2.5,0.25,0,84
10,B4,2.5,0.25,0,84
10,D-5,2.5,0.25,0,84
10,D5,2.5,0.25,0,84
10,E5,2.5,0.25,0,84
10,G-5,2.5,0.25,0,84
10,G5,2.5,0.25,0,84
10,A5,2.5,0.25,0,84
10,B5,2.5,0.25,0,84
10,D-6,2.5,0.25,0,84
10,D6,2.5,0.25,0,84
10,E6,2.5,0.25,0,84
10,G-6,2.5,0.25,0,84
10,G6,2.5,0.25,0,84
10,A6,2.5,0.25,0,84
10,B6,2.5,0.25,0,84
10,D-7,2.5,0.25,0,84
11,A3,2.75,0.25,0,84
11,B3,2.75,0.25,0,84
11,D-4,2.75,0.25,0,84
11,D4,2.75,0.25,0,84
11,E4,2.75,0.25,0,84
11,G-4,2.75,0.25,0,84
11,G4,2.75,0.25,0,84
11,A4,2.75,0.25,0,84
11,B4,2.75,0.25,0,84
11,D-5,2.75,0.25,0,84
11,D5,2.75,0.25,0,84
11,E5,2.75,0.25,0,84
11,G-5,2.75,0.25,0,84
11,G5,2.75,0.25,0,84
11,A5,2.75,0.25,0,84
11,B5,2.75,0.25,0,84
11,D-6,2.75,0.25,0,84
11,D6,2.75,0.25,0,84
11,E6,2.75,0.25,0,84
11,G-6,2.75,0.25,0,84
11,G6,2.75,0.25,0,84
11,A6,2.75,0.25,0,84
11,B6,2.75,0.25,0,84
11,D-7,2.75,0.25,0,84
12,A3,3.0,0.25,0,84
12,B3,3.0,0.25,0,84
12,D-4,3.0,0.25,0,84
12,D4,3.0,0.25,0,84
12,E4,3.0,0.25,0,84
12,G-4,3.0,0.25,0,84
12,G4,3.0,0.25,0,84
12,A4,3.0,0.25,0,84
12,B4,3.0,0.25,0,84
12,D-5,3.0,0.25,0,84
12,D5,3.0,0.25,0,84
12,E5,3.0,0.25,0,84
12,G-5,3.0,0.25,0,84
12,G5,3.0,0.25,0,84
12,A5,3.0,0.25,0,84
12,B5,3.0,0.25,0,84
12,D-6,3.0,0.25,0,84
12,D6,3.0,0.25,0,84
12,E6,3.0,0.25,0,84
12,G-6,3.0,0.25,0,84
12,G6,3.0,0.25,0,84
12,A6,3.0,0.25,0,84
12,B6,3.0,0.25,0,84
12,D-7,3.0,0.25,0,84
13,A3,3.25,0.25,0,84
13,B3,3.25,0.25,0,84
13,D-4,3.25,0.25,0,84
13,D4,3.25,0.25,0,84
13,E4,3.25,0.25,0,84
13,G-4,3.25,0.25,0,84
13,G4,3.25,0.25,0,84
13,A4,3.25,0.25,0,84
13,B4,3.25,0.25,0,84
13,D-5,3.25,0.25,0,84
13,D5,3.25,0.25,0,84
13,E5,3.25,0.25,0,84
13,G-5,3.25,0.25,0,84
13,G5,3.25,0.25,0,84
13,A5,3.25,0.25,0,84
13,B5,3.25,0.25,0,84
13,D-6,3.25,0.25,0,84
13,D6,3.25,0.25,0,84
13,E6,3.25,0.25,0,84
13,G-6,3.25,0.25,0,84
13,G6,3.25,0.25,0,84
13,A6,3.25,0.25,0,84
13,B6,3.25,0.25,0,84
13,D-7,3.25,0.25,0,84
14,A3,3.5,0.25,0,84
14,B3,3.5,0.25,0,84
14,D-4,3.5,0.25,0,84
14,D4,3.5,0.25,0,84
14,E4,3.5,0.25,0,84
14,G-4,3.5,0.25,0,84
14,G4,3.5,0.25,0,84
14,A4,3.5,0.25,0,84
14,B4,3.5,0.25,0,84
14,D-5,3.5,0.25,0,84
14,D5,3.5,0.25,0,84
14,E5,3.5,0.25,0,84
14,G-5,3.5,0.25,0,84
14,G5,3.5,0.25,0,84
14,A5,3.5,0.25,0,84
14,B5,3.5,0.25,0,84
14,D-6,3.5,0.25,0,84
14,D6,3.5,0.25,0,84
14,E6,3.5,0.25,0,84
14,G-6,3.5,0.25,0,84
14,G6,3.5,0.25,0,84
14,A6,3.5,0.25,0,84
14,B6,3.5,0.25,0,84
14,D-7,3.5,0.25,0,84
15,A3,3.75,0.25,0,84
15,B3,3.75,0.25,0,84
15,D-4,3.75,0.25,0,84
15,D4,3.75,0.25,0,84
15,E4,3.75,0.25,0,84
15,G-4,3.75,0.25,0,84
15,G4,3.75,0.25,0,84
15,A4,3.75,0.25,0,84
15,B4,3.75,0.25,0,84
15,D-5,3.75,0.25,0,84
15,D5,3.75,0.25,0,84
15,E5,3.75,0.25,0,84
15,G-5,3.75,0.25,0,84
15,G5,3.75,0.25,0,84
15,A5,3.75,0.25,0,84
15,B5,3.75,0.25,0,84
15,D-6,3.75,0.25,0,84
15,D6,3.75,0.25,0,84
15,E6,3.75,0.25,0,84
15,G-6,3.75,0.25,0,84
15,G6,3.75,0.25,0,84
15,A6,3.75,0.25,0,84
15,B6,3.75,0.25,0,84
15,D-7,3.75,0.25,0,84
16,A3,4.0,0.25,0,84
16,B3,4.0,0.25,0,84
16,D-4,4.0,0.25,0,84
16,D4,4.0,0.25,0,84
16,E4,4.0,0.25,0,84
16,G-4,4.0,0.25,0,84
16,G4,4.0,0.25,0,84
16,A4,4.0,0.25,0,84
16,B4,4.0,0.25,0,84
16,D-5,4.0,0.25,0,84
16,D5,4.0,0.25,0,84
16,E5,4.0,0.25,0,84
16,G-5,4.0,0.25,0,84
16,G5,4.0,0.25,0,84
16,A5,4.0,0.25,0,84
16,B5,4.0,0.25,0,84
16,D-6,4.0,0.25,0,84
16,D6,4.0,0.25,0,84
16,E6,4.0,0.25,0,84
16,G-6,4.0,0.25,0,84
16,G6,4.0,0.25,0,84
16,A6,4.0,0.25,0,84
16,B6,4.0,0.25,0,84
16,D-7,4.0,0.25,0,84
17,A3,4.25,0.25,0,84
17,B3,4.25,0.25,0,84
17,D-4,4.25,0.25,0,84
17,D4,4.25,0.25,0,84
17,E4,4.25,0.25,0,84
17,G-4,4.25,0.25,0,84
17,G4,4.25,0.25,0,84
17,A4,4.25,0.25,0,84
17,B4,4.25,0.25,0,84
17,D-5,4.25,0.25,0,84
17,D5,4.25,0.25,0,84
17,E5,4.25,0.25,0,84
17,G-5,4.25,0.25,0,84
17,G5,4.25,0.25,0,84
17,A5,4.25,0.25,0,84
17,B5,4.25,0.25,0,84
17,D-6,4.25,0.25,0,84
17,D6,4.25,0.25,0,84
17,E6,4.25,0.25,0,84
17,G-6,4.25,0.25,0,84
17,G6,4.25,0.25,0,84
17,A6,4.25,0.25,0,84
17,B6,4.25,0.25,0,84
17,D-7,4.25,0.25,0,84
18,A3,4.5,0.25,0,84
18,B3,4.5,0.25,0,84
18,D-4,4.5,0.25,0,84
18,D4,4.5,0.25,100,84
18,E4,4.5,0.25,0,84
18,G-4,4.5,0.25,0,84
18,G4,4.5,0.25,0,84
18,A4,4.5,0.25,0,84
18,B4,4.5,0.25,0,84
18,D-5,4.5,0.25,0,84
18,D5,4.5,0.25,0,84
18,E5,4.5,0.25,0,84
18,G-5,4.5,0.25,0,84
18,G5,4.5,0.25,0,84
18,A5,4.5,0.25,0,84
18,B5,4.5,0.25,0,84
18,D-6,4.5,0.25,0,84
18,D6,4.5,0.25,0,84
18,E6,4.5,0.25,0,84
18,G-6,4.5,0.25,0,84
18,G6,4.5,0.25,0,84
18,A6,4.5,0.25,0,84
18,B6,4.5,0.25,0,84
18,D-7,4.5,0.25,0,84
19,A3,4.75,0.25,0,84
19,B3,4.75,0.25,0,84
19,D-4,4.75,0.25,100,84
19,D4,4.75,0.25,100,84
19,E4,4.75,0.25,0,84
19,G-4,4.75,0.25,0,84
19,G4,4.75,0.25,0,84
19,A4,4.75,0.25,0,84
19,B4,4.75,0.25,0,84
19,D-5,4.75,0.25,0,84
19,D5,4.75,0.25,0,84
19,E5,4.75,0.25,0,84
19,G-5,4.75,0.25,0,84
19,G5,4.75,0.25,0,84
19,A5,4.75,0.25,0,84
19,B5,4.75,0.25,0,84
19,D-6,4.75,0.25,0,84
19,D6,4.75,0.25,0,84
19,E6,4.75,0.25,0,84
19,G-6,4.75,0.25,0,84
19,G6,4.75,0.25,0,84
19,A6,4.75,0.25,0,84
19,B6,4.75,0.25,0,84
19,D-7,4.75,0.25,0,84
20,A3,5.0,0.25,0,84
20,B3,5.0,0.25,0,84
20,D-4,5.0,0.25,100,84
20,D4,5.0,0.25,0,84
20,E4,5.0,0.25,0,84
20,G-4,5.0,0.25,0,84
20,G4,5.0,0.25,0,84
20,A4,5.0,0.25,0,84
20,B4,5.0,0.25,0,84
20,D-5,5.0,0.25,100,84
20,D5,5.0,0.25,100,84
20,E5,5.0,0.25,0,84
20,G-5,5.0,0.25,0,84
20,G5,5.0,0.25,0,84
20,A5,5.0,0.25,0,84
20,B5,5.0,0.25,0,84
20,D-6,5.0,0.25,100,84
20,D6,5.0,0.25,0,84
20,E6,5.0,0.25,0,84
20,G-6,5.0,0.25,0,84
20,G6,5.0,0.25,0,84
20,A6,5.0,0.25,0,84
20,B6,5.0,0.25,0,84
20,D-7,5.0,0.25,0,84
21,A3,5.25,0.25,0,84
21,B3,5.25,0.25,0,84
21,D-4,5.25,0.25,100,84
21,D4,5.25,0.25,0,84
21,E4,5.25,0.25,0,84
21,G-4,5.25,0.25,0,84
21,G4,5.25,0.25,0,84
21,A4,5.25,0.25,0,84
21,B4,5.25,0.25,0,84
21,D-5,5.25,0.25,100,84
21,D5,5.25,0.25,0,84
21,E5,5.25,0.25,0,84
21,G-5,5.25,0.25,0,84
21,G5,5.25,0.25,0,84
21,A5,5.25,0.25,0,84
21,B5,5.25,0.25,0,84
21,D-6,5.25,0.25,0,84
21,D6,5.25,0.25,0,84
21,E6,5.25,0.25,0,84
21,G-6,5.25,0.25,0,84
21,G6,5.25,0.25,0,84
21,A6,5.25,0.25,0,84
21,B6,5.25,0.25,0,84
21,D-7,5.25,0.25,0,84
22,A3,5.5,0.25,0,84
22,B3,5.5,0.25,0,84
22,D-4,5.5,0.25,0,84
22,D4,5.5,0.25,0,84
22,E4,5.5,0.25,100,84
22,G-4,5.5,0.25,0,84
22,G4,5.5,0.25,0,84
22,A4,5.5,0.25,0,84
22,B4,5.5,0.25,0,84
22,D-5,5.5,0.25,0,84
22,D5,5.5,0.25,0,84
22,E5,5.5,0.25,0,84
22,G-5,5.5,0.25,0,84
22,G5,5.5,0.25,0,84
22,A5,5.5,0.25,0,84
22,B5,5.5,0.25,0,84
22,D-6,5.5,0.25,0,84
22,D6,5.5,0.25,0,84
22,E6,5.5,0.25,0,84
22,G-6,5.5,0.25,0,84
22,G6,5.5,0.25,0,84
22,A6,5.5,0.25,0,84
22,B6,5.5,0.25,0,84
22,D-7,5.5,0.25,0,84
23,A3,5.75,0.25,0,84
23,B3,5.75,0.25,0,84
23,D-4,5.75,0.25,0,84
23,D4,5.75,0.25,0,84
23,E4,5.75,0.25,100,84
23,G-4,5.75,0.25,0,84
23,G4,5.75,0.25,0,84
23,A4,5.75,0.25,0,84
23,B4,5.75,0.25,0,84
23,D-5,5.75,0.25,0,84
23,D5,5.75,0.25,0,84
23,E5,5.75,0.25,0,84
23,G-5,5.75,0.25,0,84
23,G5,5.75,0.25,0,84
23,A5,5.75,0.25,0,84
23,B5,5.75,0.25,0,84
23,D-6,5.75,0.25,0,84
23,D6,5.75,0.25,0,84
23,E6,5.75,0.25,0,84
23,G-6,5.75,0.25,0,84
23,G6,5.75,0.25,0,84
23,A6,5.75,0.25,0,84
23,B6,5.75,0.25,0,84
23,D-7,5.75,0.25,0,84
24,A3,6.0,0.25,0,84
24,B3,6.0,0.25,0,84
24,D-4,6.0,0.25,0,84
24,D4,6.0,0.25,100,84
24,E4,6.0,0.25,0,84
24,G-4,6.0,0.25,0,84
24,G4,6.0,0.25,0,84
24,A4,6.0,0.25,0,84
24,B4,6.0,0.25,0,84
24,D-5,6.0,0.25,0,84
24,D5,6.0,0.25,100,84
24,E5,6.0,0.25,0,84
24,G-5,6.0,0.25,0,84
24,G5,6.0,0.25,0,84
24,A5,6.0,0.25,100,84
24,B5,6.0,0.25,0,84
24,D-6,6.0,0.25,0,84
24,D6,6.0,0.25,100,84
24,E6,6.0,0.25,0,84
24,G-6,6.0,0.25,0,84
24,G6,6.0,0.25,0,84
24,A6,6.0,0.25,100,84
24,B6,6.0,0.25,0,84
24,D-7,6.0,0.25,0,84
25,A3,6.25,0.25,0,84
25,B3,6.25,0.25,0,84
25,D-4,6.25,0.25,0,84
25,D4,6.25,0.25,100,84
25,E4,6.25,0.25,0,84
25,G-4,6.25,0.25,0,84
25,G4,6.25,0.25,0,84
25,A4,6.25,0.25,0,84
25,B4,6.25,0.25,0,84
25,D-5,6.25,0.25,0,84
25,D5,6.25,0.25,100,84
25,E5,6.25,0.25,0,84
25,G-5,6.25,0.25,0,84
25,G5,6.25,0.25,0,84
25,A5,6.25,0.25,100,84
25,B5,6.25,0.25,0,84
25,D-6,6.25,0.25,0,84
25,D6,6.25,0.25,100,84
25,E6,6.25,0.25,0,84
25,G-6,6.25,0.25,100,84
25,G6,6.25,0.25,0,84
25,A6,6.25,0.25,100,84
25,B6,6.25,0.25,0,84
25,D-7,6.25,0.25,0,84
26,A3,6.5,0.25,0,84
26,B3,6.5,0.25,0,84
26,D-4,6.5,0.25,0,84
26,D4,6.5,0.25,100,84
26,E4,6.5,0.25,0,84
26,G-4,6.5,0.25,0,84
26,G4,6.5,0.25,0,84
26,A4,6.5,0.25,0,84
26,B4,6.5,0.25,0,84
26,D-5,6.5,0.25,0,84
26,D5,6.5,0.25,100,84
26,E5,6.5,0.25,0,84
26,G-5,6.5,0.25,0,84
26,G5,6.5,0.25,0,84
26,A5,6.5,0.25,100,84
26,B5,6.5,0.25,0,84
26,D-6,6.5,0.25,0,84
26,D6,6.5,0.25,100,84
26,E6,6.5,0.25,0,84
26,G-6,6.5,0.25,100,84
26,G6,6.5,0.25,0,84
26,A6,6.5,0.25,100,84
26,B6,6.5,0.25,0,84
26,D-7,6.5,0.25,0,84
27,A3,6.75,0.25,0,84
27,B3,6.75,0.25,0,84
27,D-4,6.75,0.25,0,84
27,D4,6.75,0.25,100,84
27,E4,6.75,0.25,0,84
27,G-4,6.75,0.25,0,84
27,G4,6.75,0.25,0,84
27,A4,6.75,0.25,0,84
27,B4,6.75,0.25,0,84
27,D-5,6.75,0.25,0,84
27,D5,6.75,0.25,100,84
27,E5,6.75,0.25,0,84
27,G-5,6.75,0.25,0,84
27,G5,6.75,0.25,0,84
27,A5,6.75,0.25,100,84
27,B5,6.75,0.25,0,84
27,D-6,6.75,0.25,0,84
27,D6,6.75,0.25,100,84
27,E6,6.75,0.25,0,84
27,G-6,6.75,0.25,100,84
27,G6,6.75,0.25,0,84
27,A6,6.75,0.25,100,84
27,B6,6.75,0.25,0,84
27,D-7,6.75,0.25,0,84
28,A3,7.0,0.25,0,84
28,B3,7.0,0.25,0,84
28,D-4,7.0,0.25,0,84
28,D4,7.0,0.25,100,84
28,E4,7.0,0.25,0,84
28,G-4,7.0,0.25,0,84
28,G4,7.0,0.25,0,84
28,A4,7.0,0.25,0,84
28,B4,7.0,0.25,0,84
28,D-5,7.0,0.25,0,84
28,D5,7.0,0.25,100,84
28,E5,7.0,0.25,0,84
28,G-5,7.0,0.25,0,84
28,G5,7.0,0.25,0,84
28,A5,7.0,0.25,100,84
28,B5,7.0,0.25,0,84
28,D-6,7.0,0.25,0,84
28,D6,7.0,0.25,100,84
28,E6,7.0,0.25,0,84
28,G-6,7.0,0.25,100,84
28,G6,7.0,0.25,0,84
28,A6,7.0,0.25,100,84
28,B6,7.0,0.25,0,84
28,D-7,7.0,0.25,0,84
29,A3,7.25,0.25,0,84
29,B3,7.25,0.25,0,84
29,D-4,7.25,0.25,0,84
29,D4,7.25,0.25,100,84
29,E4,7.25,0.25,0,84
29,G-4,7.25,0.25,0,84
29,G4,7.25,0.25,0,84
29,A4,7.25,0.25,0,84
29,B4,7.25,0.25,0,84
29,D-5,7.25,0.25,0,84
29,D5,7.25,0.25,100,84
29,E5,7.25,0.25,0,84
29,G-5,7.25,0.25,0,84
29,G5,7.25,0.25,0,84
29,A5,7.25,0.25,100,84
29,B5,7.25,0.25,0,84
29,D-6,7.25,0.25,0,84
29,D6,7.25,0.25,100,84
29,E6,7.25,0.25,0,84
29,G-6,7.25,0.25,100,84
29,G6,7.25,0.25,0,84
29,A6,7.25,0.25,100,84
29,B6,7.25,0.25,0,84
29,D-7,7.25,0.25,0,84
30,A3,7.5,0.25,0,84
30,B3,7.5,0.25,0,84
30,D-4,7.5,0.25,0,84
30,D4,7.5,0.25,100,84
30,E4,7.5,0.25,0,84
30,G-4,7.5,0.25,0,84
30,G4,7.5,0.25,0,84
30,A4,7.5,0.25,0,84
30,B4,7.5,0.25,0,84
30,D-5,7.5,0.25,0,84
30,D5,7.5,0.25,100,84
30,E5,7.5,0.25,0,84
30,G-5,7.5,0.25,0,84
30,G5,7.5,0.25,0,84
30,A5,7.5,0.25,100,84
30,B5,7.5,0.25,0,84
30,D-6,7.5,0.25,0,84
30,D6,7.5,0.25,100,84
30,E6,7.5,0.25,0,84
30,G-6,7.5,0.25,100,84
30,G6,7.5,0.25,0,84
30,A6,7.5,0.25,100,84
30,B6,7.5,0.25,0,84
30,D-7,7.5,0.25,0,84
31,A3,7.75,0.25,0,84
31,B3,7.75,0.25,0,84
31,D-4,7.75,0.25,0,84
31,D4,7.75,0.25,100,84
31,E4,7.75,0.25,0,84
31,G-4,7.75,0.25,0,84
31,G4,7.75,0.25,0,84
31,A4,7.75,0.25,0,84
31,B4,7.75,0.25,0,84
31,D-5,7.75,0.25,0,84
31,D5,7.75,0.25,100,84
31,E5,7.75,0.25,0,84
31,G-5,7.75,0.25,0,84
31,G5,7.75,0.25,0,84
31,A5,7.75,0.25,100,84
31,B5,7.75,0.25,0,84
31,D-6,7.75,0.25,0,84
31,D6,7.75,0.25,100,84
31,E6,7.75,0.25,0,84
31,G-6,7.75,0.25,100,84
31,G6,7.75,0.25,0,84
31,A6,7.75,0.25,100,84
31,B6,7.75,0.25,0,84
31,D-7,7.75,0.25,0,84
32,A3,8.0,0.25,0,84
32,B3,8.0,0.25,0,84
32,D-4,8.0,0.25,0,84
32,D4,8.0,0.25,0,84
32,E4,8.0,0.25,0,84
32,G-4,8.0,0.25,0,84
32,G4,8.0,0.25,0,84
32,A4,8.0,0.25,0,84
32,B4,8.0,0.25,0,84
32,D-5,8.0,0.25,0,84
32,D5,8.0,0.25,0,84
32,E5,8.0,0.25,0,84
32,G-5,8.0,0.25,0,84
32,G5,8.0,0.25,0,84
32,A5,8.0,0.25,0,84
32,B5,8.0,0.25,0,84
32,D-6,8.0,0.25,0,84
32,D6,8.0,0.25,0,84
32,E6,8.0,0.25,0,84
32,G-6,8.0,0.25,100,84
32,G6,8.0,0.25,0,84
32,A6,8.0,0.25,100,84
32,B6,8.0,0.25,0,84
32,D-7,8.0,0.25,0,84
33,A3,8.25,0.25,0,84
33,B3,8.25,0.25,0,84
33,D-4,8.25,0.25,0,84
33,D4,8.25,0.25,100,84
33,E4,8.25,0.25,0,84
33,G-4,8.25,0.25,0,84
33,G4,8.25,0.25,0,84
33,A4,8.25,0.25,0,84
33,B4,8.25,0.25,0,84
33,D-5,8.25,0.25,0,84
33,D5,8.25,0.25,0,84
33,E5,8.25,0.25,0,84
33,G-5,8.25,0.25,0,84
33,G5,8.25,0.25,0,84
33,A5,8.25,0.25,0,84
33,B5,8.25,0.25,0,84
33,D-6,8.25,0.25,0,84
33,D6,8.25,0.25,100,84
33,E6,8.25,0.25,0,84
33,G-6,8.25,0.25,100,84
33,G6,8.25,0.25,0,84
33,A6,8.25,0.25,100,84
33,B6,8.25,0.25,0,84
33,D-7,8.25,0.25,0,84
34,A3,8.5,0.25,0,84
34,B3,8.5,0.25,0,84
34,D-4,8.5,0.25,0,84
34,D4,8.5,0.25,0,84
34,E4,8.5,0.25,0,84
34,G-4,8.5,0.25,0,84
34,G4,8.5,0.25,0,84
34,A4,8.5,0.25,0,84
34,B4,8.5,0.25,0,84
34,D-5,8.5,0.25,0,84
34,D5,8.5,0.25,0,84
34,E5,8.5,0.25,0,84
34,G-5,8.5,0.25,0,84
34,G5,8.5,0.25,0,84
34,A5,8.5,0.25,100,84
34,B5,8.5,0.25,0,84
34,D-6,8.5,0.25,0,84
34,D6,8.5,0.25,100,84
34,E6,8.5,0.25,0,84
34,G-6,8.5,0.25,100,84
34,G6,8.5,0.25,0,84
34,A6,8.5,0.25,100,84
34,B6,8.5,0.25,0,84
34,D-7,8.5,0.25,0,84
35,A3,8.75,0.25,0,84
35,B3,8.75,0.25,0,84
35,D-4,8.75,0.25,0,84
35,D4,8.75,0.25,100,84
35,E4,8.75,0.25,0,84
35,G-4,8.75,0.25,0,84
35,G4,8.75,0.25,0,84
35,A4,8.75,0.25,0,84
35,B4,8.75,0.25,0,84
35,D-5,8.75,0.25,0,84
35,D5,8.75,0.25,0,84
35,E5,8.75,0.25,0,84
35,G-5,8.75,0.25,0,84
35,G5,8.75,0.25,0,84
35,A5,8.75,0.25,100,84
35,B5,8.75,0.25,0,84
35,D-6,8.75,0.25,0,84
35,D6,8.75,0.25,100,84
35,E6,8.75,0.25,0,84
35,G-6,8.75,0.25,100,84
35,G6,8.75,0.25,0,84
35,A6,8.75,0.25,0,84
35,B6,8.75,0.25,0,84
35,D-7,8.75,0.25,0,84
36,A3,9.0,0.25,0,84
36,B3,9.0,0.25,0,84
36,D-4,9.0,0.25,0,84
36,D4,9.0,0.25,100,84
36,E4,9.0,0.25,0,84
36,G-4,9.0,0.25,0,84
36,G4,9.0,0.25,0,84
36,A4,9.0,0.25,0,84
36,B4,9.0,0.25,0,84
36,D-5,9.0,0.25,0,84
36,D5,9.0,0.25,100,84
36,E5,9.0,0.25,0,84
36,G-5,9.0,0.25,0,84
36,G5,9.0,0.25,0,84
36,A5,9.0,0.25,100,84
36,B5,9.0,0.25,0,84
36,D-6,9.0,0.25,0,84
36,D6,9.0,0.25,100,84
36,E6,9.0,0.25,0,84
36,G-6,9.0,0.25,100,84
36,G6,9.0,0.25,0,84
36,A6,9.0,0.25,100,84
36,B6,9.0,0.25,0,84
36,D-7,9.0,0.25,0,84
37,A3,9.25,0.25,0,84
37,B3,9.25,0.25,0,84
37,D-4,9.25,0.25,0,84
37,D4,9.25,0.25,0,84
37,E4,9.25,0.25,0,84
37,G-4,9.25,0.25,0,84
37,G4,9.25,0.25,0,84
37,A4,9.25,0.25,0,84
37,B4,9.25,0.25,0,84
37,D-5,9.25,0.25,0,84
37,D5,9.25,0.25,100,84
37,E5,9.25,0.25,0,84
37,G-5,9.25,0.25,0,84
37,G5,9.25,0.25,0,84
37,A5,9.25,0.25,100,84
37,B5,9.25,0.25,0,84
37,D-6,9.25,0.25,0,84
37,D6,9.25,0.25,100,84
37,E6,9.25,0.25,0,84
37,G-6,9.25,0.25,100,84
37,G6,9.25,0.25,0,84
37,A6,9.25,0.25,0,84
37,B6,9.25,0.25,100,84
37,D-7,9.25,0.25,0,84
38,A3,9.5,0.25,0,84
38,B3,9.5,0.25,0,84
38,D-4,9.5,0.25,0,84
38,D4,9.5,0.25,0,84
38,E4,9.5,0.25,0,84
38,G-4,9.5,0.25,0,84
38,G4,9.5,0.25,0,84
38,A4,9.5,0.25,0,84
38,B4,9.5,0.25,0,84
38,D-5,9.5,0.25,0,84
38,D5,9.5,0.25,100,84
38,E5,9.5,0.25,0,84
38,G-5,9.5,0.25,0,84
38,G5,9.5,0.25,0,84
38,A5,9.5,0.25,0,84
38,B5,9.5,0.25,0,84
38,D-6,9.5,0.25,0,84
38,D6,9.5,0.25,100,84
38,E6,9.5,0.25,0,84
38,G-6,9.5,0.25,100,84
38,G6,9.5,0.25,0,84
38,A6,9.5,0.25,100,84
38,B6,9.5,0.25,100,84
38,D-7,9.5,0.25,0,84
39,A3,9.75,0.25,0,84
39,B3,9.75,0.25,0,84
39,D-4,9.75,0.25,0,84
39,D4,9.75,0.25,100,84
39,E4,9.75,0.25,0,84
39,G-4,9.75,0.25,0,84
39,G4,9.75,0.25,0,84
39,A4,9.75,0.25,0,84
39,B4,9.75,0.25,0,84
39,D-5,9.75,0.25,0,84
39,D5,9.75,0.25,0,84
39,E5,9.75,0.25,0,84
39,G-5,9.75,0.25,0,84
39,G5,9.75,0.25,0,84
39,A5,9.75,0.25,0,84
39,B5,9.75,0.25,0,84
39,D-6,9.75,0.25,0,84
39,D6,9.75,0.25,100,84
39,E6,9.75,0.25,0,84
39,G-6,9.75,0.25,100,84
39,G6,9.75,0.25,0,84
39,A6,9.75,0.25,100,84
39,B6,9.75,0.25,0,84
39,D-7,9.75,0.25,0,84
40,A3,10.0,0.25,0,84
40,B3,10.0,0.25,0,84
40,D-4,10.0,0.25,0,84
40,D4,10.0,0.25,100,84
40,E4,10.0,0.25,0,84
40,G-4,10.0,0.25,0,84
40,G4,10.0,0.25,0,84
40,A4,10.0,0.25,0,84
40,B4,10.0,0.25,0,84
40,D-5,10.0,0.25,0,84
40,D5,10.0,0.25,100,84
40,E5,10.0,0.25,0,84
40,G-5,10.0,0.25,0,84
40,G5,10.0,0.25,0,84
40,A5,10.0,0.25,100,84
40,B5,10.0,0.25,0,84
40,D-6,10.0,0.25,0,84
40,D6,10.0,0.25,100,84
40,E6,10.0,0.25,0,84
40,G-6,10.0,0.25,100,84
40,G6,10.0,0.25,0,84
40,A6,10.0,0.25,0,84
40,B6,10.0,0.25,0,84
40,D-7,10.0,0.25,0,84
41,A3,10.25,0.25,0,84
41,B3,10.25,0.25,0,84
41,D-4,10.25,0.25,0,84
41,D4,10.25,0.25,0,84
41,E4,10.25,0.25,0,84
41,G-4,10.25,0.25,0,84
41,G4,10.25,0.25,0,84
41,A4,10.25,0.25,0,84
41,B4,10.25,0.25,0,84
41,D-5,10.25,0.25,0,84
41,D5,10.25,0.25,0,84
41,E5,10.25,0.25,0,84
41,G-5,10.25,0.25,0,84
41,G5,10.25,0.25,0,84
41,A5,10.25,0.25,100,84
41,B5,10.25,0.25,0,84
41,D-6,10.25,0.25,0,84
41,D6,10.25,0.25,100,84
41,E6,10.25,0.25,0,84
41,G-6,10.25,0.25,100,84
41,G6,10.25,0.25,0,84
41,A6,10.25,0.25,0,84
41,B6,10.25,0.25,100,84
41,D-7,10.25,0.25,0,84
42,A3,10.5,0.25,0,84
42,B3,10.5,0.25,0,84
42,D-4,10.5,0.25,0,84
42,D4,10.5,0.25,0,84
42,E4,10.5,0.25,0,84
42,G-4,10.5,0.25,0,84
42,G4,10.5,0.25,0,84
42,A4,10.5,0.25,0,84
42,B4,10.5,0.25,0,84
42,D-5,10.5,0.25,0,84
42,D5,10.5,0.25,0,84
42,E5,10.5,0.25,0,84
42,G-5,10.5,0.25,0,84
42,G5,10.5,0.25,0,84
42,A5,10.5,0.25,100,84
42,B5,10.5,0.25,0,84
42,D-6,10.5,0.25,0,84
42,D6,10.5,0.25,100,84
42,E6,10.5,0.25,0,84
42,G-6,10.5,0.25,100,84
42,G6,10.5,0.25,0,84
42,A6,10.5,0.25,100,84
42,B6,10.5,0.25,100,84
42,D-7,10.5,0.25,0,84
43,A3,10.75,0.25,0,84
43,B3,10.75,0.25,0,84
43,D-4,10.75,0.25,0,84
43,D4,10.75,0.25,0,84
43,E4,10.75,0.25,0,84
43,G-4,10.75,0.25,0,84
43,G4,10.75,0.25,0,84
43,A4,10.75,0.25,0,84
43,B4,10.75,0.25,0,84
43,D-5,10.75,0.25,0,84
43,D5,10.75,0.25,0,84
43,E5,10.75,0.25,0,84
43,G-5,10.75,0.25,0,84
43,G5,10.75,0.25,0,84
43,A5,10.75,0.25,0,84
43,B5,10.75,0.25,0,84
43,D-6,10.75,0.25,0,84
43,D6,10.75,0.25,100,84
43,E6,10.75,0.25,0,84
43,G-6,10.75,0.25,100,84
43,G6,10.75,0.25,0,84
43,A6,10.75,0.25,0,84
43,B6,10.75,0.25,0,84
43,D-7,10.75,0.25,0,84
44,A3,11.0,0.25,0,84
44,B3,11.0,0.25,0,84
44,D-4,11.0,0.25,0,84
44,D4,11.0,0.25,0,84
44,E4,11.0,0.25,0,84
44,G-4,11.0,0.25,0,84
44,G4,11.0,0.25,0,84
44,A4,11.0,0.25,0,84
44,B4,11.0,0.25,0,84
44,D-5,11.0,0.25,0,84
44,D5,11.0,0.25,0,84
44,E5,11.0,0.25,0,84
44,G-5,11.0,0.25,0,84
44,G5,11.0,0.25,0,84
44,A5,11.0,0.25,0,84
44,B5,11.0,0.25,0,84
44,D-6,11.0,0.25,0,84
44,D6,11.0,0.25,0,84
44,E6,11.0,0.25,0,84
44,G-6,11.0,0.25,0,84
44,G6,11.0,0.25,0,84
44,A6,11.0,0.25,0,84
44,B6,11.0,0.25,0,84
44,D-7,11.0,0.25,0,84
45,A3,11.25,0.25,0,84
45,B3,11.25,0.25,0,84
45,D-4,11.25,0.25,0,84
45,D4,11.25,0.25,0,84
45,E4,11.25,0.25,0,84
45,G-4,11.25,0.25,0,84
45,G4,11.25,0.25,0,84
45,A4,11.25,0.25,0,84
45,B4,11.25,0.25,0,84
45,D-5,11.25,0.25,0,84
45,D5,11.25,0.25,0,84
45,E5,11.25,0.25,0,84
45,G-5,11.25,0.25,0,84
45,G5,11.25,0.25,0,84
45,A5,11.25,0.25,0,84
45,B5,11.25,0.25,0,84
45,D-6,11.25,0.25,0,84
45,D6,11.25,0.25,0,84
45,E6,11.25,0.25,0,84
45,G-6,11.25,0.25,0,84
45,G6,11.25,0.25,0,84
45,A6,11.25,0.25,0,84
45,B6,11.25,0.25,0,84
45,D-7,11.25,0.25,0,84
46,A3,11.5,0.25,0,84
46,B3,11.5,0.25,0,84
46,D-4,11.5,0.25,0,84
46,D4,11.5,0.25,0,84
46,E4,11.5,0.25,0,84
46,G-4,11.5,0.25,0,84
46,G4,11.5,0.25,0,84
46,A4,11.5,0.25,0,84
46,B4,11.5,0.25,0,84
46,D-5,11.5,0.25,0,84
46,D5,11.5,0.25,0,84
46,E5,11.5,0.25,0,84
46,G-5,11.5,0.25,0,84
46,G5,11.5,0.25,0,84
46,A5,11.5,0.25,0,84
46,B5,11.5,0.25,0,84
46,D-6,11.5,0.25,0,84
46,D6,11.5,0.25,0,84
46,E6,11.5,0.25,0,84
46,G-6,11.5,0.25,0,84
46,G6,11.5,0.25,0,84
46,A6,11.5,0.25,0,84
46,B6,11.5,0.25,0,84
46,D-7,11.5,0.25,0,84
47,A3,11.75,0.25,0,84
47,B3,11.75,0.25,0,84
47,D-4,11.75,0.25,0,84
47,D4,11.75,0.25,0,84
47,E4,11.75,0.25,0,84
47,G-4,11.75,0.25,0,84
47,G4,11.75,0.25,0,84
47,A4,11.75,0.25,0,84
47,B4,11.75,0.25,0,84
47,D-5,11.75,0.25,0,84
47,D5,11.75,0.25,0,84
47,E5,11.75,0.25,0,84
47,G-5,11.75,0.25,0,84
47,G5,11.75,0.25,0,84
47,A5,11.75,0.25,0,84
47,B5,11.75,0.25,0,84
47,D-6,11.75,0.25,0,84
47,D6,11.75,0.25,0,84
47,E6,11.75,0.25,0,84
47,G-6,11.75,0.25,0,84
47,G6,11.75,0.25,0,84
47,A6,11.75,0.25,0,84
47,B6,11.75,0.25,0,84
47,D-7,11.75,0.25,0,84
48,A3,12.0,0.25,0,84
48,B3,12.0,0.25,0,84
48,D-4,12.0,0.25,0,84
48,D4,12.0,0.25,0,84
48,E4,12.0,0.25,100,84
48,G-4,12.0,0.25,0,84
48,G4,12.0,0.25,0,84
48,A4,12.0,0.25,0,84
48,B4,12.0,0.25,0,84
48,D-5,12.0,0.25,0,84
48,D5,12.0,0.25,0,84
48,E5,12.0,0.25,0,84
48,G-5,12.0,0.25,0,84
48,G5,12.0,0.25,0,84
48,A5,12.0,0.25,0,84
48,B5,12.0,0.25,0,84
48,D-6,12.0,0.25,0,84
48,D6,12.0,0.25,0,84
48,E6,12.0,0.25,0,84
48,G-6,12.0,0.25,0,84
48,G6,12.0,0.25,0,84
48,A6,12.0,0.25,0,84
48,B6,12.0,0.25,0,84
48,D-7,12.0,0.25,0,84
49,A3,12.25,0.25,0,84
49,B3,12.25,0.25,0,84
49,D-4,12.25,0.25,0,84
49,D4,12.25,0.25,0,84
49,E4,12.25,0.25,100,84
49,G-4,12.25,0.25,0,84
49,G4,12.25,0.25,0,84
49,A4,12.25,0.25,0,84
49,B4,12.25,0.25,0,84
49,D-5,12.25,0.25,0,84
49,D5,12.25,0.25,0,84
49,E5,12.25,0.25,0,84
49,G-5,12.25,0.25,0,84
49,G5,12.25,0.25,0,84
49,A5,12.25,0.25,0,84
49,B5,12.25,0.25,0,84
49,D-6,12.25,0.25,0,84
49,D6,12.25,0.25,0,84
49,E6,12.25,0.25,0,84
49,G-6,12.25,0.25,0,84
49,G6,12.25,0.25,0,84
49,A6,12.25,0.25,0,84
49,B6,12.25,0.25,0,84
49,D-7,12.25,0.25,0,84
50,A3,12.5,0.25,0,84
50,B3,12.5,0.25,0,84
50,D-4,12.5,0.25,0,84
50,D4,12.5,0.25,0,84
50,E4,12.5,0.25,100,84
50,G-4,12.5,0.25,100,84
50,G4,12.5,0.25,0,84
50,A4,12.5,0.25,0,84
50,B4,12.5,0.25,0,84
50,D-5,12.5,0.25,0,84
50,D5,12.5,0.25,0,84
50,E5,12.5,0.25,0,84
50,G-5,12.5,0.25,100,84
50,G5,12.5,0.25,0,84
50,A5,12.5,0.25,0,84
50,B5,12.5,0.25,0,84
50,D-6,12.5,0.25,0,84
50,D6,12.5,0.25,0,84
50,E6,12.5,0.25,0,84
50,G-6,12.5,0.25,0,84
50,G6,12.5,0.25,0,84
50,A6,12.5,0.25,0,84
50,B6,12.5,0.25,0,84
50,D-7,12.5,0.25,0,84
51,A3,12.75,0.25,0,84
51,B3,12.75,0.25,0,84
51,D-4,12.75,0.25,0,84
51,D4,12.75,0.25,0,84
51,E4,12.75,0.25,0,84
51,G-4,12.75,0.25,100,84
51,G4,12.75,0.25,0,84
51,A4,12.75,0.25,0,84
51,B4,12.75,0.25,0,84
51,D-5,12.75,0.25,0,84
51,D5,12.75,0.25,0,84
51,E5,12.75,0.25,100,84
51,G-5,12.75,0.25,100,84
51,G5,12.75,0.25,0,84
51,A5,12.75,0.25,0,84
51,B5,12.75,0.25,0,84
51,D-6,12.75,0.25,0,84
51,D6,12.75,0.25,0,84
51,E6,12.75,0.25,0,84
51,G-6,12.75,0.25,0,84
51,G6,12.75,0.25,0,84
51,A6,12.75,0.25,0,84
51,B6,12.75,0.25,0,84
51,D-7,12.75,0.25,0,84
52,A3,13.0,0.25,0,84
52,B3,13.0,0.25,0,84
52,D-4,13.0,0.25,0,84
52,D4,13.0,0.25,100,84
52,E4,13.0,0.25,0,84
52,G-4,13.0,0.25,0,84
52,G4,13.0,0.25,0,84
52,A4,13.0,0.25,0,84
52,B4,13.0,0.25,0,84
52,D-5,13.0,0.25,0,84
52,D5,13.0,0.25,0,84
52,E5,13.0,0.25,0,84
52,G-5,13.0,0.25,0,84
52,G5,13.0,0.25,0,84
52,A5,13.0,0.25,0,84
52,B5,13.0,0.25,0,84
52,D-6,13.0,0.25,0,84
52,D6,13.0,0.25,0,84
52,E6,13.0,0.25,0,84
52,G-6,13.0,0.25,0,84
52,G6,13.0,0.25,0,84
52,A6,13.0,0.25,0,84
52,B6,13.0,0.25,0,84
52,D-7,13.0,0.25,0,84
53,A3,13.25,0.25,0,84
53,B3,13.25,0.25,0,84
53,D-4,13.25,0.25,100,84
53,D4,13.25,0.25,100,84
53,E4,13.25,0.25,0,84
53,G-4,13.25,0.25,0,84
53,G4,13.25,0.25,0,84
53,A4,13.25,0.25,0,84
53,B4,13.25,0.25,0,84
53,D-5,13.25,0.25,0,84
53,D5,13.25,0.25,0,84
53,E5,13.25,0.25,0,84
53,G-5,13.25,0.25,0,84
53,G5,13.25,0.25,0,84
53,A5,13.25,0.25,0,84
53,B5,13.25,0.25,0,84
53,D-6,13.25,0.25,0,84
53,D6,13.25,0.25,0,84
53,E6,13.25,0.25,0,84
53,G-6,13.25,0.25,0,84
53,G6,13.25,0.25,0,84
53,A6,13.25,0.25,0,84
53,B6,13.25,0.25,0,84
53,D-7,13.25,0.25,0,84
54,A3,13.5,0.25,0,84
54,B3,13.5,0.25,0,84
54,D-4,13.5,0.25,100,84
54,D4,13.5,0.25,0,84
54,E4,13.5,0.25,0,84
54,G-4,13.5,0.25,0,84
54,G4,13.5,0.25,0,84
54,A4,13.5,0.25,0,84
54,B4,13.5,0.25,0,84
54,D-5,13.5,0.25,100,84
54,D5,13.5,0.25,0,84
54,E5,13.5,0.25,0,84
54,G-5,13.5,0.25,0,84
54,G5,13.5,0.25,0,84
54,A5,13.5,0.25,0,84
54,B5,13.5,0.25,0,84
54,D-6,13.5,0.25,0,84
54,D6,13.5,0.25,0,84
54,E6,13.5,0.25,0,84
54,G-6,13.5,0.25,0,84
54,G6,13.5,0.25,0,84
54,A6,13.5,0.25,0,84
54,B6,13.5,0.25,0,84
54,D-7,13.5,0.25,0,84
55,A3,13.75,0.25,0,84
55,B3,13.75,0.25,100,84
55,D-4,13.75,0.25,100,84
55,D4,13.75,0.25,0,84
55,E4,13.75,0.25,0,84
55,G-4,13.75,0.25,0,84
55,G4,13.75,0.25,0,84
55,A4,13.75,0.25,0,84
55,B4,13.75,0.25,0,84
55,D-5,13.75,0.25,0,84
55,D5,13.75,0.25,0,84
55,E5,13.75,0.25,0,84
55,G-5,13.75,0.25,0,84
55,G5,13.75,0.25,0,84
55,A5,13.75,0.25,0,84
55,B5,13.75,0.25,0,84
55,D-6,13.75,0.25,0,84
55,D6,13.75,0.25,0,84
55,E6,13.75,0.25,0,84
55,G-6,13.75,0.25,0,84
55,G6,13.75,0.25,0,84
55,A6,13.75,0.25,0,84
55,B6,13.75,0.25,0,84
55,D-7,13.75,0.25,0,84
56,A3,14.0,0.25,100,84
56,B3,14.0,0.25,0,84
56,D-4,14.0,0.25,0,84
56,D4,14.0,0.25,0,84
56,E4,14.0,0.25,0,84
56,G-4,14.0,0.25,0,84
56,G4,14.0,0.25,0,84
56,A4,14.0,0.25,0,84
56,B4,14.0,0.25,0,84
56,D-5,14.0,0.25,0,84
56,D5,14.0,0.25,0,84
56,E5,14.0,0.25,0,84
56,G-5,14.0,0.25,0,84
56,G5,14.0,0.25,0,84
56,A5,14.0,0.25,0,84
56,B5,14.0,0.25,0,84
56,D-6,14.0,0.25,0,84
56,D6,14.0,0.25,0,84
56,E6,14.0,0.25,0,84
56,G-6,14.0,0.25,0,84
56,G6,14.0,0.25,0,84
56,A6,14.0,0.25,0,84
56,B6,14.0,0.25,0,84
56,D-7,14.0,0.25,0,84
57,A3,14.25,0.25,100,84
57,B3,14.25,0.25,0,84
57,D-4,14.25,0.25,0,84
57,D4,14.25,0.25,0,84
57,E4,14.25,0.25,0,84
57,G-4,14.25,0.25,0,84
57,G4,14.25,0.25,0,84
57,A4,14.25,0.25,0,84
57,B4,14.25,0.25,0,84
57,D-5,14.25,0.25,0,84
57,D5,14.25,0.25,0,84
57,E5,14.25,0.25,0,84
57,G-5,14.25,0.25,0,84
57,G5,14.25,0.25,0,84
57,A5,14.25,0.25,0,84
57,B5,14.25,0.25,0,84
57,D-6,14.25,0.25,0,84
57,D6,14.25,0.25,0,84
57,E6,14.25,0.25,0,84
57,G-6,14.25,0.25,0,84
57,G6,14.25,0.25,0,84
57,A6,14.25,0.25,0,84
57,B6,14.25,0.25,0,84
57,D-7,14.25,0.25,0,84
58,A3,14.5,0.25,100,84
58,B3,14.5,0.25,0,84
58,D-4,14.5,0.25,0,84
58,D4,14.5,0.25,0,84
58,E4,14.5,0.25,0,84
58,G-4,14.5,0.25,0,84
58,G4,14.5,0.25,0,84
58,A4,14.5,0.25,100,84
58,B4,14.5,0.25,0,84
58,D-5,14.5,0.25,0,84
58,D5,14.5,0.25,0,84
58,E5,14.5,0.25,0,84
58,G-5,14.5,0.25,0,84
58,G5,14.5,0.25,0,84
58,A5,14.5,0.25,0,84
58,B5,14.5,0.25,0,84
58,D-6,14.5,0.25,0,84
58,D6,14.5,0.25,0,84
58,E6,14.5,0.25,0,84
58,G-6,14.5,0.25,0,84
58,G6,14.5,0.25,0,84
58,A6,14.5,0.25,0,84
58,B6,14.5,0.25,100,84
58,D-7,14.5,0.25,0,84
59,A3,14.75,0.25,100,84
59,B3,14.75,0.25,0,84
59,D-4,14.75,0.25,0,84
59,D4,14.75,0.25,0,84
59,E4,14.75,0.25,0,84
59,G-4,14.75,0.25,0,84
59,G4,14.75,0.25,0,84
59,A4,14.75,0.25,100,84
59,B4,14.75,0.25,0,84
59,D-5,14.75,0.25,0,84
59,D5,14.75,0.25,0,84
59,E5,14.75,0.25,0,84
59,G-5,14.75,0.25,0,84
59,G5,14.75,0.25,0,84
59,A5,14.75,0.25,0,84
59,B5,14.75,0.25,0,84
59,D-6,14.75,0.25,0,84
59,D6,14.75,0.25,0,84
59,E6,14.75,0.25,0,84
59,G-6,14.75,0.25,0,84
59,G6,14.75,0.25,0,84
59,A6,14.75,0.25,0,84
59,B6,14.75,0.25,0,84
59,D-7,14.75,0.25,0,84
60,A3,15.0,0.25,100,84
60,B3,15.0,0.25,0,84
60,D-4,15.0,0.25,0,84
60,D4,15.0,0.25,0,84
60,E4,15.0,0.25,0,84
60,G-4,15.0,0.25,0,84
60,G4,15.0,0.25,0,84
60,A4,15.0,0.25,100,84
60,B4,15.0,0.25,0,84
60,D-5,15.0,0.25,0,84
60,D5,15.0,0.25,0,84
60,E5,15.0,0.25,0,84
60,G-5,15.0,0.25,0,84
60,G5,15.0,0.25,0,84
60,A5,15.0,0.25,0,84
60,B5,15.0,0.25,0,84
60,D-6,15.0,0.25,0,84
60,D6,15.0,0.25,0,84
60,E6,15.0,0.25,0,84
60,G-6,15.0,0.25,0,84
60,G6,15.0,0.25,0,84
60,A6,15.0,0.25,0,84
60,B6,15.0,0.25,0,84
60,D-7,15.0,0.25,0,84
61,A3,15.25,0.25,100,84
61,B3,15.25,0.25,0,84
61,D-4,15.25,0.25,0,84
61,D4,15.25,0.25,0,84
61,E4,15.25,0.25,0,84
61,G-4,15.25,0.25,0,84
61,G4,15.25,0.25,0,84
61,A4,15.25,0.25,100,84
61,B4,15.25,0.25,0,84
61,D-5,15.25,0.25,0,84
61,D5,15.25,0.25,0,84
61,E5,15.25,0.25,0,84
61,G-5,15.25,0.25,0,84
61,G5,15.25,0.25,0,84
61,A5,15.25,0.25,0,84
61,B5,15.25,0.25,0,84
61,D-6,15.25,0.25,0,84
61,D6,15.25,0.25,0,84
61,E6,15.25,0.25,0,84
61,G-6,15.25,0.25,0,84
61,G6,15.25,0.25,0,84
61,A6,15.25,0.25,0,84
61,B6,15.25,0.25,0,84
61,D-7,15.25,0.25,0,84
62,A3,15.5,0.25,100,84
62,B3,15.5,0.25,0,84
62,D-4,15.5,0.25,0,84
62,D4,15.5,0.25,0,84
62,E4,15.5,0.25,0,84
62,G-4,15.5,0.25,0,84
62,G4,15.5,0.25,0,84
62,A4,15.5,0.25,0,84
62,B4,15.5,0.25,0,84
62,D-5,15.5,0.25,0,84
62,D5,15.5,0.25,0,84
62,E5,15.5,0.25,0,84
62,G-5,15.5,0.25,0,84
62,G5,15.5,0.25,0,84
62,A5,15.5,0.25,0,84
62,B5,15.5,0.25,0,84
62,D-6,15.5,0.25,0,84
62,D6,15.5,0.25,0,84
62,E6,15.5,0.25,0,84
62,G-6,15.5,0.25,0,84
62,G6,15.5,0.25,0,84
62,A6,15.5,0.25,0,84
62,B6,15.5,0.25,0,84
62,D-7,15.5,0.25,0,84
63,A3,15.75,0.25,100,84
63,B3,15.75,0.25,0,84
63,D-4,15.75,0.25,0,84
63,D4,15.75,0.25,0,84
63,E4,15.75,0.25,0,84
63,G-4,15.75,0.25,0,84
63,G4,15.75,0.25,0,84
63,A4,15.75,0.25,0,84
63,B4,15.75,0.25,0,84
63,D-5,15.75,0.25,0,84
63,D5,15.75,0.25,0,84
63,E5,15.75,0.25,0,84
63,G-5,15.75,0.25,0,84
63,G5,15.75,0.25,0,84
63,A5,15.75,0.25,0,84
63,B5,15.75,0.25,0,84
63,D-6,15.75,0.25,0,84
63,D6,15.75,0.25,0,84
63,E6,15.75,0.25,0,84
63,G-6,15.75,0.25,0,84
63,G6,15.75,0.25,0,84
63,A6,15.75,0.25,0,84
63,B6,15.75,0.25,0,84
63,D-7,15.75,0.25,0,84
64,A3,16.0,0.25,100,84
64,B3,16.0,0.25,0,84
64,D-4,16.0,0.25,0,84
64,D4,16.0,0.25,0,84
64,E4,16.0,0.25,0,84
64,G-4,16.0,0.25,0,84
64,G4,16.0,0.25,0,84
64,A4,16.0,0.25,0,84
64,B4,16.0,0.25,0,84
64,D-5,16.0,0.25,0,84
64,D5,16.0,0.25,0,84
64,E5,16.0,0.25,0,84
64,G-5,16.0,0.25,0,84
64,G5,16.0,0.25,0,84
64,A5,16.0,0.25,0,84
64,B5,16.0,0.25,0,84
64,D-6,16.0,0.25,0,84
64,D6,16.0,0.25,0,84
64,E6,16.0,0.25,0,84
64,G-6,16.0,0.25,0,84
64,G6,16.0,0.25,0,84
64,A6,16.0,0.25,0,84
64,B6,16.0,0.25,0,84
64,D-7,16.0,0.25,0,84
65,A3,16.25,0.25,100,84
65,B3,16.25,0.25,0,84
65,D-4,16.25,0.25,0,84
65,D4,16.25,0.25,0,84
65,E4,16.25,0.25,0,84
65,G-4,16.25,0.25,0,84
65,G4,16.25,0.25,0,84
65,A4,16.25,0.25,0,84
65,B4,16.25,0.25,0,84
65,D-5,16.25,0.25,0,84
65,D5,16.25,0.25,0,84
65,E5,16.25,0.25,0,84
65,G-5,16.25,0.25,0,84
65,G5,16.25,0.25,0,84
65,A5,16.25,0.25,0,84
65,B5,16.25,0.25,0,84
65,D-6,16.25,0.25,0,84
65,D6,16.25,0.25,0,84
65,E6,16.25,0.25,0,84
65,G-6,16.25,0.25,0,84
65,G6,16.25,0.25,0,84
65,A6,16.25,0.25,0,84
65,B6,16.25,0.25,0,84
65,D-7,16.25,0.25,0,84
66,A3,16.5,0.25,100,84
66,B3,16.5,0.25,0,84
66,D-4,16.5,0.25,0,84
66,D4,16.5,0.25,0,84
66,E4,16.5,0.25,0,84
66,G-4,16.5,0.25,0,84
66,G4,16.5,0.25,0,84
66,A4,16.5,0.25,0,84
66,B4,16.5,0.25,0,84
66,D-5,16.5,0.25,0,84
66,D5,16.5,0.25,0,84
66,E5,16.5,0.25,0,84
66,G-5,16.5,0.25,0,84
66,G5,16.5,0.25,0,84
66,A5,16.5,0.25,0,84
66,B5,16.5,0.25,0,84
66,D-6,16.5,0.25,0,84
66,D6,16.5,0.25,0,84
66,E6,16.5,0.25,0,84
66,G-6,16.5,0.25,0,84
66,G6,16.5,0.25,0,84
66,A6,16.5,0.25,0,84
66,B6,16.5,0.25,0,84
66,D-7,16.5,0.25,0,84
67,A3,16.75,0.25,100,84
67,B3,16.75,0.25,0,84
67,D-4,16.75,0.25,0,84
67,D4,16.75,0.25,0,84
67,E4,16.75,0.25,0,84
67,G-4,16.75,0.25,0,84
67,G4,16.75,0.25,0,84
67,A4,16.75,0.25,0,84
67,B4,16.75,0.25,0,84
67,D-5,16.75,0.25,0,84
67,D5,16.75,0.25,0,84
67,E5,16.75,0.25,0,84
67,G-5,16.75,0.25,0,84
67,G5,16.75,0.25,0,84
67,A5,16.75,0.25,0,84
67,B5,16.75,0.25,0,84
67,D-6,16.75,0.25,0,84
67,D6,16.75,0.25,0,84
67,E6,16.75,0.25,0,84
67,G-6,16.75,0.25,0,84
67,G6,16.75,0.25,0,84
67,A6,16.75,0.25,0,84
67,B6,16.75,0.25,0,84
67,D-7,16.75,0.25,0,84
68,A3,17.0,0.25,100,84
68,B3,17.0,0.25,0,84
68,D-4,17.0,0.25,0,84
68,D4,17.0,0.25,0,84
68,E4,17.0,0.25,0,84
68,G-4,17.0,0.25,0,84
68,G4,17.0,0.25,0,84
68,A4,17.0,0.25,0,84
68,B4,17.0,0.25,0,84
68,D-5,17.0,0.25,0,84
68,D5,17.0,0.25,0,84
68,E5,17.0,0.25,0,84
68,G-5,17.0,0.25,0,84
68,G5,17.0,0.25,0,84
68,A5,17.0,0.25,0,84
68,B5,17.0,0.25,0,84
68,D-6,17.0,0.25,0,84
68,D6,17.0,0.25,0,84
68,E6,17.0,0.25,0,84
68,G-6,17.0,0.25,0,84
68,G6,17.0,0.25,0,84
68,A6,17.0,0.25,0,84
68,B6,17.0,0.25,0,84
68,D-7,17.0,0.25,0,84
69,A3,17.25,0.25,100,84
69,B3,17.25,0.25,0,84
69,D-4,17.25,0.25,0,84
69,D4,17.25,0.25,0,84
69,E4,17.25,0.25,0,84
69,G-4,17.25,0.25,0,84
69,G4,17.25,0.25,0,84
69,A4,17.25,0.25,0,84
69,B4,17.25,0.25,0,84
69,D-5,17.25,0.25,0,84
69,D5,17.25,0.25,0,84
69,E5,17.25,0.25,0,84
69,G-5,17.25,0.25,0,84
69,G5,17.25,0.25,0,84
69,A5,17.25,0.25,0,84
69,B5,17.25,0.25,0,84
69,D-6,17.25,0.25,0,84
69,D6,17.25,0.25,0,84
69,E6,17.25,0.25,0,84
69,G-6,17.25,0.25,0,84
69,G6,17.25,0.25,0,84
69,A6,17.25,0.25,0,84
69,B6,17.25,0.25,0,84
69,D-7,17.25,0.25,0,84
70,A3,17.5,0.25,100,84
70,B3,17.5,0.25,0,84
70,D-4,17.5,0.25,0,84
70,D4,17.5,0.25,0,84
70,E4,17.5,0.25,0,84
70,G-4,17.5,0.25,0,84
70,G4,17.5,0.25,0,84
70,A4,17.5,0.25,0,84
70,B4,17.5,0.25,0,84
70,D-5,17.5,0.25,0,84
70,D5,17.5,0.25,0,84
70,E5,17.5,0.25,0,84
70,G-5,17.5,0.25,0,84
70,G5,17.5,0.25,0,84
70,A5,17.5,0.25,0,84
70,B5,17.5,0.25,0,84
70,D-6,17.5,0.25,0,84
70,D6,17.5,0.25,0,84
70,E6,17.5,0.25,0,84
70,G-6,17.5,0.25,0,84
70,G6,17.5,0.25,0,84
70,A6,17.5,0.25,0,84
70,B6,17.5,0.25,0,84
70,D-7,17.5,0.25,0,84
71,A3,17.75,0.25,100,84
71,B3,17.75,0.25,0,84
71,D-4,17.75,0.25,0,84
71,D4,17.75,0.25,0,84
71,E4,17.75,0.25,0,84
71,G-4,17.75,0.25,0,84
71,G4,17.75,0.25,0,84
71,A4,17.75,0.25,0,84
71,B4,17.75,0.25,0,84
71,D-5,17.75,0.25,0,84
71,D5,17.75,0.25,0,84
71,E5,17.75,0.25,0,84
71,G-5,17.75,0.25,0,84
71,G5,17.75,0.25,0,84
71,A5,17.75,0.25,0,84
71,B5,17.75,0.25,0,84
71,D-6,17.75,0.25,0,84
71,D6,17.75,0.25,0,84
71,E6,17.75,0.25,0,84
71,G-6,17.75,0.25,0,84
71,G6,17.75,0.25,0,84
71,A6,17.75,0.25,0,84
71,B6,17.75,0.25,0,84
71,D-7,17.75,0.25,0,84
72,A3,18.0,0.25,0,84
72,B3,18.0,0.25,0,84
72,D-4,18.0,0.25,0,84
72,D4,18.0,0.25,0,84
72,E4,18.0,0.25,0,84
72,G-4,18.0,0.25,0,84
72,G4,18.0,0.25,0,84
72,A4,18.0,0.25,0,84
72,B4,18.0,0.25,0,84
72,D-5,18.0,0.25,0,84
72,D5,18.0,0.25,0,84
72,E5,18.0,0.25,0,84
72,G-5,18.0,0.25,0,84
72,G5,18.0,0.25,0,84
72,A5,18.0,0.25,0,84
72,B5,18.0,0.25,0,84
72,D-6,18.0,0.25,0,84
72,D6,18.0,0.25,0,84
72,E6,18.0,0.25,0,84
72,G-6,18.0,0.25,0,84
72,G6,18.0,0.25,0,84
72,A6,18.0,0.25,0,84
72,B6,18.0,0.25,0,84
72,D-7,18.0,0.25,0,84
73,A3,18.25,0.25,0,84
73,B3,18.25,0.25,0,84
73,D-4,18.25,0.25,0,84
73,D4,18.25,0.25,0,84
73,E4,18.25,0.25,0,84
73,G-4,18.25,0.25,0,84
73,G4,18.25,0.25,0,84
73,A4,18.25,0.25,0,84
73,B4,18.25,0.25,0,84
73,D-5,18.25,0.25,0,84
73,D5,18.25,0.25,0,84
73,E5,18.25,0.25,0,84
73,G-5,18.25,0.25,0,84
73,G5,18.25,0.25,0,84
73,A5,18.25,0.25,0,84
73,B5,18.25,0.25,0,84
73,D-6,18.25,0.25,0,84
73,D6,18.25,0.25,0,84
73,E6,18.25,0.25,0,84
73,G-6,18.25,0.25,0,84
73,G6,18.25,0.25,0,84
73,A6,18.25,0.25,0,84
73,B6,18.25,0.25,0,84
73,D-7,18.25,0.25,0,84
74,A3,18.5,0.25,0,84
74,B3,18.5,0.25,0,84
74,D-4,18.5,0.25,0,84
74,D4,18.5,0.25,0,84
74,E4,18.5,0.25,0,84
74,G-4,18.5,0.25,0,84
74,G4,18.5,0.25,0,84
74,A4,18.5,0.25,0,84
74,B4,18.5,0.25,0,84
74,D-5,18.5,0.25,0,84
74,D5,18.5,0.25,0,84
74,E5,18.5,0.25,0,84
74,G-5,18.5,0.25,0,84
74,G5,18.5,0.25,0,84
74,A5,18.5,0.25,0,84
74,B5,18.5,0.25,0,84
74,D-6,18.5,0.25,0,84
74,D6,18.5,0.25,0,84
74,E6,18.5,0.25,0,84
74,G-6,18.5,0.25,0,84
74,G6,18.5,0.25,0,84
74,A6,18.5,0.25,0,84
74,B6,18.5,0.25,0,84
74,D-7,18.5,0.25,0,84
75,A3,18.75,0.25,0,84
75,B3,18.75,0.25,0,84
75,D-4,18.75,0.25,0,84
75,D4,18.75,0.25,0,84
75,E4,18.75,0.25,0,84
75,G-4,18.75,0.25,0,84
75,G4,18.75,0.25,0,84
75,A4,18.75,0.25,0,84
75,B4,18.75,0.25,0,84
75,D-5,18.75,0.25,0,84
75,D5,18.75,0.25,0,84
75,E5,18.75,0.25,0,84
75,G-5,18.75,0.25,0,84
75,G5,18.75,0.25,0,84
75,A5,18.75,0.25,0,84
75,B5,18.75,0.25,0,84
75,D-6,18.75,0.25,0,84
75,D6,18.75,0.25,0,84
75,E6,18.75,0.25,0,84
75,G-6,18.75,0.25,0,84
75,G6,18.75,0.25,0,84
75,A6,18.75,0.25,0,84
75,B6,18.75,0.25,0,84
75,D-7,18.75,0.25,0,84
76,A3,19.0,0.25,0,84
76,B3,19.0,0.25,0,84
76,D-4,19.0,0.25,0,84
76,D4,19.0,0.25,0,84
76,E4,19.0,0.25,0,84
76,G-4,19.0,0.25,0,84
76,G4,19.0,0.25,0,84
76,A4,19.0,0.25,0,84
76,B4,19.0,0.25,0,84
76,D-5,19.0,0.25,0,84
76,D5,19.0,0.25,0,84
76,E5,19.0,0.25,0,84
76,G-5,19.0,0.25,0,84
76,G5,19.0,0.25,0,84
76,A5,19.0,0.25,0,84
76,B5,19.0,0.25,0,84
76,D-6,19.0,0.25,0,84
76,D6,19.0,0.25,0,84
76,E6,19.0,0.25,0,84
76,G-6,19.0,0.25,0,84
76,G6,19.0,0.25,0,84
76,A6,19.0,0.25,0,84
76,B6,19.0,0.25,0,84
76,D-7,19.0,0.25,0,84
77,A3,19.25,0.25,0,84
77,B3,19.25,0.25,0,84
77,D-4,19.25,0.25,0,84
77,D4,19.25,0.25,0,84
77,E4,19.25,0.25,0,84
77,G-4,19.25,0.25,0,84
77,G4,19.25,0.25,0,84
77,A4,19.25,0.25,0,84
77,B4,19.25,0.25,0,84
77,D-5,19.25,0.25,0,84
77,D5,19.25,0.25,0,84
77,E5,19.25,0.25,0,84
77,G-5,19.25,0.25,0,84
77,G5,19.25,0.25,0,84
77,A5,19.25,0.25,0,84
77,B5,19.25,0.25,0,84
77,D-6,19.25,0.25,0,84
77,D6,19.25,0.25,0,84
77,E6,19.25,0.25,0,84
77,G-6,19.25,0.25,0,84
77,G6,19.25,0.25,0,84
77,A6,19.25,0.25,0,84
77,B6,19.25,0.25,0,84
77,D-7,19.25,0.25,0,84
78,A3,19.5,0.25,0,84
78,B3,19.5,0.25,0,84
78,D-4,19.5,0.25,0,84
78,D4,19.5,0.25,0,84
78,E4,19.5,0.25,0,84
78,G-4,19.5,0.25,0,84
78,G4,19.5,0.25,0,84
78,A4,19.5,0.25,0,84
78,B4,19.5,0.25,0,84
78,D-5,19.5,0.25,0,84
78,D5,19.5,0.25,0,84
78,E5,19.5,0.25,0,84
78,G-5,19.5,0.25,0,84
78,G5,19.5,0.25,0,84
78,A5,19.5,0.25,0,84
78,B5,19.5,0.25,0,84
78,D-6,19.5,0.25,0,84
78,D6,19.5,0.25,0,84
78,E6,19.5,0.25,0,84
78,G-6,19.5,0.25,0,84
78,G6,19.5,0.25,0,84
78,A6,19.5,0.25,0,84
78,B6,19.5,0.25,0,84
78,D-7,19.5,0.25,0,84
79,A3,19.75,0.25,0,84
79,B3,19.75,0.25,0,84
79,D-4,19.75,0.25,0,84
79,D4,19.75,0.25,0,84
79,E4,19.75,0.25,0,84
79,G-4,19.75,0.25,0,84
79,G4,19.75,0.25,0,84
79,A4,19.75,0.25,0,84
79,B4,19.75,0.25,0,84
79,D-5,19.75,0.25,0,84
79,D5,19.75,0.25,0,84
79,E5,19.75,0.25,0,84
79,G-5,19.75,0.25,0,84
79,G5,19.75,0.25,0,84
79,A5,19.75,0.25,0,84
79,B5,19.75,0.25,0,84
79,D-6,19.75,0.25,0,84
79,D6,19.75,0.25,0,84
79,E6,19.75,0.25,0,84
79,G-6,19.75,0.25,0,84
79,G6,19.75,0.25,0,84
79,A6,19.75,0.25,0,84
79,B6,19.75,0.25,0,84
79,D-7,19.75,0.25,0,84
80,A3,20.0,0.25,0,84
80,B3,20.0,0.25,0,84
80,D-4,20.0,0.25,0,84
80,D4,20.0,0.25,0,84
80,E4,20.0,0.25,0,84
80,G-4,20.0,0.25,100,84
80,G4,20.0,0.25,0,84
80,A4,20.0,0.25,0,84
80,B4,20.0,0.25,0,84
80,D-5,20.0,0.25,0,84
80,D5,20.0,0.25,0,84
80,E5,20.0,0.25,0,84
80,G-5,20.0,0.25,0,84
80,G5,20.0,0.25,0,84
80,A5,20.0,0.25,0,84
80,B5,20.0,0.25,0,84
80,D-6,20.0,0.25,0,84
80,D6,20.0,0.25,0,84
80,E6,20.0,0.25,0,84
80,G-6,20.0,0.25,0,84
80,G6,20.0,0.25,0,84
80,A6,20.0,0.25,0,84
80,B6,20.0,0.25,0,84
80,D-7,20.0,0.25,0,84
81,A3,20.25,0.25,0,84
81,B3,20.25,0.25,0,84
81,D-4,20.25,0.25,0,84
81,D4,20.25,0.25,0,84
81,E4,20.25,0.25,0,84
81,G-4,20.25,0.25,100,84
81,G4,20.25,0.25,0,84
81,A4,20.25,0.25,0,84
81,B4,20.25,0.25,0,84
81,D-5,20.25,0.25,0,84
81,D5,20.25,0.25,0,84
81,E5,20.25,0.25,0,84
81,G-5,20.25,0.25,0,84
81,G5,20.25,0.25,0,84
81,A5,20.25,0.25,0,84
81,B5,20.25,0.25,0,84
81,D-6,20.25,0.25,0,84
81,D6,20.25,0.25,0,84
81,E6,20.25,0.25,0,84
81,G-6,20.25,0.25,0,84
81,G6,20.25,0.25,0,84
81,A6,20.25,0.25,0,84
81,B6,20.25,0.25,0,84
81,D-7,20.25,0.25,0,84
82,A3,20.5,0.25,0,84
82,B3,20.5,0.25,0,84
82,D-4,20.5,0.25,0,84
82,D4,20.5,0.25,0,84
82,E4,20.5,0.25,0,84
82,G-4,20.5,0.25,100,84
82,G4,20.5,0.25,0,84
82,A4,20.5,0.25,0,84
82,B4,20.5,0.25,0,84
82,D-5,20.5,0.25,0,84
82,D5,20.5,0.25,0,84
82,E5,20.5,0.25,0,84
82,G-5,20.5,0.25,0,84
82,G5,20.5,0.25,0,84
82,A5,20.5,0.25,0,84
82,B5,20.5,0.25,0,84
82,D-6,20.5,0.25,0,84
82,D6,20.5,0.25,0,84
82,E6,20.5,0.25,0,84
82,G-6,20.5,0.25,0,84
82,G6,20.5,0.25,0,84
82,A6,20.5,0.25,0,84
82,B6,20.5,0.25,0,84
82,D-7,20.5,0.25,0,84
83,A3,20.75,0.25,0,84
83,B3,20.75,0.25,0,84
83,D-4,20.75,0.25,0,84
83,D4,20.75,0.25,0,84
83,E4,20.75,0.25,0,84
83,G-4,20.75,0.25,100,84
83,G4,20.75,0.25,100,84
83,A4,20.75,0.25,0,84
83,B4,20.75,0.25,0,84
83,D-5,20.75,0.25,0,84
83,D5,20.75,0.25,0,84
83,E5,20.75,0.25,0,84
83,G-5,20.75,0.25,0,84
83,G5,20.75,0.25,0,84
83,A5,20.75,0.25,0,84
83,B5,20.75,0.25,0,84
83,D-6,20.75,0.25,0,84
83,D6,20.75,0.25,0,84
83,E6,20.75,0.25,0,84
83,G-6,20.75,0.25,0,84
83,G6,20.75,0.25,0,84
83,A6,20.75,0.25,0,84
83,B6,20.75,0.25,0,84
83,D-7,20.75,0.25,0,84
84,A3,21.0,0.25,0,84
84,B3,21.0,0.25,0,84
84,D-4,21.0,0.25,0,84
84,D4,21.0,0.25,0,84
84,E4,21.0,0.25,0,84
84,G-4,21.0,0.25,100,84
84,G4,21.0,0.25,100,84
84,A4,21.0,0.25,100,84
84,B4,21.0,0.25,0,84
84,D-5,21.0,0.25,0,84
84,D5,21.0,0.25,0,84
84,E5,21.0,0.25,0,84
84,G-5,21.0,0.25,0,84
84,G5,21.0,0.25,0,84
84,A5,21.0,0.25,0,84
84,B5,21.0,0.25,0,84
84,D-6,21.0,0.25,0,84
84,D6,21.0,0.25,0,84
84,E6,21.0,0.25,0,84
84,G-6,21.0,0.25,0,84
84,G6,21.0,0.25,0,84
84,A6,21.0,0.25,0,84
84,B6,21.0,0.25,0,84
84,D-7,21.0,0.25,0,84
85,A3,21.25,0.25,0,84
85,B3,21.25,0.25,0,84
85,D-4,21.25,0.25,0,84
85,D4,21.25,0.25,0,84
85,E4,21.25,0.25,0,84
85,G-4,21.25,0.25,0,84
85,G4,21.25,0.25,0,84
85,A4,21.25,0.25,100,84
85,B4,21.25,0.25,0,84
85,D-5,21.25,0.25,0,84
85,D5,21.25,0.25,0,84
85,E5,21.25,0.25,0,84
85,G-5,21.25,0.25,0,84
85,G5,21.25,0.25,0,84
85,A5,21.25,0.25,100,84
85,B5,21.25,0.25,0,84
85,D-6,21.25,0.25,0,84
85,D6,21.25,0.25,0,84
85,E6,21.25,0.25,0,84
85,G-6,21.25,0.25,0,84
85,G6,21.25,0.25,0,84
85,A6,21.25,0.25,0,84
85,B6,21.25,0.25,0,84
85,D-7,21.25,0.25,0,84
86,A3,21.5,0.25,0,84
86,B3,21.5,0.25,0,84
86,D-4,21.5,0.25,0,84
86,D4,21.5,0.25,0,84
86,E4,21.5,0.25,0,84
86,G-4,21.5,0.25,0,84
86,G4,21.5,0.25,0,84
86,A4,21.5,0.25,100,84
86,B4,21.5,0.25,0,84
86,D-5,21.5,0.25,0,84
86,D5,21.5,0.25,0,84
86,E5,21.5,0.25,0,84
86,G-5,21.5,0.25,0,84
86,G5,21.5,0.25,0,84
86,A5,21.5,0.25,100,84
86,B5,21.5,0.25,0,84
86,D-6,21.5,0.25,0,84
86,D6,21.5,0.25,0,84
86,E6,21.5,0.25,0,84
86,G-6,21.5,0.25,0,84
86,G6,21.5,0.25,0,84
86,A6,21.5,0.25,0,84
86,B6,21.5,0.25,0,84
86,D-7,21.5,0.25,0,84
87,A3,21.75,0.25,0,84
87,B3,21.75,0.25,0,84
87,D-4,21.75,0.25,0,84
87,D4,21.75,0.25,0,84
87,E4,21.75,0.25,0,84
87,G-4,21.75,0.25,100,84
87,G4,21.75,0.25,100,84
87,A4,21.75,0.25,100,84
87,B4,21.75,0.25,0,84
87,D-5,21.75,0.25,0,84
87,D5,21.75,0.25,0,84
87,E5,21.75,0.25,0,84
87,G-5,21.75,0.25,0,84
87,G5,21.75,0.25,0,84
87,A5,21.75,0.25,100,84
87,B5,21.75,0.25,0,84
87,D-6,21.75,0.25,0,84
87,D6,21.75,0.25,0,84
87,E6,21.75,0.25,0,84
87,G-6,21.75,0.25,0,84
87,G6,21.75,0.25,0,84
87,A6,21.75,0.25,0,84
87,B6,21.75,0.25,0,84
87,D-7,21.75,0.25,0,84
88,A3,22.0,0.25,0,84
88,B3,22.0,0.25,0,84
88,D-4,22.0,0.25,0,84
88,D4,22.0,0.25,100,84
88,E4,22.0,0.25,0,84
88,G-4,22.0,0.25,0,84
88,G4,22.0,0.25,0,84
88,A4,22.0,0.25,0,84
88,B4,22.0,0.25,0,84
88,D-5,22.0,0.25,0,84
88,D5,22.0,0.25,100,84
88,E5,22.0,0.25,0,84
88,G-5,22.0,0.25,0,84
88,G5,22.0,0.25,0,84
88,A5,22.0,0.25,100,84
88,B5,22.0,0.25,0,84
88,D-6,22.0,0.25,0,84
88,D6,22.0,0.25,100,84
88,E6,22.0,0.25,0,84
88,G-6,22.0,0.25,0,84
88,G6,22.0,0.25,0,84
88,A6,22.0,0.25,0,84
88,B6,22.0,0.25,0,84
88,D-7,22.0,0.25,0,84
89,A3,22.25,0.25,0,84
89,B3,22.25,0.25,0,84
89,D-4,22.25,0.25,0,84
89,D4,22.25,0.25,100,84
89,E4,22.25,0.25,0,84
89,G-4,22.25,0.25,0,84
89,G4,22.25,0.25,0,84
89,A4,22.25,0.25,0,84
89,B4,22.25,0.25,0,84
89,D-5,22.25,0.25,0,84
89,D5,22.25,0.25,100,84
89,E5,22.25,0.25,0,84
89,G-5,22.25,0.25,0,84
89,G5,22.25,0.25,0,84
89,A5,22.25,0.25,100,84
89,B5,22.25,0.25,0,84
89,D-6,22.25,0.25,0,84
89,D6,22.25,0.25,100,84
89,E6,22.25,0.25,0,84
89,G-6,22.25,0.25,0,84
89,G6,22.25,0.25,0,84
89,A6,22.25,0.25,0,84
89,B6,22.25,0.25,0,84
89,D-7,22.25,0.25,0,84
90,A3,22.5,0.25,0,84
90,B3,22.5,0.25,0,84
90,D-4,22.5,0.25,0,84
90,D4,22.5,0.25,100,84
90,E4,22.5,0.25,0,84
90,G-4,22.5,0.25,0,84
90,G4,22.5,0.25,0,84
90,A4,22.5,0.25,0,84
90,B4,22.5,0.25,0,84
90,D-5,22.5,0.25,0,84
90,D5,22.5,0.25,100,84
90,E5,22.5,0.25,0,84
90,G-5,22.5,0.25,0,84
90,G5,22.5,0.25,0,84
90,A5,22.5,0.25,100,84
90,B5,22.5,0.25,0,84
90,D-6,22.5,0.25,0,84
90,D6,22.5,0.25,100,84
90,E6,22.5,0.25,0,84
90,G-6,22.5,0.25,0,84
90,G6,22.5,0.25,0,84
90,A6,22.5,0.25,0,84
90,B6,22.5,0.25,0,84
90,D-7,22.5,0.25,0,84
91,A3,22.75,0.25,0,84
91,B3,22.75,0.25,0,84
91,D-4,22.75,0.25,0,84
91,D4,22.75,0.25,100,84
91,E4,22.75,0.25,0,84
91,G-4,22.75,0.25,0,84
91,G4,22.75,0.25,0,84
91,A4,22.75,0.25,0,84
91,B4,22.75,0.25,0,84
91,D-5,22.75,0.25,0,84
91,D5,22.75,0.25,100,84
91,E5,22.75,0.25,0,84
91,G-5,22.75,0.25,0,84
91,G5,22.75,0.25,0,84
91,A5,22.75,0.25,100,84
91,B5,22.75,0.25,0,84
91,D-6,22.75,0.25,0,84
91,D6,22.75,0.25,100,84
91,E6,22.75,0.25,0,84
91,G-6,22.75,0.25,0,84
91,G6,22.75,0.25,0,84
91,A6,22.75,0.25,0,84
91,B6,22.75,0.25,0,84
91,D-7,22.75,0.25,0,84
92,A3,23.0,0.25,0,84
92,B3,23.0,0.25,0,84
92,D-4,23.0,0.25,0,84
92,D4,23.0,0.25,100,84
92,E4,23.0,0.25,0,84
92,G-4,23.0,0.25,0,84
92,G4,23.0,0.25,0,84
92,A4,23.0,0.25,0,84
92,B4,23.0,0.25,0,84
92,D-5,23.0,0.25,0,84
92,D5,23.0,0.25,100,84
92,E5,23.0,0.25,0,84
92,G-5,23.0,0.25,0,84
92,G5,23.0,0.25,0,84
92,A5,23.0,0.25,100,84
92,B5,23.0,0.25,0,84
92,D-6,23.0,0.25,0,84
92,D6,23.0,0.25,100,84
92,E6,23.0,0.25,0,84
92,G-6,23.0,0.25,0,84
92,G6,23.0,0.25,0,84
92,A6,23.0,0.25,0,84
92,B6,23.0,0.25,0,84
92,D-7,23.0,0.25,0,84
93,A3,23.25,0.25,0,84
93,B3,23.25,0.25,0,84
93,D-4,23.25,0.25,0,84
93,D4,23.25,0.25,100,84
93,E4,23.25,0.25,0,84
93,G-4,23.25,0.25,0,84
93,G4,23.25,0.25,0,84
93,A4,23.25,0.25,0,84
93,B4,23.25,0.25,0,84
93,D-5,23.25,0.25,0,84
93,D5,23.25,0.25,100,84
93,E5,23.25,0.25,0,84
93,G-5,23.25,0.25,0,84
93,G5,23.25,0.25,0,84
93,A5,23.25,0.25,100,84
93,B5,23.25,0.25,0,84
93,D-6,23.25,0.25,0,84
93,D6,23.25,0.25,100,84
93,E6,23.25,0.25,0,84
93,G-6,23.25,0.25,0,84
93,G6,23.25,0.25,0,84
93,A6,23.25,0.25,0,84
93,B6,23.25,0.25,0,84
93,D-7,23.25,0.25,0,84
94,A3,23.5,0.25,0,84
94,B3,23.5,0.25,0,84
94,D-4,23.5,0.25,0,84
94,D4,23.5,0.25,100,84
94,E4,23.5,0.25,0,84
94,G-4,23.5,0.25,0,84
94,G4,23.5,0.25,0,84
94,A4,23.5,0.25,0,84
94,B4,23.5,0.25,0,84
94,D-5,23.5,0.25,0,84
94,D5,23.5,0.25,100,84
94,E5,23.5,0.25,0,84
94,G-5,23.5,0.25,0,84
94,G5,23.5,0.25,0,84
94,A5,23.5,0.25,0,84
94,B5,23.5,0.25,0,84
94,D-6,23.5,0.25,0,84
94,D6,23.5,0.25,100,84
94,E6,23.5,0.25,0,84
94,G-6,23.5,0.25,0,84
94,G6,23.5,0.25,0,84
94,A6,23.5,0.25,0,84
94,B6,23.5,0.25,0,84
94,D-7,23.5,0.25,0,84
95,A3,23.75,0.25,0,84
95,B3,23.75,0.25,0,84
95,D-4,23.75,0.25,0,84
95,D4,23.75,0.25,100,84
95,E4,23.75,0.25,0,84
95,G-4,23.75,0.25,0,84
95,G4,23.75,0.25,0,84
95,A4,23.75,0.25,0,84
95,B4,23.75,0.25,0,84
95,D-5,23.75,0.25,0,84
95,D5,23.75,0.25,0,84
95,E5,23.75,0.25,0,84
95,G-5,23.75,0.25,0,84
95,G5,23.75,0.25,0,84
95,A5,23.75,0.25,100,84
95,B5,23.75,0.25,0,84
95,D-6,23.75,0.25,0,84
95,D6,23.75,0.25,100,84
95,E6,23.75,0.25,0,84
95,G-6,23.75,0.25,0,84
95,G6,23.75,0.25,0,84
95,A6,23.75,0.25,0,84
95,B6,23.75,0.25,0,84
95,D-7,23.75,0.25,0,84
96,A3,24.0,0.25,0,84
96,B3,24.0,0.25,0,84
96,D-4,24.0,0.25,0,84
96,D4,24.0,0.25,100,84
96,E4,24.0,0.25,0,84
96,G-4,24.0,0.25,0,84
96,G4,24.0,0.25,0,84
96,A4,24.0,0.25,0,84
96,B4,24.0,0.25,0,84
96,D-5,24.0,0.25,0,84
96,D5,24.0,0.25,100,84
96,E5,24.0,0.25,0,84
96,G-5,24.0,0.25,0,84
96,G5,24.0,0.25,0,84
96,A5,24.0,0.25,100,84
96,B5,24.0,0.25,0,84
96,D-6,24.0,0.25,0,84
96,D6,24.0,0.25,100,84
96,E6,24.0,0.25,0,84
96,G-6,24.0,0.25,100,84
96,G6,24.0,0.25,0,84
96,A6,24.0,0.25,0,84
96,B6,24.0,0.25,0,84
96,D-7,24.0,0.25,0,84
97,A3,24.25,0.25,0,84
97,B3,24.25,0.25,0,84
97,D-4,24.25,0.25,0,84
97,D4,24.25,0.25,100,84
97,E4,24.25,0.25,0,84
97,G-4,24.25,0.25,0,84
97,G4,24.25,0.25,0,84
97,A4,24.25,0.25,0,84
97,B4,24.25,0.25,0,84
97,D-5,24.25,0.25,0,84
97,D5,24.25,0.25,100,84
97,E5,24.25,0.25,0,84
97,G-5,24.25,0.25,0,84
97,G5,24.25,0.25,0,84
97,A5,24.25,0.25,100,84
97,B5,24.25,0.25,0,84
97,D-6,24.25,0.25,0,84
97,D6,24.25,0.25,100,84
97,E6,24.25,0.25,0,84
97,G-6,24.25,0.25,0,84
97,G6,24.25,0.25,0,84
97,A6,24.25,0.25,0,84
97,B6,24.25,0.25,0,84
97,D-7,24.25,0.25,0,84
98,A3,24.5,0.25,0,84
98,B3,24.5,0.25,0,84
98,D-4,24.5,0.25,0,84
98,D4,24.5,0.25,100,84
98,E4,24.5,0.25,0,84
98,G-4,24.5,0.25,0,84
98,G4,24.5,0.25,0,84
98,A4,24.5,0.25,0,84
98,B4,24.5,0.25,0,84
98,D-5,24.5,0.25,0,84
98,D5,24.5,0.25,100,84
98,E5,24.5,0.25,0,84
98,G-5,24.5,0.25,0,84
98,G5,24.5,0.25,0,84
98,A5,24.5,0.25,100,84
98,B5,24.5,0.25,0,84
98,D-6,24.5,0.25,0,84
98,D6,24.5,0.25,100,84
98,E6,24.5,0.25,0,84
98,G-6,24.5,0.25,0,84
98,G6,24.5,0.25,0,84
98,A6,24.5,0.25,0,84
98,B6,24.5,0.25,0,84
98,D-7,24.5,0.25,0,84
99,A3,24.75,0.25,0,84
99,B3,24.75,0.25,0,84
99,D-4,24.75,0.25,0,84
99,D4,24.75,0.25,100,84
99,E4,24.75,0.25,0,84
99,G-4,24.75,0.25,0,84
99,G4,24.75,0.25,0,84
99,A4,24.75,0.25,0,84
99,B4,24.75,0.25,0,84
99,D-5,24.75,0.25,0,84
99,D5,24.75,0.25,100,84
99,E5,24.75,0.25,0,84
99,G-5,24.75,0.25,0,84
99,G5,24.75,0.25,0,84
99,A5,24.75,0.25,100,84
99,B5,24.75,0.25,0,84
99,D-6,24.75,0.25,0,84
99,D6,24.75,0.25,100,84
99,E6,24.75,0.25,0,84
99,G-6,24.75,0.25,0,84
99,G6,24.75,0.25,0,84
99,A6,24.75,0.25,0,84
99,B6,24.75,0.25,0,84
99,D-7,24.75,0.25,0,84
100,A3,25.0,0.25,0,84
100,B3,25.0,0.25,0,84
100,D-4,25.0,0.25,0,84
100,D4,25.0,0.25,100,84
100,E4,25.0,0.25,0,84
100,G-4,25.0,0.25,0,84
100,G4,25.0,0.25,0,84
100,A4,25.0,0.25,0,84
100,B4,25.0,0.25,0,84
100,D-5,25.0,0.25,0,84
100,D5,25.0,0.25,100,84
100,E5,25.0,0.25,0,84
100,G-5,25.0,0.25,0,84
100,G5,25.0,0.25,0,84
100,A5,25.0,0.25,100,84
100,B5,25.0,0.25,0,84
100,D-6,25.0,0.25,0,84
100,D6,25.0,0.25,100,84
100,E6,25.0,0.25,0,84
100,G-6,25.0,0.25,100,84
100,G6,25.0,0.25,0,84
100,A6,25.0,0.25,0,84
100,B6,25.0,0.25,0,84
100,D-7,25.0,0.25,0,84
101,A3,25.25,0.25,0,84
101,B3,25.25,0.25,0,84
101,D-4,25.25,0.25,0,84
101,D4,25.25,0.25,100,84
101,E4,25.25,0.25,0,84
101,G-4,25.25,0.25,0,84
101,G4,25.25,0.25,0,84
101,A4,25.25,0.25,0,84
101,B4,25.25,0.25,0,84
101,D-5,25.25,0.25,0,84
101,D5,25.25,0.25,100,84
101,E5,25.25,0.25,0,84
101,G-5,25.25,0.25,0,84
101,G5,25.25,0.25,0,84
101,A5,25.25,0.25,100,84
101,B5,25.25,0.25,0,84
101,D-6,25.25,0.25,0,84
101,D6,25.25,0.25,100,84
101,E6,25.25,0.25,0,84
101,G-6,25.25,0.25,0,84
101,G6,25.25,0.25,0,84
101,A6,25.25,0.25,0,84
101,B6,25.25,0.25,0,84
101,D-7,25.25,0.25,0,84
102,A3,25.5,0.25,0,84
102,B3,25.5,0.25,0,84
102,D-4,25.5,0.25,0,84
102,D4,25.5,0.25,0,84
102,E4,25.5,0.25,0,84
102,G-4,25.5,0.25,0,84
102,G4,25.5,0.25,0,84
102,A4,25.5,0.25,0,84
102,B4,25.5,0.25,0,84
102,D-5,25.5,0.25,0,84
102,D5,25.5,0.25,100,84
102,E5,25.5,0.25,0,84
102,G-5,25.5,0.25,0,84
102,G5,25.5,0.25,0,84
102,A5,25.5,0.25,100,84
102,B5,25.5,0.25,0,84
102,D-6,25.5,0.25,0,84
102,D6,25.5,0.25,100,84
102,E6,25.5,0.25,0,84
102,G-6,25.5,0.25,0,84
102,G6,25.5,0.25,0,84
102,A6,25.5,0.25,0,84
102,B6,25.5,0.25,0,84
102,D-7,25.5,0.25,0,84
103,A3,25.75,0.25,0,84
103,B3,25.75,0.25,0,84
103,D-4,25.75,0.25,0,84
103,D4,25.75,0.25,0,84
103,E4,25.75,0.25,0,84
103,G-4,25.75,0.25,0,84
103,G4,25.75,0.25,0,84
103,A4,25.75,0.25,0,84
103,B4,25.75,0.25,0,84
103,D-5,25.75,0.25,0,84
103,D5,25.75,0.25,100,84
103,E5,25.75,0.25,0,84
103,G-5,25.75,0.25,0,84
103,G5,25.75,0.25,0,84
103,A5,25.75,0.25,100,84
103,B5,25.75,0.25,0,84
103,D-6,25.75,0.25,0,84
103,D6,25.75,0.25,100,84
103,E6,25.75,0.25,0,84
103,G-6,25.75,0.25,0,84
103,G6,25.75,0.25,0,84
103,A6,25.75,0.25,0,84
103,B6,25.75,0.25,0,84
103,D-7,25.75,0.25,0,84
104,A3,26.0,0.25,0,84
104,B3,26.0,0.25,0,84
104,D-4,26.0,0.25,0,84
104,D4,26.0,0.25,0,84
104,E4,26.0,0.25,0,84
104,G-4,26.0,0.25,0,84
104,G4,26.0,0.25,0,84
104,A4,26.0,0.25,0,84
104,B4,26.0,0.25,0,84
104,D-5,26.0,0.25,0,84
104,D5,26.0,0.25,0,84
104,E5,26.0,0.25,0,84
104,G-5,26.0,0.25,0,84
104,G5,26.0,0.25,0,84
104,A5,26.0,0.25,0,84
104,B5,26.0,0.25,0,84
104,D-6,26.0,0.25,0,84
104,D6,26.0,0.25,0,84
104,E6,26.0,0.25,0,84
104,G-6,26.0,0.25,0,84
104,G6,26.0,0.25,0,84
104,A6,26.0,0.25,0,84
104,B6,26.0,0.25,0,84
104,D-7,26.0,0.25,0,84
105,A3,26.25,0.25,0,84
105,B3,26.25,0.25,0,84
105,D-4,26.25,0.25,0,84
105,D4,26.25,0.25,0,84
105,E4,26.25,0.25,0,84
105,G-4,26.25,0.25,0,84
105,G4,26.25,0.25,0,84
105,A4,26.25,0.25,0,84
105,B4,26.25,0.25,0,84
105,D-5,26.25,0.25,0,84
105,D5,26.25,0.25,0,84
105,E5,26.25,0.25,0,84
105,G-5,26.25,0.25,0,84
105,G5,26.25,0.25,0,84
105,A5,26.25,0.25,0,84
105,B5,26.25,0.25,0,84
105,D-6,26.25,0.25,0,84
105,D6,26.25,0.25,0,84
105,E6,26.25,0.25,0,84
105,G-6,26.25,0.25,0,84
105,G6,26.25,0.25,0,84
105,A6,26.25,0.25,0,84
105,B6,26.25,0.25,0,84
105,D-7,26.25,0.25,0,84
106,A3,26.5,0.25,0,84
106,B3,26.5,0.25,0,84
106,D-4,26.5,0.25,0,84
106,D4,26.5,0.25,0,84
106,E4,26.5,0.25,0,84
106,G-4,26.5,0.25,0,84
106,G4,26.5,0.25,0,84
106,A4,26.5,0.25,0,84
106,B4,26.5,0.25,0,84
106,D-5,26.5,0.25,0,84
106,D5,26.5,0.25,0,84
106,E5,26.5,0.25,0,84
106,G-5,26.5,0.25,0,84
106,G5,26.5,0.25,0,84
106,A5,26.5,0.25,0,84
106,B5,26.5,0.25,0,84
106,D-6,26.5,0.25,0,84
106,D6,26.5,0.25,0,84
106,E6,26.5,0.25,0,84
106,G-6,26.5,0.25,0,84
106,G6,26.5,0.25,0,84
106,A6,26.5,0.25,0,84
106,B6,26.5,0.25,0,84
106,D-7,26.5,0.25,0,84
107,A3,26.75,0.25,0,84
107,B3,26.75,0.25,0,84
107,D-4,26.75,0.25,0,84
107,D4,26.75,0.25,0,84
107,E4,26.75,0.25,0,84
107,G-4,26.75,0.25,0,84
107,G4,26.75,0.25,0,84
107,A4,26.75,0.25,0,84
107,B4,26.75,0.25,0,84
107,D-5,26.75,0.25,0,84
107,D5,26.75,0.25,0,84
107,E5,26.75,0.25,0,84
107,G-5,26.75,0.25,0,84
107,G5,26.75,0.25,0,84
107,A5,26.75,0.25,0,84
107,B5,26.75,0.25,0,84
107,D-6,26.75,0.25,0,84
107,D6,26.75,0.25,0,84
107,E6,26.75,0.25,0,84
107,G-6,26.75,0.25,0,84
107,G6,26.75,0.25,0,84
107,A6,26.75,0.25,0,84
107,B6,26.75,0.25,0,84
107,D-7,26.75,0.25,0,84
108,A3,27.0,0.25,0,84
108,B3,27.0,0.25,0,84
108,D-4,27.0,0.25,0,84
108,D4,27.0,0.25,0,84
108,E4,27.0,0.25,0,84
108,G-4,27.0,0.25,0,84
108,G4,27.0,0.25,0,84
108,A4,27.0,0.25,0,84
108,B4,27.0,0.25,0,84
108,D-5,27.0,0.25,0,84
108,D5,27.0,0.25,0,84
108,E5,27.0,0.25,0,84
108,G-5,27.0,0.25,0,84
108,G5,27.0,0.25,0,84
108,A5,27.0,0.25,0,84
108,B5,27.0,0.25,0,84
108,D-6,27.0,0.25,0,84
108,D6,27.0,0.25,0,84
108,E6,27.0,0.25,0,84
108,G-6,27.0,0.25,0,84
108,G6,27.0,0.25,0,84
108,A6,27.0,0.25,0,84
108,B6,27.0,0.25,0,84
108,D-7,27.0,0.25,0,84
109,A3,27.25,0.25,0,84
109,B3,27.25,0.25,0,84
109,D-4,27.25,0.25,0,84
109,D4,27.25,0.25,0,84
109,E4,27.25,0.25,0,84
109,G-4,27.25,0.25,0,84
109,G4,27.25,0.25,0,84
109,A4,27.25,0.25,0,84
109,B4,27.25,0.25,0,84
109,D-5,27.25,0.25,0,84
109,D5,27.25,0.25,0,84
109,E5,27.25,0.25,0,84
109,G-5,27.25,0.25,0,84
109,G5,27.25,0.25,0,84
109,A5,27.25,0.25,0,84
109,B5,27.25,0.25,0,84
109,D-6,27.25,0.25,0,84
109,D6,27.25,0.25,0,84
109,E6,27.25,0.25,0,84
109,G-6,27.25,0.25,0,84
109,G6,27.25,0.25,0,84
109,A6,27.25,0.25,0,84
109,B6,27.25,0.25,0,84
109,D-7,27.25,0.25,0,84
110,A3,27.5,0.25,0,84
110,B3,27.5,0.25,0,84
110,D-4,27.5,0.25,0,84
110,D4,27.5,0.25,0,84
110,E4,27.5,0.25,0,84
110,G-4,27.5,0.25,0,84
110,G4,27.5,0.25,0,84
110,A4,27.5,0.25,0,84
110,B4,27.5,0.25,0,84
110,D-5,27.5,0.25,0,84
110,D5,27.5,0.25,0,84
110,E5,27.5,0.25,0,84
110,G-5,27.5,0.25,0,84
110,G5,27.5,0.25,0,84
110,A5,27.5,0.25,0,84
110,B5,27.5,0.25,0,84
110,D-6,27.5,0.25,0,84
110,D6,27.5,0.25,0,84
110,E6,27.5,0.25,0,84
110,G-6,27.5,0.25,0,84
110,G6,27.5,0.25,0,84
110,A6,27.5,0.25,0,84
110,B6,27.5,0.25,0,84
110,D-7,27.5,0.25,0,84
111,A3,27.75,0.25,0,84
111,B3,27.75,0.25,0,84
111,D-4,27.75,0.25,0,84
111,D4,27.75,0.25,0,84
111,E4,27.75,0.25,0,84
111,G-4,27.75,0.25,0,84
111,G4,27.75,0.25,0,84
111,A4,27.75,0.25,0,84
111,B4,27.75,0.25,0,84
111,D-5,27.75,0.25,0,84
111,D5,27.75,0.25,0,84
111,E5,27.75,0.25,0,84
111,G-5,27.75,0.25,0,84
111,G5,27.75,0.25,0,84
111,A5,27.75,0.25,0,84
111,B5,27.75,0.25,0,84
111,D-6,27.75,0.25,0,84
111,D6,27.75,0.25,0,84
111,E6,27.75,0.25,0,84
111,G-6,27.75,0.25,0,84
111,G6,27.75,0.25,0,84
111,A6,27.75,0.25,0,84
111,B6,27.75,0.25,0,84
111,D-7,27.75,0.25,0,84
112,A3,28.0,0.25,0,84
112,B3,28.0,0.25,0,84
112,D-4,28.0,0.25,0,84
112,D4,28.0,0.25,0,84
112,E4,28.0,0.25,0,84
112,G-4,28.0,0.25,0,84
112,G4,28.0,0.25,0,84
112,A4,28.0,0.25,0,84
112,B4,28.0,0.25,0,84
112,D-5,28.0,0.25,0,84
112,D5,28.0,0.25,0,84
112,E5,28.0,0.25,0,84
112,G-5,28.0,0.25,0,84
112,G5,28.0,0.25,0,84
112,A5,28.0,0.25,0,84
112,B5,28.0,0.25,0,84
112,D-6,28.0,0.25,0,84
112,D6,28.0,0.25,0,84
112,E6,28.0,0.25,0,84
112,G-6,28.0,0.25,0,84
112,G6,28.0,0.25,0,84
112,A6,28.0,0.25,0,84
112,B6,28.0,0.25,0,84
112,D-7,28.0,0.25,0,84
113,A3,28.25,0.25,0,84
113,B3,28.25,0.25,0,84
113,D-4,28.25,0.25,0,84
113,D4,28.25,0.25,0,84
113,E4,28.25,0.25,0,84
113,G-4,28.25,0.25,0,84
113,G4,28.25,0.25,0,84
113,A4,28.25,0.25,0,84
113,B4,28.25,0.25,0,84
113,D-5,28.25,0.25,0,84
113,D5,28.25,0.25,0,84
113,E5,28.25,0.25,0,84
113,G-5,28.25,0.25,0,84
113,G5,28.25,0.25,0,84
113,A5,28.25,0.25,0,84
113,B5,28.25,0.25,0,84
113,D-6,28.25,0.25,0,84
113,D6,28.25,0.25,0,84
113,E6,28.25,0.25,0,84
113,G-6,28.25,0.25,0,84
113,G6,28.25,0.25,0,84
113,A6,28.25,0.25,0,84
113,B6,28.25,0.25,0,84
113,D-7,28.25,0.25,0,84
114,A3,28.5,0.25,0,84
114,B3,28.5,0.25,0,84
114,D-4,28.5,0.25,0,84
114,D4,28.5,0.25,100,84
114,E4,28.5,0.25,0,84
114,G-4,28.5,0.25,0,84
114,G4,28.5,0.25,0,84
114,A4,28.5,0.25,0,84
114,B4,28.5,0.25,0,84
114,D-5,28.5,0.25,0,84
114,D5,28.5,0.25,100,84
114,E5,28.5,0.25,0,84
114,G-5,28.5,0.25,0,84
114,G5,28.5,0.25,0,84
114,A5,28.5,0.25,100,84
114,B5,28.5,0.25,0,84
114,D-6,28.5,0.25,0,84
114,D6,28.5,0.25,0,84
114,E6,28.5,0.25,0,84
114,G-6,28.5,0.25,0,84
114,G6,28.5,0.25,0,84
114,A6,28.5,0.25,0,84
114,B6,28.5,0.25,0,84
114,D-7,28.5,0.25,0,84
115,A3,28.75,0.25,0,84
115,B3,28.75,0.25,0,84
115,D-4,28.75,0.25,0,84
115,D4,28.75,0.25,100,84
115,E4,28.75,0.25,0,84
115,G-4,28.75,0.25,0,84
115,G4,28.75,0.25,0,84
115,A4,28.75,0.25,0,84
115,B4,28.75,0.25,0,84
115,D-5,28.75,0.25,0,84
115,D5,28.75,0.25,100,84
115,E5,28.75,0.25,0,84
115,G-5,28.75,0.25,0,84
115,G5,28.75,0.25,0,84
115,A5,28.75,0.25,100,84
115,B5,28.75,0.25,0,84
115,D-6,28.75,0.25,0,84
115,D6,28.75,0.25,100,84
115,E6,28.75,0.25,0,84
115,G-6,28.75,0.25,0,84
115,G6,28.75,0.25,0,84
115,A6,28.75,0.25,0,84
115,B6,28.75,0.25,0,84
115,D-7,28.75,0.25,0,84
116,A3,29.0,0.25,0,84
116,B3,29.0,0.25,0,84
116,D-4,29.0,0.25,0,84
116,D4,29.0,0.25,0,84
116,E4,29.0,0.25,100,84
116,G-4,29.0,0.25,0,84
116,G4,29.0,0.25,0,84
116,A4,29.0,0.25,0,84
116,B4,29.0,0.25,0,84
116,D-5,29.0,0.25,0,84
116,D5,29.0,0.25,100,84
116,E5,29.0,0.25,100,84
116,G-5,29.0,0.25,0,84
116,G5,29.0,0.25,0,84
116,A5,29.0,0.25,0,84
116,B5,29.0,0.25,0,84
116,D-6,29.0,0.25,0,84
116,D6,29.0,0.25,0,84
116,E6,29.0,0.25,0,84
116,G-6,29.0,0.25,0,84
116,G6,29.0,0.25,0,84
116,A6,29.0,0.25,0,84
116,B6,29.0,0.25,0,84
116,D-7,29.0,0.25,0,84
117,A3,29.25,0.25,0,84
117,B3,29.25,0.25,0,84
117,D-4,29.25,0.25,0,84
117,D4,29.25,0.25,100,84
117,E4,29.25,0.25,100,84
117,G-4,29.25,0.25,0,84
117,G4,29.25,0.25,0,84
117,A4,29.25,0.25,0,84
117,B4,29.25,0.25,0,84
117,D-5,29.25,0.25,0,84
117,D5,29.25,0.25,100,84
117,E5,29.25,0.25,100,84
117,G-5,29.25,0.25,0,84
117,G5,29.25,0.25,0,84
117,A5,29.25,0.25,0,84
117,B5,29.25,0.25,0,84
117,D-6,29.25,0.25,0,84
117,D6,29.25,0.25,0,84
117,E6,29.25,0.25,100,84
117,G-6,29.25,0.25,0,84
117,G6,29.25,0.25,0,84
117,A6,29.25,0.25,0,84
117,B6,29.25,0.25,0,84
117,D-7,29.25,0.25,0,84
118,A3,29.5,0.25,0,84
118,B3,29.5,0.25,0,84
118,D-4,29.5,0.25,100,84
118,D4,29.5,0.25,0,84
118,E4,29.5,0.25,0,84
118,G-4,29.5,0.25,0,84
118,G4,29.5,0.25,0,84
118,A4,29.5,0.25,0,84
118,B4,29.5,0.25,0,84
118,D-5,29.5,0.25,0,84
118,D5,29.5,0.25,100,84
118,E5,29.5,0.25,0,84
118,G-5,29.5,0.25,0,84
118,G5,29.5,0.25,0,84
118,A5,29.5,0.25,0,84
118,B5,29.5,0.25,0,84
118,D-6,29.5,0.25,100,84
118,D6,29.5,0.25,0,84
118,E6,29.5,0.25,0,84
118,G-6,29.5,0.25,0,84
118,G6,29.5,0.25,0,84
118,A6,29.5,0.25,0,84
118,B6,29.5,0.25,0,84
118,D-7,29.5,0.25,0,84
119,A3,29.75,0.25,0,84
119,B3,29.75,0.25,0,84
119,D-4,29.75,0.25,0,84
119,D4,29.75,0.25,0,84
119,E4,29.75,0.25,0,84
119,G-4,29.75,0.25,0,84
119,G4,29.75,0.25,0,84
119,A4,29.75,0.25,0,84
119,B4,29.75,0.25,0,84
119,D-5,29.75,0.25,0,84
119,D5,29.75,0.25,0,84
119,E5,29.75,0.25,0,84
119,G-5,29.75,0.25,0,84
119,G5,29.75,0.25,0,84
119,A5,29.75,0.25,0,84
119,B5,29.75,0.25,100,84
119,D-6,29.75,0.25,0,84
119,D6,29.75,0.25,0,84
119,E6,29.75,0.25,100,84
119,G-6,29.75,0.25,100,84
119,G6,29.75,0.25,0,84
119,A6,29.75,0.25,0,84
119,B6,29.75,0.25,0,84
119,D-7,29.75,0.25,0,84
120,A3,30.0,0.25,100,84
120,B3,30.0,0.25,0,84
120,D-4,30.0,0.25,0,84
120,D4,30.0,0.25,0,84
120,E4,30.0,0.25,0,84
120,G-4,30.0,0.25,0,84
120,G4,30.0,0.25,0,84
120,A4,30.0,0.25,0,84
120,B4,30.0,0.25,0,84
120,D-5,30.0,0.25,0,84
120,D5,30.0,0.25,0,84
120,E5,30.0,0.25,100,84
120,G-5,30.0,0.25,0,84
120,G5,30.0,0.25,0,84
120,A5,30.0,0.25,0,84
120,B5,30.0,0.25,0,84
120,D-6,30.0,0.25,0,84
120,D6,30.0,0.25,0,84
120,E6,30.0,0.25,0,84
120,G-6,30.0,0.25,0,84
120,G6,30.0,0.25,0,84
120,A6,30.0,0.25,0,84
120,B6,30.0,0.25,0,84
120,D-7,30.0,0.25,0,84
121,A3,30.25,0.25,100,84
121,B3,30.25,0.25,0,84
121,D-4,30.25,0.25,0,84
121,D4,30.25,0.25,0,84
121,E4,30.25,0.25,0,84
121,G-4,30.25,0.25,0,84
121,G4,30.25,0.25,0,84
121,A4,30.25,0.25,100,84
121,B4,30.25,0.25,0,84
121,D-5,30.25,0.25,0,84
121,D5,30.25,0.25,0,84
121,E5,30.25,0.25,100,84
121,G-5,30.25,0.25,0,84
121,G5,30.25,0.25,0,84
121,A5,30.25,0.25,100,84
121,B5,30.25,0.25,0,84
121,D-6,30.25,0.25,0,84
121,D6,30.25,0.25,0,84
121,E6,30.25,0.25,0,84
121,G-6,30.25,0.25,0,84
121,G6,30.25,0.25,0,84
121,A6,30.25,0.25,0,84
121,B6,30.25,0.25,0,84
121,D-7,30.25,0.25,0,84
122,A3,30.5,0.25,100,84
122,B3,30.5,0.25,0,84
122,D-4,30.5,0.25,0,84
122,D4,30.5,0.25,0,84
122,E4,30.5,0.25,0,84
122,G-4,30.5,0.25,0,84
122,G4,30.5,0.25,0,84
122,A4,30.5,0.25,100,84
122,B4,30.5,0.25,0,84
122,D-5,30.5,0.25,0,84
122,D5,30.5,0.25,0,84
122,E5,30.5,0.25,100,84
122,G-5,30.5,0.25,0,84
122,G5,30.5,0.25,0,84
122,A5,30.5,0.25,100,84
122,B5,30.5,0.25,0,84
122,D-6,30.5,0.25,0,84
122,D6,30.5,0.25,0,84
122,E6,30.5,0.25,0,84
122,G-6,30.5,0.25,0,84
122,G6,30.5,0.25,0,84
122,A6,30.5,0.25,0,84
122,B6,30.5,0.25,0,84
122,D-7,30.5,0.25,0,84
123,A3,30.75,0.25,100,84
123,B3,30.75,0.25,0,84
123,D-4,30.75,0.25,0,84
123,D4,30.75,0.25,0,84
123,E4,30.75,0.25,0,84
123,G-4,30.75,0.25,0,84
123,G4,30.75,0.25,0,84
123,A4,30.75,0.25,100,84
123,B4,30.75,0.25,0,84
123,D-5,30.75,0.25,0,84
123,D5,30.75,0.25,0,84
123,E5,30.75,0.25,100,84
123,G-5,30.75,0.25,0,84
123,G5,30.75,0.25,0,84
123,A5,30.75,0.25,100,84
123,B5,30.75,0.25,0,84
123,D-6,30.75,0.25,0,84
123,D6,30.75,0.25,0,84
123,E6,30.75,0.25,0,84
123,G-6,30.75,0.25,0,84
123,G6,30.75,0.25,0,84
123,A6,30.75,0.25,0,84
123,B6,30.75,0.25,0,84
123,D-7,30.75,0.25,0,84
124,A3,31.0,0.25,100,84
124,B3,31.0,0.25,0,84
124,D-4,31.0,0.25,0,84
124,D4,31.0,0.25,0,84
124,E4,31.0,0.25,0,84
124,G-4,31.0,0.25,0,84
124,G4,31.0,0.25,0,84
124,A4,31.0,0.25,100,84
124,B4,31.0,0.25,0,84
124,D-5,31.0,0.25,0,84
124,D5,31.0,0.25,0,84
124,E5,31.0,0.25,100,84
124,G-5,31.0,0.25,0,84
124,G5,31.0,0.25,0,84
124,A5,31.0,0.25,100,84
124,B5,31.0,0.25,0,84
124,D-6,31.0,0.25,0,84
124,D6,31.0,0.25,0,84
124,E6,31.0,0.25,0,84
124,G-6,31.0,0.25,0,84
124,G6,31.0,0.25,0,84
124,A6,31.0,0.25,0,84
124,B6,31.0,0.25,0,84
124,D-7,31.0,0.25,0,84
125,A3,31.25,0.25,100,84
125,B3,31.25,0.25,0,84
125,D-4,31.25,0.25,0,84
125,D4,31.25,0.25,0,84
125,E4,31.25,0.25,0,84
125,G-4,31.25,0.25,0,84
125,G4,31.25,0.25,0,84
125,A4,31.25,0.25,100,84
125,B4,31.25,0.25,0,84
125,D-5,31.25,0.25,0,84
125,D5,31.25,0.25,0,84
125,E5,31.25,0.25,100,84
125,G-5,31.25,0.25,0,84
125,G5,31.25,0.25,0,84
125,A5,31.25,0.25,100,84
125,B5,31.25,0.25,0,84
125,D-6,31.25,0.25,0,84
125,D6,31.25,0.25,0,84
125,E6,31.25,0.25,0,84
125,G-6,31.25,0.25,0,84
125,G6,31.25,0.25,0,84
125,A6,31.25,0.25,0,84
125,B6,31.25,0.25,0,84
125,D-7,31.25,0.25,0,84
126,A3,31.5,0.25,100,84
126,B3,31.5,0.25,0,84
126,D-4,31.5,0.25,0,84
126,D4,31.5,0.25,0,84
126,E4,31.5,0.25,0,84
126,G-4,31.5,0.25,0,84
126,G4,31.5,0.25,0,84
126,A4,31.5,0.25,100,84
126,B4,31.5,0.25,0,84
126,D-5,31.5,0.25,0,84
126,D5,31.5,0.25,0,84
126,E5,31.5,0.25,100,84
126,G-5,31.5,0.25,0,84
126,G5,31.5,0.25,0,84
126,A5,31.5,0.25,100,84
126,B5,31.5,0.25,0,84
126,D-6,31.5,0.25,0,84
126,D6,31.5,0.25,0,84
126,E6,31.5,0.25,0,84
126,G-6,31.5,0.25,0,84
126,G6,31.5,0.25,0,84
126,A6,31.5,0.25,0,84
126,B6,31.5,0.25,0,84
126,D-7,31.5,0.25,0,84
127,A3,31.75,0.25,100,84
127,B3,31.75,0.25,0,84
127,D-4,31.75,0.25,0,84
127,D4,31.75,0.25,0,84
127,E4,31.75,0.25,0,84
127,G-4,31.75,0.25,0,84
127,G4,31.75,0.25,0,84
127,A4,31.75,0.25,100,84
127,B4,31.75,0.25,0,84
127,D-5,31.75,0.25,0,84
127,D5,31.75,0.25,0,84
127,E5,31.75,0.25,100,84
127,G-5,31.75,0.25,0,84
127,G5,31.75,0.25,0,84
127,A5,31.75,0.25,100,84
127,B5,31.75,0.25,0,84
127,D-6,31.75,0.25,0,84
127,D6,31.75,0.25,0,84
127,E6,31.75,0.25,0,84
127,G-6,31.75,0.25,0,84
127,G6,31.75,0.25,0,84
127,A6,31.75,0.25,0,84
127,B6,31.75,0.25,0,84
127,D-7,31.75,0.25,0,84
128,A3,32.0,0.25,100,84
128,B3,32.0,0.25,0,84
128,D-4,32.0,0.25,0,84
128,D4,32.0,0.25,0,84
128,E4,32.0,0.25,0,84
128,G-4,32.0,0.25,0,84
128,G4,32.0,0.25,0,84
128,A4,32.0,0.25,100,84
128,B4,32.0,0.25,0,84
128,D-5,32.0,0.25,0,84
128,D5,32.0,0.25,0,84
128,E5,32.0,0.25,0,84
128,G-5,32.0,0.25,0,84
128,G5,32.0,0.25,0,84
128,A5,32.0,0.25,0,84
128,B5,32.0,0.25,0,84
128,D-6,32.0,0.25,0,84
128,D6,32.0,0.25,0,84
128,E6,32.0,0.25,0,84
128,G-6,32.0,0.25,0,84
128,G6,32.0,0.25,0,84
128,A6,32.0,0.25,0,84
128,B6,32.0,0.25,0,84
128,D-7,32.0,0.25,0,84
129,A3,32.25,0.25,100,84
129,B3,32.25,0.25,0,84
129,D-4,32.25,0.25,0,84
129,D4,32.25,0.25,0,84
129,E4,32.25,0.25,0,84
129,G-4,32.25,0.25,0,84
129,G4,32.25,0.25,0,84
129,A4,32.25,0.25,100,84
129,B4,32.25,0.25,0,84
129,D-5,32.25,0.25,0,84
129,D5,32.25,0.25,0,84
129,E5,32.25,0.25,0,84
129,G-5,32.25,0.25,0,84
129,G5,32.25,0.25,0,84
129,A5,32.25,0.25,0,84
129,B5,32.25,0.25,0,84
129,D-6,32.25,0.25,0,84
129,D6,32.25,0.25,0,84
129,E6,32.25,0.25,0,84
129,G-6,32.25,0.25,0,84
129,G6,32.25,0.25,0,84
129,A6,32.25,0.25,0,84
129,B6,32.25,0.25,0,84
129,D-7,32.25,0.25,0,84
130,A3,32.5,0.25,0,84
130,B3,32.5,0.25,0,84
130,D-4,32.5,0.25,0,84
130,D4,32.5,0.25,0,84
130,E4,32.5,0.25,0,84
130,G-4,32.5,0.25,0,84
130,G4,32.5,0.25,0,84
130,A4,32.5,0.25,0,84
130,B4,32.5,0.25,0,84
130,D-5,32.5,0.25,0,84
130,D5,32.5,0.25,0,84
130,E5,32.5,0.25,100,84
130,G-5,32.5,0.25,0,84
130,G5,32.5,0.25,0,84
130,A5,32.5,0.25,0,84
130,B5,32.5,0.25,0,84
130,D-6,32.5,0.25,0,84
130,D6,32.5,0.25,0,84
130,E6,32.5,0.25,0,84
130,G-6,32.5,0.25,0,84
130,G6,32.5,0.25,0,84
130,A6,32.5,0.25,0,84
130,B6,32.5,0.25,0,84
130,D-7,32.5,0.25,0,84
131,A3,32.75,0.25,100,84
131,B3,32.75,0.25,0,84
131,D-4,32.75,0.25,0,84
131,D4,32.75,0.25,0,84
131,E4,32.75,0.25,0,84
131,G-4,32.75,0.25,0,84
131,G4,32.75,0.25,0,84
131,A4,32.75,0.25,0,84
131,B4,32.75,0.25,0,84
131,D-5,32.75,0.25,0,84
131,D5,32.75,0.25,0,84
131,E5,32.75,0.25,0,84
131,G-5,32.75,0.25,0,84
131,G5,32.75,0.25,0,84
131,A5,32.75,0.25,0,84
131,B5,32.75,0.25,0,84
131,D-6,32.75,0.25,0,84
131,D6,32.75,0.25,0,84
131,E6,32.75,0.25,0,84
131,G-6,32.75,0.25,0,84
131,G6,32.75,0.25,0,84
131,A6,32.75,0.25,0,84
131,B6,32.75,0.25,0,84
131,D-7,32.75,0.25,0,84
132,A3,33.0,0.25,100,84
132,B3,33.0,0.25,0,84
132,D-4,33.0,0.25,0,84
132,D4,33.0,0.25,0,84
132,E4,33.0,0.25,0,84
132,G-4,33.0,0.25,0,84
132,G4,33.0,0.25,0,84
132,A4,33.0,0.25,0,84
132,B4,33.0,0.25,0,84
132,D-5,33.0,0.25,0,84
132,D5,33.0,0.25,0,84
132,E5,33.0,0.25,0,84
132,G-5,33.0,0.25,0,84
132,G5,33.0,0.25,0,84
132,A5,33.0,0.25,0,84
132,B5,33.0,0.25,0,84
132,D-6,33.0,0.25,0,84
132,D6,33.0,0.25,0,84
132,E6,33.0,0.25,0,84
132,G-6,33.0,0.25,0,84
132,G6,33.0,0.25,0,84
132,A6,33.0,0.25,0,84
132,B6,33.0,0.25,0,84
132,D-7,33.0,0.25,0,84
133,A3,33.25,0.25,100,84
133,B3,33.25,0.25,0,84
133,D-4,33.25,0.25,0,84
133,D4,33.25,0.25,0,84
133,E4,33.25,0.25,0,84
133,G-4,33.25,0.25,0,84
133,G4,33.25,0.25,0,84
133,A4,33.25,0.25,0,84
133,B4,33.25,0.25,0,84
133,D-5,33.25,0.25,0,84
133,D5,33.25,0.25,0,84
133,E5,33.25,0.25,0,84
133,G-5,33.25,0.25,0,84
133,G5,33.25,0.25,0,84
133,A5,33.25,0.25,0,84
133,B5,33.25,0.25,0,84
133,D-6,33.25,0.25,0,84
133,D6,33.25,0.25,0,84
133,E6,33.25,0.25,0,84
133,G-6,33.25,0.25,0,84
133,G6,33.25,0.25,0,84
133,A6,33.25,0.25,0,84
133,B6,33.25,0.25,0,84
133,D-7,33.25,0.25,0,84
134,A3,33.5,0.25,100,84
134,B3,33.5,0.25,0,84
134,D-4,33.5,0.25,0,84
134,D4,33.5,0.25,0,84
134,E4,33.5,0.25,0,84
134,G-4,33.5,0.25,0,84
134,G4,33.5,0.25,0,84
134,A4,33.5,0.25,0,84
134,B4,33.5,0.25,0,84
134,D-5,33.5,0.25,0,84
134,D5,33.5,0.25,0,84
134,E5,33.5,0.25,0,84
134,G-5,33.5,0.25,0,84
134,G5,33.5,0.25,0,84
134,A5,33.5,0.25,0,84
134,B5,33.5,0.25,0,84
134,D-6,33.5,0.25,0,84
134,D6,33.5,0.25,0,84
134,E6,33.5,0.25,0,84
134,G-6,33.5,0.25,0,84
134,G6,33.5,0.25,0,84
134,A6,33.5,0.25,0,84
134,B6,33.5,0.25,0,84
134,D-7,33.5,0.25,0,84
135,A3,33.75,0.25,100,84
135,B3,33.75,0.25,0,84
135,D-4,33.75,0.25,0,84
135,D4,33.75,0.25,0,84
135,E4,33.75,0.25,0,84
135,G-4,33.75,0.25,0,84
135,G4,33.75,0.25,0,84
135,A4,33.75,0.25,0,84
135,B4,33.75,0.25,0,84
135,D-5,33.75,0.25,0,84
135,D5,33.75,0.25,0,84
135,E5,33.75,0.25,0,84
135,G-5,33.75,0.25,0,84
135,G5,33.75,0.25,0,84
135,A5,33.75,0.25,0,84
135,B5,33.75,0.25,0,84
135,D-6,33.75,0.25,0,84
135,D6,33.75,0.25,0,84
135,E6,33.75,0.25,0,84
135,G-6,33.75,0.25,0,84
135,G6,33.75,0.25,0,84
135,A6,33.75,0.25,0,84
135,B6,33.75,0.25,0,84
135,D-7,33.75,0.25,0,84
136,A3,34.0,0.25,100,84
136,B3,34.0,0.25,0,84
136,D-4,34.0,0.25,0,84
136,D4,34.0,0.25,0,84
136,E4,34.0,0.25,0,84
136,G-4,34.0,0.25,0,84
136,G4,34.0,0.25,0,84
136,A4,34.0,0.25,0,84
136,B4,34.0,0.25,0,84
136,D-5,34.0,0.25,0,84
136,D5,34.0,0.25,0,84
136,E5,34.0,0.25,0,84
136,G-5,34.0,0.25,0,84
136,G5,34.0,0.25,0,84
136,A5,34.0,0.25,0,84
136,B5,34.0,0.25,0,84
136,D-6,34.0,0.25,0,84
136,D6,34.0,0.25,0,84
136,E6,34.0,0.25,0,84
136,G-6,34.0,0.25,0,84
136,G6,34.0,0.25,0,84
136,A6,34.0,0.25,0,84
136,B6,34.0,0.25,0,84
136,D-7,34.0,0.25,0,84
137,A3,34.25,0.25,100,84
137,B3,34.25,0.25,0,84
137,D-4,34.25,0.25,0,84
137,D4,34.25,0.25,0,84
137,E4,34.25,0.25,0,84
137,G-4,34.25,0.25,0,84
137,G4,34.25,0.25,0,84
137,A4,34.25,0.25,0,84
137,B4,34.25,0.25,0,84
137,D-5,34.25,0.25,0,84
137,D5,34.25,0.25,0,84
137,E5,34.25,0.25,0,84
137,G-5,34.25,0.25,0,84
137,G5,34.25,0.25,0,84
137,A5,34.25,0.25,0,84
137,B5,34.25,0.25,0,84
137,D-6,34.25,0.25,0,84
137,D6,34.25,0.25,0,84
137,E6,34.25,0.25,0,84
137,G-6,34.25,0.25,0,84
137,G6,34.25,0.25,0,84
137,A6,34.25,0.25,0,84
137,B6,34.25,0.25,0,84
137,D-7,34.25,0.25,0,84
138,A3,34.5,0.25,0,84
138,B3,34.5,0.25,0,84
138,D-4,34.5,0.25,0,84
138,D4,34.5,0.25,0,84
138,E4,34.5,0.25,0,84
138,G-4,34.5,0.25,0,84
138,G4,34.5,0.25,0,84
138,A4,34.5,0.25,0,84
138,B4,34.5,0.25,0,84
138,D-5,34.5,0.25,0,84
138,D5,34.5,0.25,0,84
138,E5,34.5,0.25,0,84
138,G-5,34.5,0.25,0,84
138,G5,34.5,0.25,0,84
138,A5,34.5,0.25,0,84
138,B5,34.5,0.25,0,84
138,D-6,34.5,0.25,0,84
138,D6,34.5,0.25,0,84
138,E6,34.5,0.25,0,84
138,G-6,34.5,0.25,0,84
138,G6,34.5,0.25,0,84
138,A6,34.5,0.25,0,84
138,B6,34.5,0.25,0,84
138,D-7,34.5,0.25,0,84
139,A3,34.75,0.25,100,84
139,B3,34.75,0.25,0,84
139,D-4,34.75,0.25,0,84
139,D4,34.75,0.25,0,84
139,E4,34.75,0.25,0,84
139,G-4,34.75,0.25,0,84
139,G4,34.75,0.25,0,84
139,A4,34.75,0.25,0,84
139,B4,34.75,0.25,0,84
139,D-5,34.75,0.25,0,84
139,D5,34.75,0.25,0,84
139,E5,34.75,0.25,0,84
139,G-5,34.75,0.25,0,84
139,G5,34.75,0.25,0,84
139,A5,34.75,0.25,0,84
139,B5,34.75,0.25,0,84
139,D-6,34.75,0.25,0,84
139,D6,34.75,0.25,0,84
139,E6,34.75,0.25,0,84
139,G-6,34.75,0.25,0,84
139,G6,34.75,0.25,0,84
139,A6,34.75,0.25,0,84
139,B6,34.75,0.25,0,84
139,D-7,34.75,0.25,0,84
140,A3,35.0,0.25,0,84
140,B3,35.0,0.25,0,84
140,D-4,35.0,0.25,0,84
140,D4,35.0,0.25,0,84
140,E4,35.0,0.25,0,84
140,G-4,35.0,0.25,0,84
140,G4,35.0,0.25,0,84
140,A4,35.0,0.25,0,84
140,B4,35.0,0.25,0,84
140,D-5,35.0,0.25,0,84
140,D5,35.0,0.25,0,84
140,E5,35.0,0.25,0,84
140,G-5,35.0,0.25,0,84
140,G5,35.0,0.25,0,84
140,A5,35.0,0.25,0,84
140,B5,35.0,0.25,0,84
140,D-6,35.0,0.25,0,84
140,D6,35.0,0.25,0,84
140,E6,35.0,0.25,0,84
140,G-6,35.0,0.25,0,84
140,G6,35.0,0.25,0,84
140,A6,35.0,0.25,0,84
140,B6,35.0,0.25,0,84
140,D-7,35.0,0.25,0,84
141,A3,35.25,0.25,100,84
141,B3,35.25,0.25,0,84
141,D-4,35.25,0.25,0,84
141,D4,35.25,0.25,0,84
141,E4,35.25,0.25,0,84
141,G-4,35.25,0.25,0,84
141,G4,35.25,0.25,0,84
141,A4,35.25,0.25,0,84
141,B4,35.25,0.25,0,84
141,D-5,35.25,0.25,0,84
141,D5,35.25,0.25,0,84
141,E5,35.25,0.25,0,84
141,G-5,35.25,0.25,0,84
141,G5,35.25,0.25,0,84
141,A5,35.25,0.25,0,84
141,B5,35.25,0.25,0,84
141,D-6,35.25,0.25,0,84
141,D6,35.25,0.25,0,84
141,E6,35.25,0.25,0,84
141,G-6,35.25,0.25,0,84
141,G6,35.25,0.25,0,84
141,A6,35.25,0.25,0,84
141,B6,35.25,0.25,0,84
141,D-7,35.25,0.25,0,84
142,A3,35.5,0.25,0,84
142,B3,35.5,0.25,0,84
142,D-4,35.5,0.25,0,84
142,D4,35.5,0.25,0,84
142,E4,35.5,0.25,0,84
142,G-4,35.5,0.25,0,84
142,G4,35.5,0.25,0,84
142,A4,35.5,0.25,0,84
142,B4,35.5,0.25,0,84
142,D-5,35.5,0.25,0,84
142,D5,35.5,0.25,0,84
142,E5,35.5,0.25,0,84
142,G-5,35.5,0.25,0,84
142,G5,35.5,0.25,0,84
142,A5,35.5,0.25,0,84
142,B5,35.5,0.25,0,84
142,D-6,35.5,0.25,0,84
142,D6,35.5,0.25,0,84
142,E6,35.5,0.25,0,84
142,G-6,35.5,0.25,0,84
142,G6,35.5,0.25,0,84
142,A6,35.5,0.25,0,84
142,B6,35.5,0.25,0,84
142,D-7,35.5,0.25,0,84
143,A3,35.75,0.25,0,84
143,B3,35.75,0.25,0,84
143,D-4,35.75,0.25,0,84
143,D4,35.75,0.25,0,84
143,E4,35.75,0.25,0,84
143,G-4,35.75,0.25,0,84
143,G4,35.75,0.25,0,84
143,A4,35.75,0.25,0,84
143,B4,35.75,0.25,0,84
143,D-5,35.75,0.25,0,84
143,D5,35.75,0.25,0,84
143,E5,35.75,0.25,0,84
143,G-5,35.75,0.25,0,84
143,G5,35.75,0.25,0,84
143,A5,35.75,0.25,0,84
143,B5,35.75,0.25,0,84
143,D-6,35.75,0.25,0,84
143,D6,35.75,0.25,0,84
143,E6,35.75,0.25,0,84
143,G-6,35.75,0.25,0,84
143,G6,35.75,0.25,0,84
143,A6,35.75,0.25,0,84
143,B6,35.75,0.25,0,84
143,D-7,35.75,0.25,0,84
144,A3,36.0,0.25,0,84
144,B3,36.0,0.25,0,84
144,D-4,36.0,0.25,0,84
144,D4,36.0,0.25,0,84
144,E4,36.0,0.25,0,84
144,G-4,36.0,0.25,0,84
144,G4,36.0,0.25,0,84
144,A4,36.0,0.25,0,84
144,B4,36.0,0.25,0,84
144,D-5,36.0,0.25,0,84
144,D5,36.0,0.25,0,84
144,E5,36.0,0.25,0,84
144,G-5,36.0,0.25,0,84
144,G5,36.0,0.25,0,84
144,A5,36.0,0.25,0,84
144,B5,36.0,0.25,0,84
144,D-6,36.0,0.25,0,84
144,D6,36.0,0.25,0,84
144,E6,36.0,0.25,0,84
144,G-6,36.0,0.25,0,84
144,G6,36.0,0.25,0,84
144,A6,36.0,0.25,0,84
144,B6,36.0,0.25,0,84
144,D-7,36.0,0.25,0,84
145,A3,36.25,0.25,0,84
145,B3,36.25,0.25,0,84
145,D-4,36.25,0.25,0,84
145,D4,36.25,0.25,0,84
145,E4,36.25,0.25,0,84
145,G-4,36.25,0.25,0,84
145,G4,36.25,0.25,0,84
145,A4,36.25,0.25,0,84
145,B4,36.25,0.25,0,84
145,D-5,36.25,0.25,0,84
145,D5,36.25,0.25,0,84
145,E5,36.25,0.25,0,84
145,G-5,36.25,0.25,0,84
145,G5,36.25,0.25,0,84
145,A5,36.25,0.25,0,84
145,B5,36.25,0.25,0,84
145,D-6,36.25,0.25,0,84
145,D6,36.25,0.25,0,84
145,E6,36.25,0.25,0,84
145,G-6,36.25,0.25,0,84
145,G6,36.25,0.25,0,84
145,A6,36.25,0.25,0,84
145,B6,36.25,0.25,0,84
145,D-7,36.25,0.25,0,84
146,A3,36.5,0.25,0,84
146,B3,36.5,0.25,0,84
146,D-4,36.5,0.25,0,84
146,D4,36.5,0.25,0,84
146,E4,36.5,0.25,0,84
146,G-4,36.5,0.25,0,84
146,G4,36.5,0.25,0,84
146,A4,36.5,0.25,0,84
146,B4,36.5,0.25,0,84
146,D-5,36.5,0.25,0,84
146,D5,36.5,0.25,0,84
146,E5,36.5,0.25,0,84
146,G-5,36.5,0.25,0,84
146,G5,36.5,0.25,0,84
146,A5,36.5,0.25,0,84
146,B5,36.5,0.25,0,84
146,D-6,36.5,0.25,0,84
146,D6,36.5,0.25,0,84
146,E6,36.5,0.25,0,84
146,G-6,36.5,0.25,0,84
146,G6,36.5,0.25,0,84
146,A6,36.5,0.25,0,84
146,B6,36.5,0.25,0,84
146,D-7,36.5,0.25,0,84
147,A3,36.75,0.25,0,84
147,B3,36.75,0.25,0,84
147,D-4,36.75,0.25,0,84
147,D4,36.75,0.25,0,84
147,E4,36.75,0.25,0,84
147,G-4,36.75,0.25,0,84
147,G4,36.75,0.25,0,84
147,A4,36.75,0.25,0,84
147,B4,36.75,0.25,0,84
147,D-5,36.75,0.25,0,84
147,D5,36.75,0.25,0,84
147,E5,36.75,0.25,0,84
147,G-5,36.75,0.25,0,84
147,G5,36.75,0.25,0,84
147,A5,36.75,0.25,0,84
147,B5,36.75,0.25,0,84
147,D-6,36.75,0.25,0,84
147,D6,36.75,0.25,0,84
147,E6,36.75,0.25,0,84
147,G-6,36.75,0.25,0,84
147,G6,36.75,0.25,0,84
147,A6,36.75,0.25,0,84
147,B6,36.75,0.25,0,84
147,D-7,36.75,0.25,0,84
148,A3,37.0,0.25,0,84
148,B3,37.0,0.25,0,84
148,D-4,37.0,0.25,0,84
148,D4,37.0,0.25,0,84
148,E4,37.0,0.25,0,84
148,G-4,37.0,0.25,0,84
148,G4,37.0,0.25,0,84
148,A4,37.0,0.25,0,84
148,B4,37.0,0.25,0,84
148,D-5,37.0,0.25,0,84
148,D5,37.0,0.25,0,84
148,E5,37.0,0.25,0,84
148,G-5,37.0,0.25,0,84
148,G5,37.0,0.25,0,84
148,A5,37.0,0.25,0,84
148,B5,37.0,0.25,0,84
148,D-6,37.0,0.25,0,84
148,D6,37.0,0.25,0,84
148,E6,37.0,0.25,0,84
148,G-6,37.0,0.25,0,84
148,G6,37.0,0.25,0,84
148,A6,37.0,0.25,0,84
148,B6,37.0,0.25,0,84
148,D-7,37.0,0.25,0,84
149,A3,37.25,0.25,0,84
149,B3,37.25,0.25,0,84
149,D-4,37.25,0.25,0,84
149,D4,37.25,0.25,0,84
149,E4,37.25,0.25,0,84
149,G-4,37.25,0.25,0,84
149,G4,37.25,0.25,0,84
149,A4,37.25,0.25,0,84
149,B4,37.25,0.25,0,84
149,D-5,37.25,0.25,0,84
149,D5,37.25,0.25,0,84
149,E5,37.25,0.25,0,84
149,G-5,37.25,0.25,0,84
149,G5,37.25,0.25,0,84
149,A5,37.25,0.25,0,84
149,B5,37.25,0.25,0,84
149,D-6,37.25,0.25,0,84
149,D6,37.25,0.25,0,84
149,E6,37.25,0.25,0,84
149,G-6,37.25,0.25,0,84
149,G6,37.25,0.25,0,84
149,A6,37.25,0.25,0,84
149,B6,37.25,0.25,0,84
149,D-7,37.25,0.25,0,84
150,A3,37.5,0.25,0,84
150,B3,37.5,0.25,0,84
150,D-4,37.5,0.25,0,84
150,D4,37.5,0.25,0,84
150,E4,37.5,0.25,0,84
150,G-4,37.5,0.25,0,84
150,G4,37.5,0.25,0,84
150,A4,37.5,0.25,0,84
150,B4,37.5,0.25,0,84
150,D-5,37.5,0.25,0,84
150,D5,37.5,0.25,0,84
150,E5,37.5,0.25,0,84
150,G-5,37.5,0.25,0,84
150,G5,37.5,0.25,0,84
150,A5,37.5,0.25,0,84
150,B5,37.5,0.25,0,84
150,D-6,37.5,0.25,0,84
150,D6,37.5,0.25,0,84
150,E6,37.5,0.25,0,84
150,G-6,37.5,0.25,0,84
150,G6,37.5,0.25,0,84
150,A6,37.5,0.25,0,84
150,B6,37.5,0.25,0,84
150,D-7,37.5,0.25,0,84
151,A3,37.75,0.25,0,84
151,B3,37.75,0.25,0,84
151,D-4,37.75,0.25,0,84
151,D4,37.75,0.25,0,84
151,E4,37.75,0.25,0,84
151,G-4,37.75,0.25,0,84
151,G4,37.75,0.25,0,84
151,A4,37.75,0.25,0,84
151,B4,37.75,0.25,0,84
151,D-5,37.75,0.25,0,84
151,D5,37.75,0.25,0,84
151,E5,37.75,0.25,0,84
151,G-5,37.75,0.25,0,84
151,G5,37.75,0.25,0,84
151,A5,37.75,0.25,0,84
151,B5,37.75,0.25,0,84
151,D-6,37.75,0.25,0,84
151,D6,37.75,0.25,0,84
151,E6,37.75,0.25,0,84
151,G-6,37.75,0.25,0,84
151,G6,37.75,0.25,0,84
151,A6,37.75,0.25,0,84
151,B6,37.75,0.25,0,84
151,D-7,37.75,0.25,0,84
